G75*
G70*
%OFA0B0*%
%FSLAX24Y24*%
%IPPOS*%
%LPD*%
%AMOC8*
5,1,8,0,0,1.08239X$1,22.5*
%
%ADD10C,0.0520*%
%ADD11C,0.0600*%
%ADD12OC8,0.0520*%
%ADD13R,0.0260X0.0800*%
%ADD14R,0.0630X0.0512*%
%ADD15R,0.0512X0.0630*%
%ADD16C,0.0500*%
%ADD17C,0.0240*%
%ADD18C,0.0500*%
%ADD19C,0.0160*%
%ADD20C,0.0120*%
%ADD21C,0.0310*%
%ADD22C,0.0396*%
D10*
X014931Y010181D03*
X016831Y010181D03*
D11*
X022781Y010101D02*
X022781Y010461D01*
X023781Y010461D02*
X023781Y010101D01*
X024781Y010101D02*
X024781Y010461D01*
X026581Y010461D02*
X026581Y010101D01*
X027581Y010101D02*
X027581Y010461D01*
X028581Y010461D02*
X028581Y010101D01*
X041401Y009181D02*
X041761Y009181D01*
X041761Y008181D02*
X041401Y008181D01*
X041401Y007181D02*
X041761Y007181D01*
X041761Y005681D02*
X041401Y005681D01*
X041401Y004681D02*
X041761Y004681D01*
X041761Y003681D02*
X041401Y003681D01*
X039481Y003561D02*
X039481Y003201D01*
X038481Y003201D02*
X038481Y003561D01*
X037481Y003561D02*
X037481Y003201D01*
X036481Y003201D02*
X036481Y003561D01*
X035481Y003561D02*
X035481Y003201D01*
X034481Y003201D02*
X034481Y003561D01*
X033481Y003561D02*
X033481Y003201D01*
X029881Y003201D02*
X029881Y003561D01*
X028881Y003561D02*
X028881Y003201D01*
X027881Y003201D02*
X027881Y003561D01*
X026881Y003561D02*
X026881Y003201D01*
X025881Y003201D02*
X025881Y003561D01*
X018581Y003561D02*
X018581Y003201D01*
X017581Y003201D02*
X017581Y003561D01*
X016581Y003561D02*
X016581Y003201D01*
X015581Y003201D02*
X015581Y003561D01*
X014581Y003561D02*
X014581Y003201D01*
X013581Y003201D02*
X013581Y003561D01*
X012581Y003561D02*
X012581Y003201D01*
X009781Y003601D02*
X009781Y003961D01*
X008781Y003961D02*
X008781Y003601D01*
X007781Y003601D02*
X007781Y003961D01*
X005881Y003961D02*
X005881Y003601D01*
X004881Y003601D02*
X004881Y003961D01*
X003881Y003961D02*
X003881Y003601D01*
X001561Y003181D02*
X001201Y003181D01*
X003881Y002361D02*
X003881Y002001D01*
X004881Y002001D02*
X004881Y002361D01*
X005881Y002361D02*
X005881Y002001D01*
X001561Y002181D02*
X001201Y002181D01*
X001201Y004181D02*
X001561Y004181D01*
X001561Y005181D02*
X001201Y005181D01*
X003881Y005201D02*
X003881Y005561D01*
X004881Y005561D02*
X004881Y005201D01*
X005881Y005201D02*
X005881Y005561D01*
X007781Y005561D02*
X007781Y005201D01*
X008781Y005201D02*
X008781Y005561D01*
X009781Y005561D02*
X009781Y005201D01*
X009781Y006801D02*
X009781Y007161D01*
X008781Y007161D02*
X008781Y006801D01*
X007781Y006801D02*
X007781Y007161D01*
X005881Y007161D02*
X005881Y006801D01*
X004881Y006801D02*
X004881Y007161D01*
X003881Y007161D02*
X003881Y006801D01*
X001561Y007181D02*
X001201Y007181D01*
X001201Y006181D02*
X001561Y006181D01*
X001561Y008181D02*
X001201Y008181D01*
X003881Y008401D02*
X003881Y008761D01*
X004881Y008761D02*
X004881Y008401D01*
X005881Y008401D02*
X005881Y008761D01*
X007781Y008761D02*
X007781Y008401D01*
X008781Y008401D02*
X008781Y008761D01*
X009781Y008761D02*
X009781Y008401D01*
X009781Y010001D02*
X009781Y010361D01*
X008781Y010361D02*
X008781Y010001D01*
X007781Y010001D02*
X007781Y010361D01*
X005881Y010361D02*
X005881Y010001D01*
X004881Y010001D02*
X004881Y010361D01*
X003881Y010361D02*
X003881Y010001D01*
X001561Y010181D02*
X001201Y010181D01*
X001201Y009181D02*
X001561Y009181D01*
X012581Y002061D02*
X012581Y001701D01*
X013581Y001701D02*
X013581Y002061D01*
X014581Y002061D02*
X014581Y001701D01*
X015581Y001701D02*
X015581Y002061D01*
X016581Y002061D02*
X016581Y001701D01*
X046301Y009781D02*
X046661Y009781D01*
X046661Y010781D02*
X046301Y010781D01*
D12*
X044281Y010181D03*
X043281Y010181D03*
X043281Y009181D03*
X044381Y008881D03*
X045381Y008881D03*
X043281Y008181D03*
X044381Y007781D03*
X045381Y007781D03*
X044381Y006781D03*
X043381Y006781D03*
X043381Y005781D03*
X044381Y005781D03*
X037981Y006981D03*
X036981Y006981D03*
X026881Y006881D03*
X025881Y006881D03*
X012381Y011081D03*
X011381Y011081D03*
X040581Y002081D03*
X041581Y002081D03*
D13*
X020131Y005771D03*
X019631Y005771D03*
X019131Y005771D03*
X018631Y005771D03*
X018131Y005771D03*
X017631Y005771D03*
X017131Y005771D03*
X016631Y005771D03*
X014931Y005771D03*
X014431Y005771D03*
X013931Y005771D03*
X013431Y005771D03*
X012931Y005771D03*
X012431Y005771D03*
X011931Y005771D03*
X011431Y005771D03*
X011431Y008191D03*
X011931Y008191D03*
X012431Y008191D03*
X012931Y008191D03*
X013431Y008191D03*
X013931Y008191D03*
X014431Y008191D03*
X014931Y008191D03*
X016631Y008191D03*
X017131Y008191D03*
X017631Y008191D03*
X018131Y008191D03*
X018631Y008191D03*
X019131Y008191D03*
X019631Y008191D03*
X020131Y008191D03*
X029681Y008171D03*
X030181Y008171D03*
X030681Y008171D03*
X031181Y008171D03*
X031681Y008171D03*
X032181Y008171D03*
X032681Y008171D03*
X034531Y008171D03*
X035031Y008171D03*
X035531Y008171D03*
X036031Y008171D03*
X036531Y008171D03*
X037031Y008171D03*
X037531Y008171D03*
X038031Y008171D03*
X038031Y010591D03*
X037531Y010591D03*
X037031Y010591D03*
X036531Y010591D03*
X036031Y010591D03*
X035531Y010591D03*
X035031Y010591D03*
X034531Y010591D03*
X032681Y010591D03*
X032181Y010591D03*
X031681Y010591D03*
X031181Y010591D03*
X030681Y010591D03*
X030181Y010591D03*
X029681Y010591D03*
D14*
X033581Y010575D03*
X033581Y009788D03*
X038981Y009888D03*
X038981Y010675D03*
X038981Y008175D03*
X038981Y007388D03*
D15*
X020975Y009381D03*
X020188Y009381D03*
X014075Y009381D03*
X013288Y009381D03*
D16*
X008781Y008581D02*
X008781Y006981D01*
X004881Y006981D02*
X004881Y005381D01*
X004881Y003781D01*
X004881Y002181D01*
X003581Y000881D02*
X002681Y001781D01*
X002681Y007381D01*
X001881Y008181D01*
X001381Y008181D01*
X004881Y008581D02*
X004881Y006981D01*
X004881Y008581D02*
X004881Y010181D01*
X004881Y010681D01*
X005381Y011181D01*
X008381Y011181D01*
X008781Y010781D01*
X008781Y010181D01*
X008781Y008581D01*
X008781Y005381D02*
X008781Y003781D01*
X011481Y002681D02*
X012181Y003381D01*
X012581Y003381D01*
X011481Y002681D02*
X011481Y000881D01*
X003581Y000881D01*
X011481Y000881D02*
X015581Y000881D01*
X015581Y001881D01*
X015581Y000881D02*
X025881Y000881D01*
X025881Y003381D01*
X025881Y003981D01*
X026881Y004981D01*
X026881Y006881D01*
X034481Y003381D02*
X034481Y000981D01*
X034381Y000881D01*
X042581Y000881D01*
X042981Y000881D01*
X043581Y001481D01*
X034381Y000881D02*
X025881Y000881D01*
D17*
X022781Y001881D02*
X016581Y001881D01*
X022781Y001881D02*
X025881Y004981D01*
X025881Y006881D01*
X020131Y008191D02*
X020131Y009325D01*
X014931Y008831D02*
X014931Y008191D01*
X014931Y008831D02*
X014381Y009381D01*
X014075Y009381D02*
X014075Y011375D01*
X014081Y011381D01*
X033481Y011381D01*
X033565Y011298D01*
X033565Y010591D01*
X033581Y010575D01*
X033565Y010591D02*
X032681Y010591D01*
X033481Y011381D02*
X038981Y011381D01*
X039781Y011381D01*
X039981Y011181D01*
X039981Y010881D01*
X038981Y010675D02*
X038898Y010591D01*
X038031Y010591D01*
X038981Y010675D02*
X038981Y011381D01*
X041581Y009181D02*
X042181Y009181D01*
X042581Y008781D01*
X042581Y000881D01*
X038575Y006981D02*
X037981Y006981D01*
X037531Y007431D01*
X037531Y008171D01*
X037031Y008171D02*
X037031Y007031D01*
X036981Y006981D01*
X038575Y006981D02*
X038981Y007388D01*
X038981Y008171D02*
X038031Y008171D01*
X038981Y008171D02*
X038981Y008175D01*
X014081Y011381D02*
X012681Y011381D01*
X012381Y011081D01*
X011381Y011081D02*
X009081Y011081D01*
X008781Y010781D01*
D18*
X043581Y001481D03*
D19*
X000482Y000461D02*
X000482Y011712D01*
X047146Y011712D01*
X047146Y000461D01*
X000482Y000461D01*
X000482Y000499D02*
X003434Y000499D01*
X003500Y000471D02*
X003349Y000534D01*
X003234Y000649D01*
X003234Y000649D01*
X002334Y001549D01*
X002271Y001700D01*
X002271Y001863D01*
X002271Y007212D01*
X001730Y007753D01*
X001653Y007721D01*
X001110Y007721D01*
X000941Y007791D01*
X000811Y007921D01*
X000741Y008090D01*
X000741Y008273D01*
X000811Y008442D01*
X000941Y008571D01*
X001110Y008641D01*
X001653Y008641D01*
X001774Y008591D01*
X001800Y008591D01*
X001963Y008591D01*
X002114Y008529D01*
X003029Y007614D01*
X003091Y007463D01*
X003091Y007300D01*
X003091Y001951D01*
X003751Y001291D01*
X011071Y001291D01*
X011071Y002763D01*
X011134Y002914D01*
X011249Y003029D01*
X011949Y003729D01*
X012100Y003791D01*
X012179Y003791D01*
X012191Y003822D01*
X012321Y003951D01*
X012345Y003961D01*
X012073Y003961D01*
X010073Y001961D01*
X009890Y001961D01*
X006341Y001961D01*
X006341Y001910D01*
X006271Y001741D01*
X006142Y001611D01*
X005973Y001541D01*
X005790Y001541D01*
X005621Y001611D01*
X005491Y001741D01*
X005421Y001910D01*
X005421Y002453D01*
X005491Y002622D01*
X005621Y002751D01*
X005790Y002821D01*
X005973Y002821D01*
X006142Y002751D01*
X006271Y002622D01*
X006341Y002453D01*
X006341Y002401D01*
X009890Y002401D01*
X011890Y004401D01*
X012073Y004401D01*
X021590Y004401D01*
X025161Y007973D01*
X025290Y008101D01*
X027590Y008101D01*
X027773Y008101D01*
X028673Y007201D01*
X030190Y007201D01*
X030461Y007473D01*
X030461Y007635D01*
X030446Y007651D01*
X030422Y007627D01*
X030381Y007604D01*
X030335Y007591D01*
X030182Y007591D01*
X030182Y008171D01*
X030181Y008171D01*
X030181Y007591D01*
X030028Y007591D01*
X029982Y007604D01*
X029941Y007627D01*
X029931Y007637D01*
X029922Y007627D01*
X029881Y007604D01*
X029835Y007591D01*
X029682Y007591D01*
X029682Y008171D01*
X029682Y008172D01*
X029681Y008172D01*
X029681Y008751D01*
X029528Y008751D01*
X029482Y008739D01*
X029441Y008715D01*
X029407Y008682D01*
X029384Y008641D01*
X029371Y008595D01*
X029371Y008172D01*
X029681Y008172D01*
X029681Y008171D01*
X029682Y008171D01*
X029991Y008171D01*
X030181Y008171D01*
X030181Y008172D01*
X030181Y008751D01*
X030028Y008751D01*
X029982Y008739D01*
X029941Y008715D01*
X029931Y008706D01*
X029922Y008715D01*
X029881Y008739D01*
X029835Y008751D01*
X029682Y008751D01*
X029682Y008172D01*
X029991Y008172D01*
X030181Y008172D01*
X030182Y008172D01*
X030182Y008751D01*
X030335Y008751D01*
X030381Y008739D01*
X030422Y008715D01*
X030446Y008692D01*
X030485Y008731D01*
X030878Y008731D01*
X030917Y008692D01*
X030941Y008715D01*
X030982Y008739D01*
X031028Y008751D01*
X031181Y008751D01*
X031181Y008172D01*
X031182Y008172D01*
X031182Y008751D01*
X031335Y008751D01*
X031381Y008739D01*
X031422Y008715D01*
X031446Y008692D01*
X031485Y008731D01*
X031820Y008731D01*
X031690Y008861D01*
X028873Y008861D01*
X028690Y008861D01*
X027990Y009561D01*
X027861Y009690D01*
X027861Y009731D01*
X027842Y009711D01*
X027801Y009695D01*
X027801Y009673D01*
X027801Y009490D01*
X027401Y009090D01*
X027273Y008961D01*
X023173Y008961D01*
X021301Y007090D01*
X021173Y006961D01*
X021047Y006961D01*
X021048Y006960D01*
X021096Y006844D01*
X021096Y006719D01*
X021048Y006603D01*
X021001Y006556D01*
X021001Y005373D01*
X021001Y005190D01*
X020601Y004790D01*
X020473Y004661D01*
X019573Y004661D01*
X019390Y004661D01*
X018911Y005140D01*
X018911Y005235D01*
X018881Y005265D01*
X018851Y005235D01*
X018851Y005123D01*
X018851Y004940D01*
X018373Y004461D01*
X018190Y004461D01*
X011773Y004461D01*
X010873Y003561D01*
X010690Y003561D01*
X010241Y003561D01*
X010241Y003510D01*
X010171Y003341D01*
X010042Y003211D01*
X009873Y003141D01*
X009690Y003141D01*
X009521Y003211D01*
X009391Y003341D01*
X009321Y003510D01*
X009321Y004053D01*
X009391Y004222D01*
X009521Y004351D01*
X009690Y004421D01*
X009873Y004421D01*
X010042Y004351D01*
X010171Y004222D01*
X010241Y004053D01*
X010241Y004001D01*
X010690Y004001D01*
X011461Y004773D01*
X011590Y004901D01*
X018190Y004901D01*
X018411Y005123D01*
X018411Y005235D01*
X018396Y005251D01*
X018372Y005227D01*
X018331Y005204D01*
X018285Y005191D01*
X018132Y005191D01*
X018132Y005771D01*
X018131Y005771D01*
X018131Y005191D01*
X017978Y005191D01*
X017932Y005204D01*
X017891Y005227D01*
X017881Y005237D01*
X017872Y005227D01*
X017831Y005204D01*
X017785Y005191D01*
X017632Y005191D01*
X017632Y005771D01*
X017632Y005772D01*
X017631Y005772D01*
X017631Y006351D01*
X017478Y006351D01*
X017432Y006339D01*
X017391Y006315D01*
X017367Y006292D01*
X017328Y006331D01*
X016935Y006331D01*
X016896Y006292D01*
X016872Y006315D01*
X016831Y006339D01*
X016785Y006351D01*
X016632Y006351D01*
X016632Y005772D01*
X016631Y005772D01*
X016631Y006351D01*
X016478Y006351D01*
X016432Y006339D01*
X016391Y006315D01*
X016357Y006282D01*
X016334Y006241D01*
X016321Y006195D01*
X016321Y005772D01*
X016631Y005772D01*
X016631Y005771D01*
X016632Y005771D01*
X016632Y005191D01*
X016785Y005191D01*
X016831Y005204D01*
X016872Y005227D01*
X016896Y005251D01*
X016935Y005211D01*
X017328Y005211D01*
X017367Y005251D01*
X017391Y005227D01*
X017432Y005204D01*
X017478Y005191D01*
X017631Y005191D01*
X017631Y005771D01*
X017632Y005771D01*
X017941Y005771D01*
X018131Y005771D01*
X018131Y005772D01*
X018131Y006351D01*
X017978Y006351D01*
X017932Y006339D01*
X017891Y006315D01*
X017881Y006306D01*
X017872Y006315D01*
X017831Y006339D01*
X017785Y006351D01*
X017632Y006351D01*
X017632Y005772D01*
X017941Y005772D01*
X018131Y005772D01*
X018132Y005772D01*
X018132Y006351D01*
X018285Y006351D01*
X018331Y006339D01*
X018372Y006315D01*
X018396Y006292D01*
X018435Y006331D01*
X018828Y006331D01*
X018881Y006278D01*
X018935Y006331D01*
X019328Y006331D01*
X019381Y006278D01*
X019411Y006308D01*
X019411Y006340D01*
X019190Y006561D01*
X016573Y006561D01*
X016001Y005990D01*
X016001Y005490D01*
X015873Y005361D01*
X015601Y005090D01*
X015601Y005090D01*
X015473Y004961D01*
X010907Y004961D01*
X010860Y004914D01*
X010744Y004866D01*
X010619Y004866D01*
X010503Y004914D01*
X010414Y005003D01*
X010366Y005119D01*
X010366Y005244D01*
X010414Y005360D01*
X010503Y005448D01*
X010619Y005496D01*
X010744Y005496D01*
X010860Y005448D01*
X010907Y005401D01*
X011121Y005401D01*
X011121Y005771D01*
X011431Y005771D01*
X011431Y005772D01*
X011431Y006351D01*
X011278Y006351D01*
X011232Y006339D01*
X011191Y006315D01*
X011157Y006282D01*
X011134Y006241D01*
X011121Y006195D01*
X011121Y005772D01*
X011431Y005772D01*
X011432Y005772D01*
X011432Y006351D01*
X011585Y006351D01*
X011596Y006349D01*
X011566Y006419D01*
X011566Y006544D01*
X011614Y006660D01*
X011616Y006661D01*
X011173Y006661D01*
X010219Y005708D01*
X010241Y005653D01*
X010241Y005110D01*
X010171Y004941D01*
X010042Y004811D01*
X009873Y004741D01*
X009690Y004741D01*
X009521Y004811D01*
X009391Y004941D01*
X009321Y005110D01*
X009321Y005653D01*
X009391Y005822D01*
X009521Y005951D01*
X009545Y005961D01*
X009018Y005961D01*
X009042Y005951D01*
X009171Y005822D01*
X009241Y005653D01*
X009241Y005110D01*
X009191Y004989D01*
X009191Y004174D01*
X009241Y004053D01*
X009241Y003510D01*
X009171Y003341D01*
X009042Y003211D01*
X008873Y003141D01*
X008690Y003141D01*
X008521Y003211D01*
X008391Y003341D01*
X008321Y003510D01*
X008321Y004053D01*
X008371Y004174D01*
X008371Y004989D01*
X008321Y005110D01*
X008321Y005653D01*
X008391Y005822D01*
X008521Y005951D01*
X008545Y005961D01*
X008047Y005961D01*
X008094Y005928D01*
X008148Y005874D01*
X008192Y005813D01*
X008226Y005746D01*
X008250Y005674D01*
X008261Y005599D01*
X008261Y005401D01*
X007802Y005401D01*
X007802Y005361D01*
X008261Y005361D01*
X008261Y005164D01*
X008250Y005089D01*
X008226Y005017D01*
X008192Y004950D01*
X008148Y004889D01*
X008094Y004835D01*
X008033Y004791D01*
X007966Y004757D01*
X007894Y004733D01*
X007819Y004721D01*
X007801Y004721D01*
X007801Y005361D01*
X007761Y005361D01*
X007761Y004721D01*
X007744Y004721D01*
X007669Y004733D01*
X007597Y004757D01*
X007530Y004791D01*
X007469Y004835D01*
X007415Y004889D01*
X007371Y004950D01*
X007337Y005017D01*
X007313Y005089D01*
X007301Y005164D01*
X007301Y005361D01*
X007761Y005361D01*
X007761Y005401D01*
X007301Y005401D01*
X007301Y005599D01*
X007313Y005674D01*
X007337Y005746D01*
X007371Y005813D01*
X007415Y005874D01*
X007469Y005928D01*
X007515Y005961D01*
X006773Y005961D01*
X006590Y005961D01*
X006141Y006411D01*
X005973Y006341D01*
X005790Y006341D01*
X005621Y006411D01*
X005491Y006541D01*
X005421Y006710D01*
X005421Y007253D01*
X005491Y007422D01*
X005621Y007551D01*
X005790Y007621D01*
X005973Y007621D01*
X006142Y007551D01*
X006271Y007422D01*
X006341Y007253D01*
X006341Y006832D01*
X006773Y006401D01*
X007515Y006401D01*
X007469Y006435D01*
X007415Y006489D01*
X007371Y006550D01*
X007337Y006617D01*
X007313Y006689D01*
X007301Y006764D01*
X007301Y006961D01*
X007761Y006961D01*
X007761Y007001D01*
X007301Y007001D01*
X007301Y007199D01*
X007313Y007274D01*
X007337Y007346D01*
X007371Y007413D01*
X007415Y007474D01*
X007469Y007528D01*
X007530Y007572D01*
X007597Y007606D01*
X007669Y007630D01*
X007744Y007641D01*
X007761Y007641D01*
X007761Y007002D01*
X007801Y007002D01*
X007801Y007641D01*
X007819Y007641D01*
X007894Y007630D01*
X007966Y007606D01*
X008033Y007572D01*
X008094Y007528D01*
X008148Y007474D01*
X008192Y007413D01*
X008226Y007346D01*
X008250Y007274D01*
X008261Y007199D01*
X008261Y007001D01*
X007802Y007001D01*
X007802Y006961D01*
X008261Y006961D01*
X008261Y006764D01*
X008250Y006689D01*
X008226Y006617D01*
X008192Y006550D01*
X008148Y006489D01*
X008094Y006435D01*
X008047Y006401D01*
X008545Y006401D01*
X008521Y006411D01*
X008391Y006541D01*
X008321Y006710D01*
X008321Y007253D01*
X008371Y007374D01*
X008371Y008189D01*
X008321Y008310D01*
X008321Y008853D01*
X008371Y008974D01*
X008371Y009789D01*
X008321Y009910D01*
X008321Y010453D01*
X008371Y010574D01*
X008371Y010612D01*
X008212Y010771D01*
X008034Y010771D01*
X008094Y010728D01*
X008148Y010674D01*
X008192Y010613D01*
X008226Y010546D01*
X008250Y010474D01*
X008261Y010399D01*
X008261Y010201D01*
X007802Y010201D01*
X007802Y010161D01*
X008261Y010161D01*
X008261Y009964D01*
X008250Y009889D01*
X008226Y009817D01*
X008192Y009750D01*
X008148Y009689D01*
X008094Y009635D01*
X008033Y009591D01*
X007966Y009557D01*
X007894Y009533D01*
X007819Y009521D01*
X007801Y009521D01*
X007801Y010161D01*
X007761Y010161D01*
X007761Y009521D01*
X007744Y009521D01*
X007669Y009533D01*
X007597Y009557D01*
X007530Y009591D01*
X007469Y009635D01*
X007415Y009689D01*
X007371Y009750D01*
X007337Y009817D01*
X007313Y009889D01*
X007301Y009964D01*
X007301Y010161D01*
X007761Y010161D01*
X007761Y010201D01*
X007301Y010201D01*
X007301Y010399D01*
X007313Y010474D01*
X007337Y010546D01*
X007371Y010613D01*
X007415Y010674D01*
X007469Y010728D01*
X007529Y010771D01*
X006093Y010771D01*
X006142Y010751D01*
X006271Y010622D01*
X006341Y010453D01*
X006341Y009910D01*
X006271Y009741D01*
X006142Y009611D01*
X005973Y009541D01*
X005790Y009541D01*
X005621Y009611D01*
X005491Y009741D01*
X005421Y009910D01*
X005421Y010453D01*
X005491Y010622D01*
X005621Y010751D01*
X005669Y010771D01*
X005551Y010771D01*
X005310Y010530D01*
X005341Y010453D01*
X005341Y009910D01*
X005291Y009789D01*
X005291Y008974D01*
X005341Y008853D01*
X005341Y008310D01*
X005291Y008189D01*
X005291Y007374D01*
X005341Y007253D01*
X005341Y006710D01*
X005291Y006589D01*
X005291Y005774D01*
X005341Y005653D01*
X005341Y005110D01*
X005291Y004989D01*
X005291Y004174D01*
X005341Y004053D01*
X005341Y003510D01*
X005291Y003389D01*
X005291Y002574D01*
X005341Y002453D01*
X005341Y001910D01*
X005271Y001741D01*
X005142Y001611D01*
X004973Y001541D01*
X004790Y001541D01*
X004621Y001611D01*
X004491Y001741D01*
X004421Y001910D01*
X004421Y002453D01*
X004471Y002574D01*
X004471Y003389D01*
X004421Y003510D01*
X004421Y004053D01*
X004471Y004174D01*
X004471Y004989D01*
X004421Y005110D01*
X004421Y005653D01*
X004471Y005774D01*
X004471Y006589D01*
X004421Y006710D01*
X004421Y007253D01*
X004471Y007374D01*
X004471Y008189D01*
X004421Y008310D01*
X004421Y008853D01*
X004471Y008974D01*
X004471Y009789D01*
X004421Y009910D01*
X004421Y010453D01*
X004471Y010574D01*
X004471Y010600D01*
X004471Y010763D01*
X004534Y010914D01*
X005034Y011414D01*
X005149Y011529D01*
X005300Y011591D01*
X008300Y011591D01*
X008463Y011591D01*
X008614Y011529D01*
X008873Y011269D01*
X008923Y011319D01*
X009026Y011361D01*
X009137Y011361D01*
X011067Y011361D01*
X011207Y011501D01*
X011555Y011501D01*
X011801Y011255D01*
X011801Y010907D01*
X011555Y010661D01*
X011207Y010661D01*
X011067Y010801D01*
X009921Y010801D01*
X010042Y010751D01*
X010171Y010622D01*
X010241Y010453D01*
X010241Y009910D01*
X010171Y009741D01*
X010042Y009611D01*
X009873Y009541D01*
X009690Y009541D01*
X009521Y009611D01*
X009391Y009741D01*
X009321Y009910D01*
X009321Y010453D01*
X009391Y010622D01*
X009521Y010751D01*
X009642Y010801D01*
X009197Y010801D01*
X009191Y010795D01*
X009191Y010574D01*
X009241Y010453D01*
X009241Y009910D01*
X009191Y009789D01*
X009191Y008974D01*
X009241Y008853D01*
X009241Y008310D01*
X009191Y008189D01*
X009191Y007374D01*
X009241Y007253D01*
X009241Y006710D01*
X009171Y006541D01*
X009042Y006411D01*
X009018Y006401D01*
X009545Y006401D01*
X009521Y006411D01*
X009391Y006541D01*
X009321Y006710D01*
X009321Y007253D01*
X009391Y007422D01*
X009521Y007551D01*
X009690Y007621D01*
X009873Y007621D01*
X010041Y007552D01*
X010900Y008411D01*
X011083Y008411D01*
X011141Y008411D01*
X011141Y008658D01*
X011235Y008751D01*
X011628Y008751D01*
X011681Y008698D01*
X011711Y008728D01*
X011711Y008740D01*
X011711Y008923D01*
X011766Y008978D01*
X011766Y009044D01*
X011814Y009160D01*
X011903Y009248D01*
X012019Y009296D01*
X012144Y009296D01*
X012260Y009248D01*
X012348Y009160D01*
X012396Y009044D01*
X012396Y008919D01*
X012348Y008803D01*
X012297Y008751D01*
X012628Y008751D01*
X012681Y008698D01*
X012735Y008751D01*
X013128Y008751D01*
X013181Y008698D01*
X013235Y008751D01*
X013628Y008751D01*
X013681Y008698D01*
X013735Y008751D01*
X014128Y008751D01*
X014167Y008712D01*
X014191Y008735D01*
X014232Y008759D01*
X014278Y008771D01*
X014431Y008771D01*
X014431Y008192D01*
X014432Y008192D01*
X014432Y008771D01*
X014585Y008771D01*
X014599Y008768D01*
X014429Y008938D01*
X014397Y008906D01*
X013753Y008906D01*
X013693Y008966D01*
X013688Y008956D01*
X013654Y008922D01*
X013613Y008899D01*
X013567Y008886D01*
X013336Y008886D01*
X013336Y009333D01*
X013240Y009333D01*
X013240Y008886D01*
X013008Y008886D01*
X012962Y008899D01*
X012921Y008922D01*
X012888Y008956D01*
X012864Y008997D01*
X012852Y009043D01*
X012852Y009333D01*
X013239Y009333D01*
X013239Y009429D01*
X012852Y009429D01*
X012852Y009720D01*
X012864Y009766D01*
X012888Y009807D01*
X012921Y009840D01*
X012962Y009864D01*
X013008Y009876D01*
X013240Y009876D01*
X013240Y009430D01*
X013336Y009430D01*
X013336Y009876D01*
X013567Y009876D01*
X013613Y009864D01*
X013654Y009840D01*
X013688Y009807D01*
X013693Y009797D01*
X013753Y009856D01*
X013795Y009856D01*
X013795Y011101D01*
X012801Y011101D01*
X012801Y010907D01*
X012555Y010661D01*
X012207Y010661D01*
X011961Y010907D01*
X011961Y011255D01*
X012207Y011501D01*
X012405Y011501D01*
X012444Y011540D01*
X012444Y011540D01*
X012523Y011619D01*
X012626Y011661D01*
X014026Y011661D01*
X014137Y011661D01*
X033426Y011661D01*
X033537Y011661D01*
X038926Y011661D01*
X039837Y011661D01*
X039940Y011619D01*
X040019Y011540D01*
X040219Y011340D01*
X040261Y011237D01*
X040261Y011126D01*
X040261Y011108D01*
X040285Y011084D01*
X040339Y010953D01*
X040339Y010810D01*
X040285Y010679D01*
X040184Y010578D01*
X040053Y010523D01*
X039910Y010523D01*
X039779Y010578D01*
X039678Y010679D01*
X039623Y010810D01*
X039623Y010953D01*
X039678Y011084D01*
X039680Y011087D01*
X039665Y011101D01*
X039261Y011101D01*
X039261Y011091D01*
X039363Y011091D01*
X039456Y010997D01*
X039456Y010353D01*
X039397Y010293D01*
X039407Y010288D01*
X039440Y010254D01*
X039464Y010213D01*
X039476Y010167D01*
X039476Y009936D01*
X039030Y009936D01*
X039030Y009840D01*
X039476Y009840D01*
X039476Y009608D01*
X039464Y009562D01*
X039440Y009521D01*
X039407Y009488D01*
X039366Y009464D01*
X039320Y009452D01*
X039029Y009452D01*
X039029Y009839D01*
X038933Y009839D01*
X038933Y009452D01*
X038643Y009452D01*
X038597Y009464D01*
X038556Y009488D01*
X038522Y009521D01*
X038499Y009562D01*
X038486Y009608D01*
X038486Y009840D01*
X038933Y009840D01*
X038933Y009936D01*
X038486Y009936D01*
X038486Y010167D01*
X038499Y010213D01*
X038522Y010254D01*
X038556Y010288D01*
X038566Y010293D01*
X038548Y010311D01*
X038321Y010311D01*
X038321Y010125D01*
X038228Y010031D01*
X037835Y010031D01*
X037781Y010085D01*
X037728Y010031D01*
X037335Y010031D01*
X037281Y010085D01*
X037228Y010031D01*
X036835Y010031D01*
X036781Y010085D01*
X036728Y010031D01*
X036335Y010031D01*
X036281Y010085D01*
X036228Y010031D01*
X035835Y010031D01*
X035781Y010085D01*
X035728Y010031D01*
X035335Y010031D01*
X035281Y010085D01*
X035228Y010031D01*
X034835Y010031D01*
X034781Y010085D01*
X034728Y010031D01*
X034335Y010031D01*
X034241Y010125D01*
X034241Y011058D01*
X034285Y011101D01*
X033845Y011101D01*
X033845Y010991D01*
X033963Y010991D01*
X034056Y010897D01*
X034056Y010253D01*
X033997Y010193D01*
X034007Y010188D01*
X034040Y010154D01*
X034064Y010113D01*
X034076Y010067D01*
X034076Y009836D01*
X033630Y009836D01*
X033630Y009740D01*
X034076Y009740D01*
X034076Y009508D01*
X034064Y009462D01*
X034040Y009421D01*
X034007Y009388D01*
X033966Y009364D01*
X033920Y009352D01*
X033629Y009352D01*
X033629Y009739D01*
X033533Y009739D01*
X033533Y009352D01*
X033243Y009352D01*
X033197Y009364D01*
X033156Y009388D01*
X033122Y009421D01*
X033099Y009462D01*
X033086Y009508D01*
X033086Y009740D01*
X033533Y009740D01*
X033533Y009836D01*
X033086Y009836D01*
X033086Y010067D01*
X033099Y010113D01*
X033122Y010154D01*
X033156Y010188D01*
X033166Y010193D01*
X033106Y010253D01*
X033106Y010311D01*
X032971Y010311D01*
X032971Y010125D01*
X032878Y010031D01*
X032485Y010031D01*
X032431Y010085D01*
X032378Y010031D01*
X031985Y010031D01*
X031931Y010085D01*
X031878Y010031D01*
X031485Y010031D01*
X031431Y010085D01*
X031378Y010031D01*
X030985Y010031D01*
X030931Y010085D01*
X030878Y010031D01*
X030485Y010031D01*
X030431Y010085D01*
X030378Y010031D01*
X029985Y010031D01*
X029931Y010085D01*
X029878Y010031D01*
X029485Y010031D01*
X029391Y010125D01*
X029391Y011058D01*
X029435Y011101D01*
X028072Y011101D01*
X028101Y011073D01*
X028301Y010873D01*
X028301Y010832D01*
X028321Y010851D01*
X028490Y010921D01*
X028673Y010921D01*
X028842Y010851D01*
X028971Y010722D01*
X029041Y010553D01*
X029041Y010010D01*
X028971Y009841D01*
X028842Y009711D01*
X028801Y009695D01*
X028801Y009673D01*
X028973Y009501D01*
X031990Y009501D01*
X032173Y009501D01*
X032772Y008901D01*
X032773Y008901D01*
X034890Y008901D01*
X034961Y008973D02*
X034811Y008823D01*
X034811Y008708D01*
X034796Y008692D01*
X034772Y008715D01*
X034731Y008739D01*
X034685Y008751D01*
X034532Y008751D01*
X034532Y008172D01*
X034531Y008172D01*
X034531Y008751D01*
X034378Y008751D01*
X034332Y008739D01*
X034291Y008715D01*
X034257Y008682D01*
X034234Y008641D01*
X034221Y008595D01*
X034221Y008172D01*
X034531Y008172D01*
X034531Y008171D01*
X034532Y008171D01*
X034532Y007591D01*
X034680Y007591D01*
X034490Y007401D01*
X032173Y007401D01*
X031920Y007654D01*
X031931Y007665D01*
X031985Y007611D01*
X032378Y007611D01*
X032431Y007665D01*
X032485Y007611D01*
X032878Y007611D01*
X032971Y007705D01*
X032971Y008638D01*
X032901Y008708D01*
X032901Y008773D01*
X032773Y008901D01*
X032901Y008743D02*
X034346Y008743D01*
X034531Y008743D02*
X034532Y008743D01*
X034717Y008743D02*
X034811Y008743D01*
X034961Y008973D02*
X035090Y009101D01*
X035973Y009101D01*
X036101Y008973D01*
X036251Y008823D01*
X036251Y008708D01*
X036281Y008678D01*
X036335Y008731D01*
X036728Y008731D01*
X036781Y008678D01*
X036835Y008731D01*
X037228Y008731D01*
X037281Y008678D01*
X037335Y008731D01*
X037728Y008731D01*
X037781Y008678D01*
X037835Y008731D01*
X038228Y008731D01*
X038321Y008638D01*
X038321Y008451D01*
X038506Y008451D01*
X038506Y008497D01*
X038600Y008591D01*
X039363Y008591D01*
X039456Y008497D01*
X039456Y007853D01*
X039385Y007781D01*
X039456Y007710D01*
X039456Y007066D01*
X039363Y006972D01*
X038961Y006972D01*
X038734Y006744D01*
X038631Y006701D01*
X038519Y006701D01*
X038295Y006701D01*
X038155Y006561D01*
X037807Y006561D01*
X037561Y006807D01*
X037561Y007005D01*
X037311Y007256D01*
X037311Y007245D01*
X037401Y007155D01*
X037401Y006807D01*
X037155Y006561D01*
X036807Y006561D01*
X036561Y006807D01*
X036561Y007155D01*
X036751Y007345D01*
X036751Y007635D01*
X036751Y007635D01*
X036751Y007540D01*
X035973Y006761D01*
X035790Y006761D01*
X030990Y006761D01*
X030861Y006890D01*
X030681Y007070D01*
X030373Y006761D01*
X030190Y006761D01*
X028812Y006761D01*
X029073Y006501D01*
X039090Y006501D01*
X039961Y007373D01*
X039961Y009673D01*
X040090Y009801D01*
X040690Y010401D01*
X040873Y010401D01*
X042907Y010401D01*
X043107Y010601D01*
X043455Y010601D01*
X043701Y010355D01*
X043701Y010007D01*
X043455Y009761D01*
X043107Y009761D01*
X042907Y009961D01*
X042612Y009961D01*
X043040Y009534D01*
X043107Y009601D01*
X043455Y009601D01*
X043701Y009355D01*
X043701Y009007D01*
X043455Y008761D01*
X043107Y008761D01*
X042861Y009007D01*
X042861Y009090D01*
X042190Y009761D01*
X040973Y009761D01*
X040601Y009390D01*
X040601Y007090D01*
X040473Y006961D01*
X039373Y005861D01*
X039190Y005861D01*
X028790Y005861D01*
X028661Y005990D01*
X027390Y007261D01*
X027095Y007261D01*
X027301Y007055D01*
X027301Y006707D01*
X027291Y006697D01*
X027291Y004900D01*
X027229Y004749D01*
X027114Y004634D01*
X026291Y003812D01*
X026291Y003774D01*
X026341Y003653D01*
X026341Y003110D01*
X026291Y002989D01*
X026291Y001291D01*
X034071Y001291D01*
X034071Y002989D01*
X034021Y003110D01*
X034021Y003653D01*
X034091Y003822D01*
X034221Y003951D01*
X034390Y004021D01*
X034573Y004021D01*
X034742Y003951D01*
X034871Y003822D01*
X034941Y003653D01*
X034941Y003110D01*
X034891Y002989D01*
X034891Y001291D01*
X042301Y001291D01*
X042301Y008665D01*
X042099Y008868D01*
X042022Y008791D01*
X041853Y008721D01*
X041310Y008721D01*
X041141Y008791D01*
X041011Y008921D01*
X040941Y009090D01*
X040941Y009273D01*
X041011Y009442D01*
X041141Y009571D01*
X041310Y009641D01*
X041853Y009641D01*
X042022Y009571D01*
X042132Y009461D01*
X042237Y009461D01*
X042340Y009419D01*
X042740Y009019D01*
X042740Y009019D01*
X042819Y008940D01*
X042861Y008837D01*
X042861Y001341D01*
X043234Y001714D01*
X043349Y001829D01*
X043500Y001891D01*
X043663Y001891D01*
X043814Y001829D01*
X043929Y001714D01*
X043991Y001563D01*
X043991Y001400D01*
X043929Y001249D01*
X043814Y001134D01*
X043214Y000534D01*
X043063Y000471D01*
X042900Y000471D01*
X042500Y000471D01*
X034463Y000471D01*
X034300Y000471D01*
X025963Y000471D01*
X015663Y000471D01*
X011563Y000471D01*
X011400Y000471D01*
X003500Y000471D01*
X003226Y000657D02*
X000482Y000657D01*
X000482Y000816D02*
X003067Y000816D01*
X002909Y000974D02*
X000482Y000974D01*
X000482Y001133D02*
X002750Y001133D01*
X002592Y001291D02*
X000482Y001291D01*
X000482Y001450D02*
X002433Y001450D01*
X002309Y001608D02*
X000482Y001608D01*
X000950Y001771D02*
X001017Y001737D01*
X001089Y001713D01*
X001164Y001701D01*
X001361Y001701D01*
X001361Y002161D01*
X001401Y002161D01*
X001401Y001701D01*
X001599Y001701D01*
X001674Y001713D01*
X001746Y001737D01*
X001813Y001771D01*
X001874Y001815D01*
X001928Y001869D01*
X001972Y001930D01*
X002006Y001997D01*
X002030Y002069D01*
X002041Y002144D01*
X002041Y002161D01*
X001402Y002161D01*
X001402Y002201D01*
X002041Y002201D01*
X002041Y002219D01*
X002030Y002294D01*
X002006Y002366D01*
X001972Y002433D01*
X001928Y002494D01*
X001874Y002548D01*
X001813Y002592D01*
X001746Y002626D01*
X001674Y002650D01*
X001599Y002661D01*
X001401Y002661D01*
X001401Y002202D01*
X001361Y002202D01*
X001361Y002661D01*
X001164Y002661D01*
X001089Y002650D01*
X001017Y002626D01*
X000950Y002592D01*
X000889Y002548D01*
X000835Y002494D01*
X000791Y002433D01*
X000757Y002366D01*
X000733Y002294D01*
X000721Y002219D01*
X000721Y002201D01*
X001361Y002201D01*
X001361Y002161D01*
X000721Y002161D01*
X000721Y002144D01*
X000733Y002069D01*
X000757Y001997D01*
X000791Y001930D01*
X000835Y001869D01*
X000889Y001815D01*
X000950Y001771D01*
X000958Y001767D02*
X000482Y001767D01*
X000482Y001925D02*
X000794Y001925D01*
X000731Y002084D02*
X000482Y002084D01*
X000482Y002242D02*
X000725Y002242D01*
X001361Y002242D02*
X001401Y002242D01*
X001401Y002084D02*
X001361Y002084D01*
X001361Y001925D02*
X001401Y001925D01*
X001401Y001767D02*
X001361Y001767D01*
X001805Y001767D02*
X002271Y001767D01*
X002271Y001925D02*
X001969Y001925D01*
X002032Y002084D02*
X002271Y002084D01*
X002271Y002242D02*
X002038Y002242D01*
X001988Y002401D02*
X002271Y002401D01*
X002271Y002560D02*
X001858Y002560D01*
X001822Y002791D02*
X001653Y002721D01*
X001110Y002721D01*
X000941Y002791D01*
X000811Y002921D01*
X000741Y003090D01*
X000741Y003273D01*
X000811Y003442D01*
X000941Y003571D01*
X001110Y003641D01*
X001653Y003641D01*
X001822Y003571D01*
X001951Y003442D01*
X002021Y003273D01*
X002021Y003090D01*
X001951Y002921D01*
X001822Y002791D01*
X001907Y002877D02*
X002271Y002877D01*
X002271Y003035D02*
X001999Y003035D01*
X002021Y003194D02*
X002271Y003194D01*
X002271Y003352D02*
X001989Y003352D01*
X001882Y003511D02*
X002271Y003511D01*
X002271Y003669D02*
X000482Y003669D01*
X000482Y003511D02*
X000880Y003511D01*
X000941Y003791D02*
X001110Y003721D01*
X001653Y003721D01*
X001822Y003791D01*
X001951Y003921D01*
X002021Y004090D01*
X002021Y004273D01*
X001951Y004442D01*
X001822Y004571D01*
X001653Y004641D01*
X001110Y004641D01*
X000941Y004571D01*
X000811Y004442D01*
X000741Y004273D01*
X000741Y004090D01*
X000811Y003921D01*
X000941Y003791D01*
X000904Y003828D02*
X000482Y003828D01*
X000482Y003986D02*
X000784Y003986D01*
X000741Y004145D02*
X000482Y004145D01*
X000482Y004304D02*
X000754Y004304D01*
X000832Y004462D02*
X000482Y004462D01*
X000482Y004621D02*
X001060Y004621D01*
X001110Y004721D02*
X000941Y004791D01*
X000811Y004921D01*
X000741Y005090D01*
X000741Y005273D01*
X000811Y005442D01*
X000941Y005571D01*
X001110Y005641D01*
X001653Y005641D01*
X001822Y005571D01*
X001951Y005442D01*
X002021Y005273D01*
X002021Y005090D01*
X001951Y004921D01*
X001822Y004791D01*
X001653Y004721D01*
X001110Y004721D01*
X000970Y004779D02*
X000482Y004779D01*
X000482Y004938D02*
X000804Y004938D01*
X000741Y005096D02*
X000482Y005096D01*
X000482Y005255D02*
X000741Y005255D01*
X000800Y005413D02*
X000482Y005413D01*
X000482Y005572D02*
X000942Y005572D01*
X001088Y005730D02*
X000482Y005730D01*
X000811Y005921D02*
X000941Y005791D01*
X001110Y005721D01*
X001653Y005721D01*
X001822Y005791D01*
X001951Y005921D01*
X002021Y006090D01*
X002021Y006273D01*
X001951Y006442D01*
X001822Y006571D01*
X001653Y006641D01*
X001110Y006641D01*
X000941Y006571D01*
X000811Y006442D01*
X000741Y006273D01*
X000741Y006090D01*
X000811Y005921D01*
X000843Y005889D02*
X000482Y005889D01*
X000482Y006048D02*
X000759Y006048D01*
X000741Y006206D02*
X000482Y006206D01*
X000482Y006365D02*
X000779Y006365D01*
X000893Y006523D02*
X000482Y006523D01*
X000482Y006682D02*
X002271Y006682D01*
X002271Y006840D02*
X001871Y006840D01*
X001822Y006791D02*
X001951Y006921D01*
X002021Y007090D01*
X002021Y007273D01*
X001951Y007442D01*
X001822Y007571D01*
X001653Y007641D01*
X001110Y007641D01*
X000941Y007571D01*
X000811Y007442D01*
X000741Y007273D01*
X000741Y007090D01*
X000811Y006921D01*
X000941Y006791D01*
X001110Y006721D01*
X001653Y006721D01*
X001822Y006791D01*
X001984Y006999D02*
X002271Y006999D01*
X002271Y007157D02*
X002021Y007157D01*
X002004Y007316D02*
X002167Y007316D01*
X002009Y007474D02*
X001919Y007474D01*
X001850Y007633D02*
X001673Y007633D01*
X001090Y007633D02*
X000482Y007633D01*
X000482Y007791D02*
X000941Y007791D01*
X000799Y007950D02*
X000482Y007950D01*
X000482Y008109D02*
X000741Y008109D01*
X000741Y008267D02*
X000482Y008267D01*
X000482Y008426D02*
X000805Y008426D01*
X000972Y008584D02*
X000482Y008584D01*
X001017Y008737D02*
X001089Y008713D01*
X001164Y008701D01*
X001361Y008701D01*
X001361Y009161D01*
X001401Y009161D01*
X001401Y008701D01*
X001599Y008701D01*
X001674Y008713D01*
X001746Y008737D01*
X001813Y008771D01*
X001874Y008815D01*
X001928Y008869D01*
X001972Y008930D01*
X002006Y008997D01*
X002030Y009069D01*
X002041Y009144D01*
X002041Y009161D01*
X001402Y009161D01*
X001402Y009201D01*
X002041Y009201D01*
X002041Y009219D01*
X002030Y009294D01*
X002006Y009366D01*
X001972Y009433D01*
X001928Y009494D01*
X001874Y009548D01*
X001813Y009592D01*
X001746Y009626D01*
X001674Y009650D01*
X001599Y009661D01*
X001401Y009661D01*
X001401Y009202D01*
X001361Y009202D01*
X001361Y009661D01*
X001164Y009661D01*
X001089Y009650D01*
X001017Y009626D01*
X000950Y009592D01*
X000889Y009548D01*
X000835Y009494D01*
X000791Y009433D01*
X000757Y009366D01*
X000733Y009294D01*
X000721Y009219D01*
X000721Y009201D01*
X001361Y009201D01*
X001361Y009161D01*
X000721Y009161D01*
X000721Y009144D01*
X000733Y009069D01*
X000757Y008997D01*
X000791Y008930D01*
X000835Y008869D01*
X000889Y008815D01*
X000950Y008771D01*
X001017Y008737D01*
X001005Y008743D02*
X000482Y008743D01*
X000482Y008901D02*
X000812Y008901D01*
X000736Y009060D02*
X000482Y009060D01*
X000482Y009218D02*
X000721Y009218D01*
X001361Y009218D02*
X001401Y009218D01*
X001401Y009060D02*
X001361Y009060D01*
X001361Y008901D02*
X001401Y008901D01*
X001401Y008743D02*
X001361Y008743D01*
X001758Y008743D02*
X003401Y008743D01*
X003401Y008799D02*
X003401Y008601D01*
X003861Y008601D01*
X003861Y008561D01*
X003901Y008561D01*
X003901Y007921D01*
X003919Y007921D01*
X003994Y007933D01*
X004066Y007957D01*
X004133Y007991D01*
X004194Y008035D01*
X004248Y008089D01*
X004292Y008150D01*
X004326Y008217D01*
X004350Y008289D01*
X004361Y008364D01*
X004361Y008561D01*
X003902Y008561D01*
X003902Y008601D01*
X004361Y008601D01*
X004361Y008799D01*
X004350Y008874D01*
X004326Y008946D01*
X004292Y009013D01*
X004248Y009074D01*
X004194Y009128D01*
X004133Y009172D01*
X004066Y009206D01*
X003994Y009230D01*
X003919Y009241D01*
X003901Y009241D01*
X003901Y008602D01*
X003861Y008602D01*
X003861Y009241D01*
X003844Y009241D01*
X003769Y009230D01*
X003697Y009206D01*
X003630Y009172D01*
X003569Y009128D01*
X003515Y009074D01*
X003471Y009013D01*
X003437Y008946D01*
X003413Y008874D01*
X003401Y008799D01*
X003422Y008901D02*
X001951Y008901D01*
X002027Y009060D02*
X003505Y009060D01*
X003735Y009218D02*
X002041Y009218D01*
X002001Y009377D02*
X004471Y009377D01*
X004471Y009535D02*
X004001Y009535D01*
X003994Y009533D02*
X004066Y009557D01*
X004133Y009591D01*
X004194Y009635D01*
X004248Y009689D01*
X004292Y009750D01*
X004326Y009817D01*
X004350Y009889D01*
X004361Y009964D01*
X004361Y010161D01*
X003902Y010161D01*
X003902Y010201D01*
X004361Y010201D01*
X004361Y010399D01*
X004350Y010474D01*
X004326Y010546D01*
X004292Y010613D01*
X004248Y010674D01*
X004194Y010728D01*
X004133Y010772D01*
X004066Y010806D01*
X003994Y010830D01*
X003919Y010841D01*
X003901Y010841D01*
X003901Y010202D01*
X003861Y010202D01*
X003861Y010841D01*
X003844Y010841D01*
X003769Y010830D01*
X003697Y010806D01*
X003630Y010772D01*
X003569Y010728D01*
X003515Y010674D01*
X003471Y010613D01*
X003437Y010546D01*
X003413Y010474D01*
X003401Y010399D01*
X003401Y010201D01*
X003861Y010201D01*
X003861Y010161D01*
X003901Y010161D01*
X003901Y009521D01*
X003919Y009521D01*
X003994Y009533D01*
X003901Y009535D02*
X003861Y009535D01*
X003861Y009521D02*
X003861Y010161D01*
X003401Y010161D01*
X003401Y009964D01*
X003413Y009889D01*
X003437Y009817D01*
X003471Y009750D01*
X003515Y009689D01*
X003569Y009635D01*
X003630Y009591D01*
X003697Y009557D01*
X003769Y009533D01*
X003844Y009521D01*
X003861Y009521D01*
X003762Y009535D02*
X001886Y009535D01*
X001822Y009791D02*
X001653Y009721D01*
X001110Y009721D01*
X000941Y009791D01*
X000811Y009921D01*
X000741Y010090D01*
X000741Y010273D01*
X000811Y010442D01*
X000941Y010571D01*
X001110Y010641D01*
X001653Y010641D01*
X001822Y010571D01*
X001951Y010442D01*
X002021Y010273D01*
X002021Y010090D01*
X001951Y009921D01*
X001822Y009791D01*
X001883Y009853D02*
X003425Y009853D01*
X003401Y010011D02*
X001989Y010011D01*
X002021Y010170D02*
X003861Y010170D01*
X003902Y010170D02*
X004421Y010170D01*
X004421Y010328D02*
X004361Y010328D01*
X003901Y010328D02*
X003861Y010328D01*
X003401Y010328D02*
X001999Y010328D01*
X001907Y010487D02*
X003417Y010487D01*
X003494Y010645D02*
X000482Y010645D01*
X000482Y010487D02*
X000856Y010487D01*
X000764Y010328D02*
X000482Y010328D01*
X000482Y010170D02*
X000741Y010170D01*
X000774Y010011D02*
X000482Y010011D01*
X000482Y009853D02*
X000880Y009853D01*
X000482Y009694D02*
X003511Y009694D01*
X003861Y009694D02*
X003901Y009694D01*
X004251Y009694D02*
X004471Y009694D01*
X004445Y009853D02*
X004338Y009853D01*
X004361Y010011D02*
X004421Y010011D01*
X003901Y010011D02*
X003861Y010011D01*
X003861Y009853D02*
X003901Y009853D01*
X005291Y009694D02*
X005538Y009694D01*
X005291Y009535D02*
X007662Y009535D01*
X007761Y009535D02*
X007801Y009535D01*
X007901Y009535D02*
X008371Y009535D01*
X008371Y009377D02*
X005291Y009377D01*
X005291Y009218D02*
X005783Y009218D01*
X005790Y009221D02*
X005621Y009151D01*
X005491Y009022D01*
X005421Y008853D01*
X005421Y008310D01*
X005491Y008141D01*
X005621Y008011D01*
X005790Y007941D01*
X005973Y007941D01*
X006142Y008011D01*
X006271Y008141D01*
X006341Y008310D01*
X006341Y008853D01*
X006271Y009022D01*
X006142Y009151D01*
X005973Y009221D01*
X005790Y009221D01*
X005980Y009218D02*
X007635Y009218D01*
X007669Y009230D02*
X007597Y009206D01*
X007530Y009172D01*
X007469Y009128D01*
X007415Y009074D01*
X007371Y009013D01*
X007337Y008946D01*
X007313Y008874D01*
X007301Y008799D01*
X007301Y008601D01*
X007761Y008601D01*
X007761Y008561D01*
X007801Y008561D01*
X007801Y007921D01*
X007819Y007921D01*
X007894Y007933D01*
X007966Y007957D01*
X008033Y007991D01*
X008094Y008035D01*
X008148Y008089D01*
X008192Y008150D01*
X008226Y008217D01*
X008250Y008289D01*
X008261Y008364D01*
X008261Y008561D01*
X007802Y008561D01*
X007802Y008601D01*
X008261Y008601D01*
X008261Y008799D01*
X008250Y008874D01*
X008226Y008946D01*
X008192Y009013D01*
X008148Y009074D01*
X008094Y009128D01*
X008033Y009172D01*
X007966Y009206D01*
X007894Y009230D01*
X007819Y009241D01*
X007801Y009241D01*
X007801Y008602D01*
X007761Y008602D01*
X007761Y009241D01*
X007744Y009241D01*
X007669Y009230D01*
X007761Y009218D02*
X007801Y009218D01*
X007928Y009218D02*
X008371Y009218D01*
X008371Y009060D02*
X008158Y009060D01*
X008241Y008901D02*
X008341Y008901D01*
X008321Y008743D02*
X008261Y008743D01*
X007801Y008743D02*
X007761Y008743D01*
X007761Y008901D02*
X007801Y008901D01*
X007801Y009060D02*
X007761Y009060D01*
X007405Y009060D02*
X006233Y009060D01*
X006321Y008901D02*
X007322Y008901D01*
X007301Y008743D02*
X006341Y008743D01*
X006341Y008584D02*
X007761Y008584D01*
X007761Y008561D02*
X007301Y008561D01*
X007301Y008364D01*
X007313Y008289D01*
X007337Y008217D01*
X007371Y008150D01*
X007415Y008089D01*
X007469Y008035D01*
X007530Y007991D01*
X007597Y007957D01*
X007669Y007933D01*
X007744Y007921D01*
X007761Y007921D01*
X007761Y008561D01*
X007802Y008584D02*
X008321Y008584D01*
X008321Y008426D02*
X008261Y008426D01*
X008242Y008267D02*
X008339Y008267D01*
X008371Y008109D02*
X008162Y008109D01*
X007801Y008109D02*
X007761Y008109D01*
X007761Y008267D02*
X007801Y008267D01*
X007801Y008426D02*
X007761Y008426D01*
X007301Y008426D02*
X006341Y008426D01*
X006324Y008267D02*
X007320Y008267D01*
X007401Y008109D02*
X006239Y008109D01*
X005994Y007950D02*
X007617Y007950D01*
X007761Y007950D02*
X007801Y007950D01*
X007946Y007950D02*
X008371Y007950D01*
X008371Y007791D02*
X005291Y007791D01*
X005291Y007633D02*
X007690Y007633D01*
X007761Y007633D02*
X007801Y007633D01*
X007872Y007633D02*
X008371Y007633D01*
X008371Y007474D02*
X008147Y007474D01*
X008236Y007316D02*
X008348Y007316D01*
X008321Y007157D02*
X008261Y007157D01*
X008321Y006999D02*
X007802Y006999D01*
X007801Y006961D02*
X007801Y006401D01*
X007761Y006401D01*
X007761Y006961D01*
X007801Y006961D01*
X007761Y006999D02*
X006341Y006999D01*
X006341Y007157D02*
X007301Y007157D01*
X007327Y007316D02*
X006315Y007316D01*
X006219Y007474D02*
X007416Y007474D01*
X007761Y007474D02*
X007801Y007474D01*
X007801Y007316D02*
X007761Y007316D01*
X007761Y007157D02*
X007801Y007157D01*
X007801Y006840D02*
X007761Y006840D01*
X007761Y006682D02*
X007801Y006682D01*
X007801Y006523D02*
X007761Y006523D01*
X007390Y006523D02*
X006651Y006523D01*
X006492Y006682D02*
X007316Y006682D01*
X007301Y006840D02*
X006341Y006840D01*
X005509Y006523D02*
X005291Y006523D01*
X005291Y006365D02*
X005734Y006365D01*
X006029Y006365D02*
X006187Y006365D01*
X006346Y006206D02*
X005291Y006206D01*
X005291Y006048D02*
X006504Y006048D01*
X006271Y005822D02*
X006142Y005951D01*
X005973Y006021D01*
X005790Y006021D01*
X005621Y005951D01*
X005491Y005822D01*
X005421Y005653D01*
X005421Y005110D01*
X005491Y004941D01*
X005621Y004811D01*
X005790Y004741D01*
X005973Y004741D01*
X006142Y004811D01*
X006271Y004941D01*
X006341Y005110D01*
X006341Y005653D01*
X006271Y005822D01*
X006204Y005889D02*
X007430Y005889D01*
X007761Y005889D02*
X007801Y005889D01*
X007801Y005961D02*
X007801Y005402D01*
X007761Y005402D01*
X007761Y005961D01*
X007801Y005961D01*
X008133Y005889D02*
X008458Y005889D01*
X008354Y005730D02*
X008231Y005730D01*
X008261Y005572D02*
X008321Y005572D01*
X008321Y005413D02*
X008261Y005413D01*
X008261Y005255D02*
X008321Y005255D01*
X007801Y005255D02*
X007761Y005255D01*
X007761Y005413D02*
X007801Y005413D01*
X007801Y005572D02*
X007761Y005572D01*
X007761Y005730D02*
X007801Y005730D01*
X007332Y005730D02*
X006309Y005730D01*
X006341Y005572D02*
X007301Y005572D01*
X007301Y005413D02*
X006341Y005413D01*
X006341Y005255D02*
X007301Y005255D01*
X007312Y005096D02*
X006336Y005096D01*
X006268Y004938D02*
X007380Y004938D01*
X007553Y004779D02*
X006064Y004779D01*
X005699Y004779D02*
X005291Y004779D01*
X005291Y004621D02*
X008371Y004621D01*
X008371Y004779D02*
X008010Y004779D01*
X007801Y004779D02*
X007761Y004779D01*
X007761Y004938D02*
X007801Y004938D01*
X007801Y005096D02*
X007761Y005096D01*
X008183Y004938D02*
X008371Y004938D01*
X008327Y005096D02*
X008251Y005096D01*
X009191Y004938D02*
X009395Y004938D01*
X009327Y005096D02*
X009236Y005096D01*
X009241Y005255D02*
X009321Y005255D01*
X009321Y005413D02*
X009241Y005413D01*
X009241Y005572D02*
X009321Y005572D01*
X009354Y005730D02*
X009209Y005730D01*
X009104Y005889D02*
X009458Y005889D01*
X010242Y005730D02*
X011121Y005730D01*
X011121Y005572D02*
X010241Y005572D01*
X010241Y005413D02*
X010468Y005413D01*
X010371Y005255D02*
X010241Y005255D01*
X010895Y005413D02*
X011121Y005413D01*
X010376Y005096D02*
X010236Y005096D01*
X010168Y004938D02*
X010480Y004938D01*
X010883Y004938D02*
X018227Y004938D01*
X018385Y005096D02*
X015607Y005096D01*
X015766Y005255D02*
X016363Y005255D01*
X016357Y005261D02*
X016391Y005227D01*
X016432Y005204D01*
X016478Y005191D01*
X016631Y005191D01*
X016631Y005771D01*
X016321Y005771D01*
X016321Y005348D01*
X016334Y005302D01*
X016357Y005261D01*
X016321Y005413D02*
X015924Y005413D01*
X016001Y005572D02*
X016321Y005572D01*
X016321Y005730D02*
X016001Y005730D01*
X016631Y005730D02*
X016632Y005730D01*
X016631Y005572D02*
X016632Y005572D01*
X016631Y005413D02*
X016632Y005413D01*
X016631Y005255D02*
X016632Y005255D01*
X017631Y005255D02*
X017632Y005255D01*
X017631Y005413D02*
X017632Y005413D01*
X017631Y005572D02*
X017632Y005572D01*
X017631Y005730D02*
X017632Y005730D01*
X018131Y005730D02*
X018132Y005730D01*
X018131Y005572D02*
X018132Y005572D01*
X018131Y005413D02*
X018132Y005413D01*
X018131Y005255D02*
X018132Y005255D01*
X018871Y005255D02*
X018892Y005255D01*
X018851Y005096D02*
X018955Y005096D01*
X018849Y004938D02*
X019114Y004938D01*
X019273Y004779D02*
X018690Y004779D01*
X018532Y004621D02*
X021810Y004621D01*
X021968Y004779D02*
X020590Y004779D01*
X020749Y004938D02*
X022127Y004938D01*
X022285Y005096D02*
X020907Y005096D01*
X021001Y005255D02*
X022444Y005255D01*
X022602Y005413D02*
X021001Y005413D01*
X021001Y005572D02*
X022761Y005572D01*
X022919Y005730D02*
X021001Y005730D01*
X021001Y005889D02*
X023078Y005889D01*
X023236Y006048D02*
X021001Y006048D01*
X021001Y006206D02*
X023395Y006206D01*
X023859Y006048D02*
X024561Y006048D01*
X024561Y006206D02*
X024017Y006206D01*
X024176Y006365D02*
X024561Y006365D01*
X024561Y006523D02*
X024334Y006523D01*
X024493Y006682D02*
X024561Y006682D01*
X024561Y006750D02*
X024561Y004907D01*
X024514Y004860D01*
X024466Y004744D01*
X024466Y004619D01*
X024514Y004503D01*
X024603Y004414D01*
X024719Y004366D01*
X024844Y004366D01*
X024889Y004385D01*
X022665Y002161D01*
X017038Y002161D01*
X016971Y002322D01*
X016842Y002451D01*
X016673Y002521D01*
X016490Y002521D01*
X016321Y002451D01*
X016191Y002322D01*
X016121Y002153D01*
X016121Y001610D01*
X016191Y001441D01*
X016321Y001311D01*
X016369Y001291D01*
X015991Y001291D01*
X015991Y001489D01*
X016041Y001610D01*
X016041Y002153D01*
X015971Y002322D01*
X015842Y002451D01*
X015673Y002521D01*
X015490Y002521D01*
X015321Y002451D01*
X015191Y002322D01*
X015121Y002153D01*
X015121Y001610D01*
X015171Y001489D01*
X015171Y001291D01*
X014834Y001291D01*
X014894Y001335D01*
X014948Y001389D01*
X014992Y001450D01*
X015026Y001517D01*
X015050Y001589D01*
X015061Y001664D01*
X015061Y001861D01*
X014602Y001861D01*
X014602Y001901D01*
X015061Y001901D01*
X015061Y002099D01*
X015050Y002174D01*
X015026Y002246D01*
X014992Y002313D01*
X014948Y002374D01*
X014894Y002428D01*
X014833Y002472D01*
X014766Y002506D01*
X014694Y002530D01*
X014619Y002541D01*
X014601Y002541D01*
X014601Y001902D01*
X014561Y001902D01*
X014561Y002541D01*
X014544Y002541D01*
X014469Y002530D01*
X014397Y002506D01*
X014330Y002472D01*
X014269Y002428D01*
X014215Y002374D01*
X014171Y002313D01*
X014137Y002246D01*
X014113Y002174D01*
X014101Y002099D01*
X014101Y001901D01*
X014561Y001901D01*
X014561Y001861D01*
X014101Y001861D01*
X014101Y001664D01*
X014113Y001589D01*
X014137Y001517D01*
X014171Y001450D01*
X014215Y001389D01*
X014269Y001335D01*
X014329Y001291D01*
X013793Y001291D01*
X013842Y001311D01*
X013971Y001441D01*
X014041Y001610D01*
X014041Y002153D01*
X013971Y002322D01*
X013842Y002451D01*
X013673Y002521D01*
X013490Y002521D01*
X013321Y002451D01*
X013191Y002322D01*
X013121Y002153D01*
X013121Y001610D01*
X013191Y001441D01*
X013321Y001311D01*
X013369Y001291D01*
X012793Y001291D01*
X012842Y001311D01*
X012971Y001441D01*
X013041Y001610D01*
X013041Y002153D01*
X012971Y002322D01*
X012842Y002451D01*
X012673Y002521D01*
X012490Y002521D01*
X012321Y002451D01*
X012191Y002322D01*
X012121Y002153D01*
X012121Y001610D01*
X012191Y001441D01*
X012321Y001311D01*
X012369Y001291D01*
X011891Y001291D01*
X011891Y002512D01*
X012256Y002876D01*
X012321Y002811D01*
X012490Y002741D01*
X012673Y002741D01*
X012842Y002811D01*
X012971Y002941D01*
X013041Y003110D01*
X013041Y003653D01*
X012971Y003822D01*
X012842Y003951D01*
X012818Y003961D01*
X013345Y003961D01*
X013321Y003951D01*
X013191Y003822D01*
X013121Y003653D01*
X013121Y003110D01*
X013191Y002941D01*
X013321Y002811D01*
X013490Y002741D01*
X013673Y002741D01*
X013842Y002811D01*
X013971Y002941D01*
X014041Y003110D01*
X014041Y003653D01*
X013971Y003822D01*
X013842Y003951D01*
X013818Y003961D01*
X014315Y003961D01*
X014269Y003928D01*
X014215Y003874D01*
X014171Y003813D01*
X014137Y003746D01*
X014113Y003674D01*
X014101Y003599D01*
X014101Y003401D01*
X014561Y003401D01*
X014561Y003361D01*
X014601Y003361D01*
X014601Y002721D01*
X014619Y002721D01*
X014694Y002733D01*
X014766Y002757D01*
X014833Y002791D01*
X014894Y002835D01*
X014948Y002889D01*
X014992Y002950D01*
X015026Y003017D01*
X015050Y003089D01*
X015061Y003164D01*
X015061Y003361D01*
X014602Y003361D01*
X014602Y003401D01*
X015061Y003401D01*
X015061Y003599D01*
X015050Y003674D01*
X015026Y003746D01*
X014992Y003813D01*
X014948Y003874D01*
X014894Y003928D01*
X014847Y003961D01*
X015345Y003961D01*
X015321Y003951D01*
X015191Y003822D01*
X015121Y003653D01*
X015121Y003110D01*
X015191Y002941D01*
X015321Y002811D01*
X015490Y002741D01*
X015673Y002741D01*
X015842Y002811D01*
X015971Y002941D01*
X016041Y003110D01*
X016041Y003653D01*
X015971Y003822D01*
X015842Y003951D01*
X015818Y003961D01*
X016345Y003961D01*
X016321Y003951D01*
X016191Y003822D01*
X016121Y003653D01*
X016121Y003110D01*
X016191Y002941D01*
X016321Y002811D01*
X016490Y002741D01*
X016673Y002741D01*
X016842Y002811D01*
X016971Y002941D01*
X017041Y003110D01*
X017041Y003653D01*
X016971Y003822D01*
X016842Y003951D01*
X016818Y003961D01*
X017345Y003961D01*
X017321Y003951D01*
X017191Y003822D01*
X017121Y003653D01*
X017121Y003110D01*
X017191Y002941D01*
X017321Y002811D01*
X017490Y002741D01*
X017673Y002741D01*
X017842Y002811D01*
X017971Y002941D01*
X018041Y003110D01*
X018041Y003653D01*
X017971Y003822D01*
X017842Y003951D01*
X017818Y003961D01*
X018345Y003961D01*
X018321Y003951D01*
X018191Y003822D01*
X018121Y003653D01*
X018121Y003110D01*
X018191Y002941D01*
X018321Y002811D01*
X018490Y002741D01*
X018673Y002741D01*
X018842Y002811D01*
X018971Y002941D01*
X019041Y003110D01*
X019041Y003653D01*
X018971Y003822D01*
X018842Y003951D01*
X018818Y003961D01*
X021590Y003961D01*
X021773Y003961D01*
X024561Y006750D01*
X024029Y006840D02*
X021096Y006840D01*
X021081Y006682D02*
X023871Y006682D01*
X023712Y006523D02*
X021001Y006523D01*
X021001Y006365D02*
X023554Y006365D01*
X023700Y005889D02*
X024561Y005889D01*
X024561Y005730D02*
X023541Y005730D01*
X023383Y005572D02*
X024561Y005572D01*
X024561Y005413D02*
X023224Y005413D01*
X023066Y005255D02*
X024561Y005255D01*
X024561Y005096D02*
X022907Y005096D01*
X022749Y004938D02*
X024561Y004938D01*
X024481Y004779D02*
X022590Y004779D01*
X022432Y004621D02*
X024466Y004621D01*
X024555Y004462D02*
X022273Y004462D01*
X022115Y004304D02*
X024808Y004304D01*
X024649Y004145D02*
X021956Y004145D01*
X021798Y003986D02*
X024491Y003986D01*
X024332Y003828D02*
X018965Y003828D01*
X019035Y003669D02*
X024173Y003669D01*
X024015Y003511D02*
X019041Y003511D01*
X018121Y003511D02*
X018041Y003511D01*
X018035Y003669D02*
X018128Y003669D01*
X018197Y003828D02*
X017965Y003828D01*
X017197Y003828D02*
X016965Y003828D01*
X017035Y003669D02*
X017128Y003669D01*
X017121Y003511D02*
X017041Y003511D01*
X017041Y003352D02*
X017121Y003352D01*
X017121Y003194D02*
X017041Y003194D01*
X017010Y003035D02*
X017152Y003035D01*
X017256Y002877D02*
X016907Y002877D01*
X016256Y002877D02*
X015907Y002877D01*
X016010Y003035D02*
X016152Y003035D01*
X016121Y003194D02*
X016041Y003194D01*
X016041Y003352D02*
X016121Y003352D01*
X016121Y003511D02*
X016041Y003511D01*
X016035Y003669D02*
X016128Y003669D01*
X016197Y003828D02*
X015965Y003828D01*
X015197Y003828D02*
X014981Y003828D01*
X015050Y003669D02*
X015128Y003669D01*
X015121Y003511D02*
X015061Y003511D01*
X014601Y003511D02*
X014561Y003511D01*
X014561Y003402D02*
X014561Y003961D01*
X014601Y003961D01*
X014601Y003402D01*
X014561Y003402D01*
X014561Y003361D02*
X014101Y003361D01*
X014101Y003164D01*
X014113Y003089D01*
X014137Y003017D01*
X014171Y002950D01*
X014215Y002889D01*
X014269Y002835D01*
X014330Y002791D01*
X014397Y002757D01*
X014469Y002733D01*
X014544Y002721D01*
X014561Y002721D01*
X014561Y003361D01*
X014561Y003352D02*
X014601Y003352D01*
X014601Y003194D02*
X014561Y003194D01*
X014561Y003035D02*
X014601Y003035D01*
X014601Y002877D02*
X014561Y002877D01*
X014227Y002877D02*
X013907Y002877D01*
X014010Y003035D02*
X014131Y003035D01*
X014101Y003194D02*
X014041Y003194D01*
X014041Y003352D02*
X014101Y003352D01*
X014101Y003511D02*
X014041Y003511D01*
X014035Y003669D02*
X014113Y003669D01*
X014182Y003828D02*
X013965Y003828D01*
X014561Y003828D02*
X014601Y003828D01*
X014601Y003669D02*
X014561Y003669D01*
X015061Y003352D02*
X015121Y003352D01*
X015121Y003194D02*
X015061Y003194D01*
X015032Y003035D02*
X015152Y003035D01*
X015256Y002877D02*
X014935Y002877D01*
X014921Y002401D02*
X015271Y002401D01*
X015892Y002401D02*
X016271Y002401D01*
X016892Y002401D02*
X022905Y002401D01*
X023064Y002560D02*
X011939Y002560D01*
X011891Y002401D02*
X012271Y002401D01*
X012159Y002242D02*
X011891Y002242D01*
X011891Y002084D02*
X012121Y002084D01*
X012121Y001925D02*
X011891Y001925D01*
X011891Y001767D02*
X012121Y001767D01*
X012122Y001608D02*
X011891Y001608D01*
X011891Y001450D02*
X012188Y001450D01*
X012975Y001450D02*
X013188Y001450D01*
X013122Y001608D02*
X013041Y001608D01*
X013041Y001767D02*
X013121Y001767D01*
X013121Y001925D02*
X013041Y001925D01*
X013041Y002084D02*
X013121Y002084D01*
X013159Y002242D02*
X013004Y002242D01*
X012892Y002401D02*
X013271Y002401D01*
X013892Y002401D02*
X014242Y002401D01*
X014561Y002401D02*
X014601Y002401D01*
X014601Y002242D02*
X014561Y002242D01*
X014561Y002084D02*
X014601Y002084D01*
X014601Y001925D02*
X014561Y001925D01*
X014561Y001861D02*
X014561Y001291D01*
X014601Y001291D01*
X014601Y001861D01*
X014561Y001861D01*
X014561Y001767D02*
X014601Y001767D01*
X015061Y001767D02*
X015121Y001767D01*
X015121Y001925D02*
X015061Y001925D01*
X015061Y002084D02*
X015121Y002084D01*
X015159Y002242D02*
X015027Y002242D01*
X014136Y002242D02*
X014004Y002242D01*
X014041Y002084D02*
X014101Y002084D01*
X014101Y001925D02*
X014041Y001925D01*
X014041Y001767D02*
X014101Y001767D01*
X014110Y001608D02*
X014041Y001608D01*
X013975Y001450D02*
X014171Y001450D01*
X014561Y001450D02*
X014601Y001450D01*
X014601Y001608D02*
X014561Y001608D01*
X014992Y001450D02*
X015171Y001450D01*
X015122Y001608D02*
X015053Y001608D01*
X015991Y001450D02*
X016188Y001450D01*
X016122Y001608D02*
X016041Y001608D01*
X016041Y001767D02*
X016121Y001767D01*
X016121Y001925D02*
X016041Y001925D01*
X016041Y002084D02*
X016121Y002084D01*
X016159Y002242D02*
X016004Y002242D01*
X017004Y002242D02*
X022747Y002242D01*
X023222Y002718D02*
X012098Y002718D01*
X012907Y002877D02*
X013256Y002877D01*
X013152Y003035D02*
X013010Y003035D01*
X013041Y003194D02*
X013121Y003194D01*
X013121Y003352D02*
X013041Y003352D01*
X013041Y003511D02*
X013121Y003511D01*
X013128Y003669D02*
X013035Y003669D01*
X012965Y003828D02*
X013197Y003828D01*
X012197Y003828D02*
X011939Y003828D01*
X011890Y003669D02*
X011780Y003669D01*
X011731Y003511D02*
X011622Y003511D01*
X011158Y003669D02*
X010980Y003669D01*
X011000Y003511D02*
X010241Y003511D01*
X010176Y003352D02*
X010841Y003352D01*
X010683Y003194D02*
X009999Y003194D01*
X009564Y003194D02*
X008999Y003194D01*
X009176Y003352D02*
X009387Y003352D01*
X009321Y003511D02*
X009241Y003511D01*
X009241Y003669D02*
X009321Y003669D01*
X009321Y003828D02*
X009241Y003828D01*
X009241Y003986D02*
X009321Y003986D01*
X009360Y004145D02*
X009203Y004145D01*
X009191Y004304D02*
X009473Y004304D01*
X009191Y004462D02*
X011151Y004462D01*
X010992Y004304D02*
X010090Y004304D01*
X010203Y004145D02*
X010834Y004145D01*
X011298Y003986D02*
X011475Y003986D01*
X011317Y003828D02*
X011139Y003828D01*
X011456Y004145D02*
X011634Y004145D01*
X011615Y004304D02*
X011792Y004304D01*
X011310Y004621D02*
X009191Y004621D01*
X009191Y004779D02*
X009599Y004779D01*
X009964Y004779D02*
X011468Y004779D01*
X008371Y004462D02*
X005291Y004462D01*
X005291Y004304D02*
X005573Y004304D01*
X005621Y004351D02*
X005491Y004222D01*
X005421Y004053D01*
X005421Y003510D01*
X005491Y003341D01*
X005621Y003211D01*
X005790Y003141D01*
X005973Y003141D01*
X006142Y003211D01*
X006271Y003341D01*
X006341Y003510D01*
X006341Y004053D01*
X006271Y004222D01*
X006142Y004351D01*
X005973Y004421D01*
X005790Y004421D01*
X005621Y004351D01*
X005460Y004145D02*
X005303Y004145D01*
X005341Y003986D02*
X005421Y003986D01*
X005421Y003828D02*
X005341Y003828D01*
X005341Y003669D02*
X005421Y003669D01*
X005421Y003511D02*
X005341Y003511D01*
X005291Y003352D02*
X005487Y003352D01*
X005664Y003194D02*
X005291Y003194D01*
X005291Y003035D02*
X010524Y003035D01*
X010366Y002877D02*
X005291Y002877D01*
X005291Y002718D02*
X005588Y002718D01*
X005466Y002560D02*
X005297Y002560D01*
X005341Y002401D02*
X005421Y002401D01*
X005421Y002242D02*
X005341Y002242D01*
X005341Y002084D02*
X005421Y002084D01*
X005421Y001925D02*
X005341Y001925D01*
X005282Y001767D02*
X005481Y001767D01*
X005628Y001608D02*
X005134Y001608D01*
X004628Y001608D02*
X004157Y001608D01*
X004133Y001591D02*
X004194Y001635D01*
X004248Y001689D01*
X004292Y001750D01*
X004326Y001817D01*
X004350Y001889D01*
X004361Y001964D01*
X004361Y002161D01*
X003902Y002161D01*
X003902Y002201D01*
X004361Y002201D01*
X004361Y002399D01*
X004350Y002474D01*
X004326Y002546D01*
X004292Y002613D01*
X004248Y002674D01*
X004194Y002728D01*
X004133Y002772D01*
X004066Y002806D01*
X003994Y002830D01*
X003919Y002841D01*
X003901Y002841D01*
X003901Y002202D01*
X003861Y002202D01*
X003861Y002841D01*
X003844Y002841D01*
X003769Y002830D01*
X003697Y002806D01*
X003630Y002772D01*
X003569Y002728D01*
X003515Y002674D01*
X003471Y002613D01*
X003437Y002546D01*
X003413Y002474D01*
X003401Y002399D01*
X003401Y002201D01*
X003861Y002201D01*
X003861Y002161D01*
X003901Y002161D01*
X003901Y001521D01*
X003919Y001521D01*
X003994Y001533D01*
X004066Y001557D01*
X004133Y001591D01*
X003901Y001608D02*
X003861Y001608D01*
X003861Y001521D02*
X003861Y002161D01*
X003401Y002161D01*
X003401Y001964D01*
X003413Y001889D01*
X003437Y001817D01*
X003471Y001750D01*
X003515Y001689D01*
X003569Y001635D01*
X003630Y001591D01*
X003697Y001557D01*
X003769Y001533D01*
X003844Y001521D01*
X003861Y001521D01*
X003606Y001608D02*
X003434Y001608D01*
X003593Y001450D02*
X011071Y001450D01*
X011071Y001608D02*
X006134Y001608D01*
X006282Y001767D02*
X011071Y001767D01*
X011071Y001925D02*
X006341Y001925D01*
X004481Y001767D02*
X004301Y001767D01*
X004355Y001925D02*
X004421Y001925D01*
X004421Y002084D02*
X004361Y002084D01*
X004361Y002242D02*
X004421Y002242D01*
X003901Y002242D02*
X003861Y002242D01*
X003861Y002084D02*
X003901Y002084D01*
X003901Y001925D02*
X003861Y001925D01*
X003861Y001767D02*
X003901Y001767D01*
X003462Y001767D02*
X003276Y001767D01*
X003407Y001925D02*
X003117Y001925D01*
X003091Y002084D02*
X003401Y002084D01*
X003401Y002242D02*
X003091Y002242D01*
X003091Y002401D02*
X003402Y002401D01*
X003444Y002560D02*
X003091Y002560D01*
X003091Y002718D02*
X003559Y002718D01*
X003861Y002718D02*
X003901Y002718D01*
X003901Y002560D02*
X003861Y002560D01*
X003861Y002401D02*
X003901Y002401D01*
X004319Y002560D02*
X004466Y002560D01*
X004471Y002718D02*
X004204Y002718D01*
X004471Y002877D02*
X003091Y002877D01*
X003091Y003035D02*
X004471Y003035D01*
X004471Y003194D02*
X004137Y003194D01*
X004133Y003191D02*
X004194Y003235D01*
X004248Y003289D01*
X004292Y003350D01*
X004326Y003417D01*
X004350Y003489D01*
X004361Y003564D01*
X004361Y003761D01*
X003902Y003761D01*
X003902Y003801D01*
X004361Y003801D01*
X004361Y003999D01*
X004350Y004074D01*
X004326Y004146D01*
X004292Y004213D01*
X004248Y004274D01*
X004194Y004328D01*
X004133Y004372D01*
X004066Y004406D01*
X003994Y004430D01*
X003919Y004441D01*
X003901Y004441D01*
X003901Y003802D01*
X003861Y003802D01*
X003861Y004441D01*
X003844Y004441D01*
X003769Y004430D01*
X003697Y004406D01*
X003630Y004372D01*
X003569Y004328D01*
X003515Y004274D01*
X003471Y004213D01*
X003437Y004146D01*
X003413Y004074D01*
X003401Y003999D01*
X003401Y003801D01*
X003861Y003801D01*
X003861Y003761D01*
X003901Y003761D01*
X003901Y003121D01*
X003919Y003121D01*
X003994Y003133D01*
X004066Y003157D01*
X004133Y003191D01*
X004293Y003352D02*
X004471Y003352D01*
X003901Y003352D02*
X003861Y003352D01*
X003861Y003194D02*
X003901Y003194D01*
X003861Y003121D02*
X003861Y003761D01*
X003401Y003761D01*
X003401Y003564D01*
X003413Y003489D01*
X003437Y003417D01*
X003471Y003350D01*
X003515Y003289D01*
X003569Y003235D01*
X003630Y003191D01*
X003697Y003157D01*
X003769Y003133D01*
X003844Y003121D01*
X003861Y003121D01*
X003626Y003194D02*
X003091Y003194D01*
X003091Y003352D02*
X003470Y003352D01*
X003410Y003511D02*
X003091Y003511D01*
X003091Y003669D02*
X003401Y003669D01*
X003401Y003828D02*
X003091Y003828D01*
X003091Y003986D02*
X003401Y003986D01*
X003861Y003986D02*
X003901Y003986D01*
X003901Y003828D02*
X003861Y003828D01*
X003861Y003669D02*
X003901Y003669D01*
X003901Y003511D02*
X003861Y003511D01*
X004353Y003511D02*
X004421Y003511D01*
X004421Y003669D02*
X004361Y003669D01*
X004361Y003828D02*
X004421Y003828D01*
X004421Y003986D02*
X004361Y003986D01*
X004326Y004145D02*
X004460Y004145D01*
X004471Y004304D02*
X004218Y004304D01*
X004471Y004462D02*
X003091Y004462D01*
X003091Y004304D02*
X003545Y004304D01*
X003436Y004145D02*
X003091Y004145D01*
X003861Y004145D02*
X003901Y004145D01*
X003901Y004304D02*
X003861Y004304D01*
X003861Y004721D02*
X003861Y005361D01*
X003901Y005361D01*
X003901Y004721D01*
X003919Y004721D01*
X003994Y004733D01*
X004066Y004757D01*
X004133Y004791D01*
X004194Y004835D01*
X004248Y004889D01*
X004292Y004950D01*
X004326Y005017D01*
X004350Y005089D01*
X004361Y005164D01*
X004361Y005361D01*
X003902Y005361D01*
X003902Y005401D01*
X004361Y005401D01*
X004361Y005599D01*
X004350Y005674D01*
X004326Y005746D01*
X004292Y005813D01*
X004248Y005874D01*
X004194Y005928D01*
X004133Y005972D01*
X004066Y006006D01*
X003994Y006030D01*
X003919Y006041D01*
X003901Y006041D01*
X003901Y005402D01*
X003861Y005402D01*
X003861Y006041D01*
X003844Y006041D01*
X003769Y006030D01*
X003697Y006006D01*
X003630Y005972D01*
X003569Y005928D01*
X003515Y005874D01*
X003471Y005813D01*
X003437Y005746D01*
X003413Y005674D01*
X003401Y005599D01*
X003401Y005401D01*
X003861Y005401D01*
X003861Y005361D01*
X003401Y005361D01*
X003401Y005164D01*
X003413Y005089D01*
X003437Y005017D01*
X003471Y004950D01*
X003515Y004889D01*
X003569Y004835D01*
X003630Y004791D01*
X003697Y004757D01*
X003769Y004733D01*
X003844Y004721D01*
X003861Y004721D01*
X003861Y004779D02*
X003901Y004779D01*
X003901Y004938D02*
X003861Y004938D01*
X003861Y005096D02*
X003901Y005096D01*
X004283Y004938D02*
X004471Y004938D01*
X004471Y004779D02*
X004110Y004779D01*
X004471Y004621D02*
X003091Y004621D01*
X003091Y004779D02*
X003653Y004779D01*
X003480Y004938D02*
X003091Y004938D01*
X003091Y005096D02*
X003412Y005096D01*
X003401Y005255D02*
X003091Y005255D01*
X003091Y005413D02*
X003401Y005413D01*
X003401Y005572D02*
X003091Y005572D01*
X003091Y005730D02*
X003432Y005730D01*
X003861Y005730D02*
X003901Y005730D01*
X003901Y005572D02*
X003861Y005572D01*
X003861Y005413D02*
X003901Y005413D01*
X003901Y005255D02*
X003861Y005255D01*
X004361Y005255D02*
X004421Y005255D01*
X004421Y005413D02*
X004361Y005413D01*
X004361Y005572D02*
X004421Y005572D01*
X004454Y005730D02*
X004331Y005730D01*
X004233Y005889D02*
X004471Y005889D01*
X004471Y006048D02*
X003091Y006048D01*
X003091Y006206D02*
X004471Y006206D01*
X004133Y006391D02*
X004066Y006357D01*
X003994Y006333D01*
X003919Y006321D01*
X003901Y006321D01*
X003901Y006961D01*
X003861Y006961D01*
X003861Y006321D01*
X003844Y006321D01*
X003769Y006333D01*
X003697Y006357D01*
X003630Y006391D01*
X003569Y006435D01*
X003515Y006489D01*
X003471Y006550D01*
X003437Y006617D01*
X003413Y006689D01*
X003401Y006764D01*
X003401Y006961D01*
X003861Y006961D01*
X003861Y007001D01*
X003401Y007001D01*
X003401Y007199D01*
X003413Y007274D01*
X003437Y007346D01*
X003471Y007413D01*
X003515Y007474D01*
X003569Y007528D01*
X003630Y007572D01*
X003697Y007606D01*
X003769Y007630D01*
X003844Y007641D01*
X003861Y007641D01*
X003861Y007002D01*
X003901Y007002D01*
X003901Y007641D01*
X003919Y007641D01*
X003994Y007630D01*
X004066Y007606D01*
X004133Y007572D01*
X004194Y007528D01*
X004248Y007474D01*
X004292Y007413D01*
X004326Y007346D01*
X004350Y007274D01*
X004361Y007199D01*
X004361Y007001D01*
X003902Y007001D01*
X003902Y006961D01*
X004361Y006961D01*
X004361Y006764D01*
X004350Y006689D01*
X004326Y006617D01*
X004292Y006550D01*
X004248Y006489D01*
X004194Y006435D01*
X004133Y006391D01*
X004081Y006365D02*
X004471Y006365D01*
X004471Y006523D02*
X004273Y006523D01*
X004347Y006682D02*
X004433Y006682D01*
X004421Y006840D02*
X004361Y006840D01*
X003901Y006840D02*
X003861Y006840D01*
X003861Y006682D02*
X003901Y006682D01*
X003901Y006523D02*
X003861Y006523D01*
X003861Y006365D02*
X003901Y006365D01*
X003681Y006365D02*
X003091Y006365D01*
X003091Y006523D02*
X003490Y006523D01*
X003416Y006682D02*
X003091Y006682D01*
X003091Y006840D02*
X003401Y006840D01*
X003091Y006999D02*
X003861Y006999D01*
X003902Y006999D02*
X004421Y006999D01*
X004421Y007157D02*
X004361Y007157D01*
X004336Y007316D02*
X004448Y007316D01*
X004471Y007474D02*
X004247Y007474D01*
X003901Y007474D02*
X003861Y007474D01*
X003861Y007316D02*
X003901Y007316D01*
X003901Y007157D02*
X003861Y007157D01*
X003401Y007157D02*
X003091Y007157D01*
X003091Y007316D02*
X003427Y007316D01*
X003516Y007474D02*
X003087Y007474D01*
X003010Y007633D02*
X003790Y007633D01*
X003861Y007633D02*
X003901Y007633D01*
X003972Y007633D02*
X004471Y007633D01*
X004471Y007791D02*
X002851Y007791D01*
X002693Y007950D02*
X003717Y007950D01*
X003697Y007957D02*
X003769Y007933D01*
X003844Y007921D01*
X003861Y007921D01*
X003861Y008561D01*
X003401Y008561D01*
X003401Y008364D01*
X003413Y008289D01*
X003437Y008217D01*
X003471Y008150D01*
X003515Y008089D01*
X003569Y008035D01*
X003630Y007991D01*
X003697Y007957D01*
X003861Y007950D02*
X003901Y007950D01*
X004046Y007950D02*
X004471Y007950D01*
X004471Y008109D02*
X004262Y008109D01*
X004342Y008267D02*
X004439Y008267D01*
X004421Y008426D02*
X004361Y008426D01*
X004421Y008584D02*
X003902Y008584D01*
X003861Y008584D02*
X001980Y008584D01*
X002217Y008426D02*
X003401Y008426D01*
X003420Y008267D02*
X002375Y008267D01*
X002534Y008109D02*
X003501Y008109D01*
X003861Y008109D02*
X003901Y008109D01*
X003901Y008267D02*
X003861Y008267D01*
X003861Y008426D02*
X003901Y008426D01*
X003901Y008743D02*
X003861Y008743D01*
X003861Y008901D02*
X003901Y008901D01*
X003901Y009060D02*
X003861Y009060D01*
X003861Y009218D02*
X003901Y009218D01*
X004028Y009218D02*
X004471Y009218D01*
X004471Y009060D02*
X004258Y009060D01*
X004341Y008901D02*
X004441Y008901D01*
X004421Y008743D02*
X004361Y008743D01*
X005321Y008901D02*
X005441Y008901D01*
X005421Y008743D02*
X005341Y008743D01*
X005341Y008584D02*
X005421Y008584D01*
X005421Y008426D02*
X005341Y008426D01*
X005324Y008267D02*
X005439Y008267D01*
X005524Y008109D02*
X005291Y008109D01*
X005291Y007950D02*
X005769Y007950D01*
X005544Y007474D02*
X005291Y007474D01*
X005315Y007316D02*
X005448Y007316D01*
X005421Y007157D02*
X005341Y007157D01*
X005341Y006999D02*
X005421Y006999D01*
X005421Y006840D02*
X005341Y006840D01*
X005330Y006682D02*
X005433Y006682D01*
X005558Y005889D02*
X005291Y005889D01*
X005309Y005730D02*
X005454Y005730D01*
X005421Y005572D02*
X005341Y005572D01*
X005341Y005413D02*
X005421Y005413D01*
X005421Y005255D02*
X005341Y005255D01*
X005336Y005096D02*
X005427Y005096D01*
X005495Y004938D02*
X005291Y004938D01*
X004427Y005096D02*
X004351Y005096D01*
X002271Y005096D02*
X002021Y005096D01*
X001958Y004938D02*
X002271Y004938D01*
X002271Y004779D02*
X001792Y004779D01*
X001703Y004621D02*
X002271Y004621D01*
X002271Y004462D02*
X001931Y004462D01*
X002009Y004304D02*
X002271Y004304D01*
X002271Y004145D02*
X002021Y004145D01*
X001979Y003986D02*
X002271Y003986D01*
X002271Y003828D02*
X001858Y003828D01*
X000774Y003352D02*
X000482Y003352D01*
X000482Y003194D02*
X000741Y003194D01*
X000764Y003035D02*
X000482Y003035D01*
X000482Y002877D02*
X000856Y002877D01*
X000482Y002718D02*
X002271Y002718D01*
X001401Y002560D02*
X001361Y002560D01*
X001361Y002401D02*
X001401Y002401D01*
X000905Y002560D02*
X000482Y002560D01*
X000482Y002401D02*
X000775Y002401D01*
X004361Y002401D02*
X004421Y002401D01*
X006175Y002718D02*
X010207Y002718D01*
X010048Y002560D02*
X006297Y002560D01*
X006099Y003194D02*
X007526Y003194D01*
X007530Y003191D02*
X007597Y003157D01*
X007669Y003133D01*
X007744Y003121D01*
X007761Y003121D01*
X007761Y003761D01*
X007801Y003761D01*
X007801Y003121D01*
X007819Y003121D01*
X007894Y003133D01*
X007966Y003157D01*
X008033Y003191D01*
X008094Y003235D01*
X008148Y003289D01*
X008192Y003350D01*
X008226Y003417D01*
X008250Y003489D01*
X008261Y003564D01*
X008261Y003761D01*
X007802Y003761D01*
X007802Y003801D01*
X008261Y003801D01*
X008261Y003999D01*
X008250Y004074D01*
X008226Y004146D01*
X008192Y004213D01*
X008148Y004274D01*
X008094Y004328D01*
X008033Y004372D01*
X007966Y004406D01*
X007894Y004430D01*
X007819Y004441D01*
X007801Y004441D01*
X007801Y003802D01*
X007761Y003802D01*
X007761Y004441D01*
X007744Y004441D01*
X007669Y004430D01*
X007597Y004406D01*
X007530Y004372D01*
X007469Y004328D01*
X007415Y004274D01*
X007371Y004213D01*
X007337Y004146D01*
X007313Y004074D01*
X007301Y003999D01*
X007301Y003801D01*
X007761Y003801D01*
X007761Y003761D01*
X007301Y003761D01*
X007301Y003564D01*
X007313Y003489D01*
X007337Y003417D01*
X007371Y003350D01*
X007415Y003289D01*
X007469Y003235D01*
X007530Y003191D01*
X007370Y003352D02*
X006276Y003352D01*
X006341Y003511D02*
X007310Y003511D01*
X007301Y003669D02*
X006341Y003669D01*
X006341Y003828D02*
X007301Y003828D01*
X007301Y003986D02*
X006341Y003986D01*
X006303Y004145D02*
X007336Y004145D01*
X007445Y004304D02*
X006190Y004304D01*
X007761Y004304D02*
X007801Y004304D01*
X007801Y004145D02*
X007761Y004145D01*
X008118Y004304D02*
X008371Y004304D01*
X008360Y004145D02*
X008226Y004145D01*
X008261Y003986D02*
X008321Y003986D01*
X008321Y003828D02*
X008261Y003828D01*
X008261Y003669D02*
X008321Y003669D01*
X008321Y003511D02*
X008253Y003511D01*
X007801Y003511D02*
X007761Y003511D01*
X007761Y003669D02*
X007801Y003669D01*
X007801Y003828D02*
X007761Y003828D01*
X007761Y003986D02*
X007801Y003986D01*
X007801Y003352D02*
X007761Y003352D01*
X007761Y003194D02*
X007801Y003194D01*
X008037Y003194D02*
X008564Y003194D01*
X008387Y003352D02*
X008193Y003352D01*
X010829Y002718D02*
X011071Y002718D01*
X011071Y002560D02*
X010671Y002560D01*
X010512Y002401D02*
X011071Y002401D01*
X011071Y002242D02*
X010354Y002242D01*
X010195Y002084D02*
X011071Y002084D01*
X011119Y002877D02*
X010988Y002877D01*
X011146Y003035D02*
X011255Y003035D01*
X011305Y003194D02*
X011414Y003194D01*
X011463Y003352D02*
X011572Y003352D01*
X017907Y002877D02*
X018256Y002877D01*
X018152Y003035D02*
X018010Y003035D01*
X018041Y003194D02*
X018121Y003194D01*
X018121Y003352D02*
X018041Y003352D01*
X019041Y003352D02*
X023856Y003352D01*
X023698Y003194D02*
X019041Y003194D01*
X019010Y003035D02*
X023539Y003035D01*
X023381Y002877D02*
X018907Y002877D01*
X018373Y004462D02*
X021651Y004462D01*
X026308Y003828D02*
X026482Y003828D01*
X026471Y003813D02*
X026437Y003746D01*
X026413Y003674D01*
X026401Y003599D01*
X026401Y003401D01*
X026861Y003401D01*
X026861Y003361D01*
X026901Y003361D01*
X026901Y002721D01*
X026919Y002721D01*
X026994Y002733D01*
X027066Y002757D01*
X027133Y002791D01*
X027194Y002835D01*
X027248Y002889D01*
X027292Y002950D01*
X027326Y003017D01*
X027350Y003089D01*
X027361Y003164D01*
X027361Y003361D01*
X026902Y003361D01*
X026902Y003401D01*
X027361Y003401D01*
X027361Y003599D01*
X027350Y003674D01*
X027326Y003746D01*
X027292Y003813D01*
X027248Y003874D01*
X027194Y003928D01*
X027133Y003972D01*
X027066Y004006D01*
X026994Y004030D01*
X026919Y004041D01*
X026901Y004041D01*
X026901Y003402D01*
X026861Y003402D01*
X026861Y004041D01*
X026844Y004041D01*
X026769Y004030D01*
X026697Y004006D01*
X026630Y003972D01*
X026569Y003928D01*
X026515Y003874D01*
X026471Y003813D01*
X026413Y003669D02*
X026335Y003669D01*
X026341Y003511D02*
X026401Y003511D01*
X026861Y003511D02*
X026901Y003511D01*
X026901Y003669D02*
X026861Y003669D01*
X026861Y003828D02*
X026901Y003828D01*
X026901Y003986D02*
X026861Y003986D01*
X026658Y003986D02*
X026466Y003986D01*
X027104Y003986D02*
X027706Y003986D01*
X027790Y004021D02*
X027621Y003951D01*
X027491Y003822D01*
X027421Y003653D01*
X027421Y003110D01*
X027491Y002941D01*
X027621Y002811D01*
X027790Y002741D01*
X027973Y002741D01*
X028142Y002811D01*
X028271Y002941D01*
X028341Y003110D01*
X028341Y003653D01*
X028271Y003822D01*
X028142Y003951D01*
X027973Y004021D01*
X027790Y004021D01*
X028057Y003986D02*
X028706Y003986D01*
X028790Y004021D02*
X028621Y003951D01*
X028491Y003822D01*
X028421Y003653D01*
X028421Y003110D01*
X028491Y002941D01*
X028621Y002811D01*
X028790Y002741D01*
X028973Y002741D01*
X029142Y002811D01*
X029271Y002941D01*
X029341Y003110D01*
X029341Y003653D01*
X029271Y003822D01*
X029142Y003951D01*
X028973Y004021D01*
X028790Y004021D01*
X029057Y003986D02*
X029706Y003986D01*
X029790Y004021D02*
X029621Y003951D01*
X029491Y003822D01*
X029421Y003653D01*
X029421Y003110D01*
X029491Y002941D01*
X029621Y002811D01*
X029790Y002741D01*
X029973Y002741D01*
X030142Y002811D01*
X030271Y002941D01*
X030341Y003110D01*
X030341Y003653D01*
X030271Y003822D01*
X030142Y003951D01*
X029973Y004021D01*
X029790Y004021D01*
X030057Y003986D02*
X033258Y003986D01*
X033230Y003972D02*
X033169Y003928D01*
X033115Y003874D01*
X033071Y003813D01*
X033037Y003746D01*
X033013Y003674D01*
X033001Y003599D01*
X033001Y003401D01*
X033461Y003401D01*
X033461Y003361D01*
X033501Y003361D01*
X033501Y002721D01*
X033519Y002721D01*
X033594Y002733D01*
X033666Y002757D01*
X033733Y002791D01*
X033794Y002835D01*
X033848Y002889D01*
X033892Y002950D01*
X033926Y003017D01*
X033950Y003089D01*
X033961Y003164D01*
X033961Y003361D01*
X033502Y003361D01*
X033502Y003401D01*
X033961Y003401D01*
X033961Y003599D01*
X033950Y003674D01*
X033926Y003746D01*
X033892Y003813D01*
X033848Y003874D01*
X033794Y003928D01*
X033733Y003972D01*
X033666Y004006D01*
X033594Y004030D01*
X033519Y004041D01*
X033501Y004041D01*
X033501Y003402D01*
X033461Y003402D01*
X033461Y004041D01*
X033444Y004041D01*
X033369Y004030D01*
X033297Y004006D01*
X033230Y003972D01*
X033082Y003828D02*
X030265Y003828D01*
X030335Y003669D02*
X033013Y003669D01*
X033001Y003511D02*
X030341Y003511D01*
X030341Y003352D02*
X033001Y003352D01*
X033001Y003361D02*
X033001Y003164D01*
X033013Y003089D01*
X033037Y003017D01*
X033071Y002950D01*
X033115Y002889D01*
X033169Y002835D01*
X033230Y002791D01*
X033297Y002757D01*
X033369Y002733D01*
X033444Y002721D01*
X033461Y002721D01*
X033461Y003361D01*
X033001Y003361D01*
X033001Y003194D02*
X030341Y003194D01*
X030310Y003035D02*
X033031Y003035D01*
X033127Y002877D02*
X030207Y002877D01*
X029556Y002877D02*
X029207Y002877D01*
X029310Y003035D02*
X029452Y003035D01*
X029421Y003194D02*
X029341Y003194D01*
X029341Y003352D02*
X029421Y003352D01*
X029421Y003511D02*
X029341Y003511D01*
X029335Y003669D02*
X029428Y003669D01*
X029497Y003828D02*
X029265Y003828D01*
X028497Y003828D02*
X028265Y003828D01*
X028335Y003669D02*
X028428Y003669D01*
X028421Y003511D02*
X028341Y003511D01*
X028341Y003352D02*
X028421Y003352D01*
X028421Y003194D02*
X028341Y003194D01*
X028310Y003035D02*
X028452Y003035D01*
X028556Y002877D02*
X028207Y002877D01*
X027556Y002877D02*
X027235Y002877D01*
X027332Y003035D02*
X027452Y003035D01*
X027421Y003194D02*
X027361Y003194D01*
X027361Y003352D02*
X027421Y003352D01*
X026901Y003352D02*
X026861Y003352D01*
X026861Y003361D02*
X026861Y002721D01*
X026844Y002721D01*
X026769Y002733D01*
X026697Y002757D01*
X026630Y002791D01*
X026569Y002835D01*
X026515Y002889D01*
X026471Y002950D01*
X026437Y003017D01*
X026413Y003089D01*
X026401Y003164D01*
X026401Y003361D01*
X026861Y003361D01*
X026861Y003194D02*
X026901Y003194D01*
X026901Y003035D02*
X026861Y003035D01*
X026861Y002877D02*
X026901Y002877D01*
X026527Y002877D02*
X026291Y002877D01*
X026310Y003035D02*
X026431Y003035D01*
X026401Y003194D02*
X026341Y003194D01*
X026341Y003352D02*
X026401Y003352D01*
X027361Y003511D02*
X027421Y003511D01*
X027428Y003669D02*
X027350Y003669D01*
X027281Y003828D02*
X027497Y003828D01*
X026625Y004145D02*
X042301Y004145D01*
X042301Y004304D02*
X042034Y004304D01*
X042022Y004291D02*
X042151Y004421D01*
X042221Y004590D01*
X042221Y004773D01*
X042151Y004942D01*
X042022Y005071D01*
X041853Y005141D01*
X041310Y005141D01*
X041141Y005071D01*
X041011Y004942D01*
X040941Y004773D01*
X040941Y004590D01*
X041011Y004421D01*
X041141Y004291D01*
X041310Y004221D01*
X041853Y004221D01*
X042022Y004291D01*
X042022Y004071D02*
X041853Y004141D01*
X041310Y004141D01*
X041141Y004071D01*
X041011Y003942D01*
X040941Y003773D01*
X040941Y003590D01*
X041011Y003421D01*
X041141Y003291D01*
X041310Y003221D01*
X041853Y003221D01*
X042022Y003291D01*
X042151Y003421D01*
X042221Y003590D01*
X042221Y003773D01*
X042151Y003942D01*
X042022Y004071D01*
X042107Y003986D02*
X042301Y003986D01*
X042301Y003828D02*
X042199Y003828D01*
X042221Y003669D02*
X042301Y003669D01*
X042301Y003511D02*
X042189Y003511D01*
X042083Y003352D02*
X042301Y003352D01*
X042301Y003194D02*
X039941Y003194D01*
X039941Y003110D02*
X039941Y003653D01*
X039871Y003822D01*
X039742Y003951D01*
X039573Y004021D01*
X039390Y004021D01*
X039221Y003951D01*
X039091Y003822D01*
X039021Y003653D01*
X039021Y003110D01*
X039091Y002941D01*
X039221Y002811D01*
X039390Y002741D01*
X039573Y002741D01*
X039742Y002811D01*
X039871Y002941D01*
X039941Y003110D01*
X039910Y003035D02*
X042301Y003035D01*
X042301Y002877D02*
X039807Y002877D01*
X039156Y002877D02*
X038807Y002877D01*
X038871Y002941D02*
X038941Y003110D01*
X038941Y003653D01*
X038871Y003822D01*
X038742Y003951D01*
X038573Y004021D01*
X038390Y004021D01*
X038221Y003951D01*
X038091Y003822D01*
X038021Y003653D01*
X038021Y003110D01*
X038091Y002941D01*
X038221Y002811D01*
X038390Y002741D01*
X038573Y002741D01*
X038742Y002811D01*
X038871Y002941D01*
X038910Y003035D02*
X039052Y003035D01*
X039021Y003194D02*
X038941Y003194D01*
X038941Y003352D02*
X039021Y003352D01*
X039021Y003511D02*
X038941Y003511D01*
X038935Y003669D02*
X039028Y003669D01*
X039097Y003828D02*
X038865Y003828D01*
X038657Y003986D02*
X039306Y003986D01*
X039657Y003986D02*
X041056Y003986D01*
X040964Y003828D02*
X039865Y003828D01*
X039935Y003669D02*
X040941Y003669D01*
X040974Y003511D02*
X039941Y003511D01*
X039941Y003352D02*
X041080Y003352D01*
X042861Y003352D02*
X047146Y003352D01*
X047146Y003194D02*
X042861Y003194D01*
X042861Y003035D02*
X047146Y003035D01*
X047146Y002877D02*
X042861Y002877D01*
X042861Y002718D02*
X047146Y002718D01*
X047146Y002560D02*
X042861Y002560D01*
X042861Y002401D02*
X047146Y002401D01*
X047146Y002242D02*
X042861Y002242D01*
X042861Y002084D02*
X047146Y002084D01*
X047146Y001925D02*
X042861Y001925D01*
X042861Y001767D02*
X043287Y001767D01*
X043129Y001608D02*
X042861Y001608D01*
X042861Y001450D02*
X042970Y001450D01*
X042301Y001450D02*
X034891Y001450D01*
X034891Y001608D02*
X042301Y001608D01*
X042001Y001907D02*
X041755Y001661D01*
X041407Y001661D01*
X041161Y001907D01*
X041161Y002255D01*
X041407Y002501D01*
X041755Y002501D01*
X042001Y002255D01*
X042001Y001907D01*
X042001Y001925D02*
X042301Y001925D01*
X042301Y001767D02*
X041861Y001767D01*
X041302Y001767D02*
X040889Y001767D01*
X040764Y001641D02*
X041021Y001899D01*
X041021Y002081D01*
X040582Y002081D01*
X040582Y002082D01*
X041021Y002082D01*
X041021Y002264D01*
X040764Y002521D01*
X040582Y002521D01*
X040582Y002082D01*
X040581Y002082D01*
X040581Y002521D01*
X040399Y002521D01*
X040141Y002264D01*
X040141Y002082D01*
X040581Y002082D01*
X040581Y002081D01*
X040582Y002081D01*
X040582Y001641D01*
X040764Y001641D01*
X040581Y001641D02*
X040581Y002081D01*
X040141Y002081D01*
X040141Y001899D01*
X040399Y001641D01*
X040581Y001641D01*
X040581Y001767D02*
X040582Y001767D01*
X040581Y001925D02*
X040582Y001925D01*
X040581Y002084D02*
X040582Y002084D01*
X040581Y002242D02*
X040582Y002242D01*
X041021Y002242D02*
X041161Y002242D01*
X041161Y002084D02*
X041021Y002084D01*
X041021Y001925D02*
X041161Y001925D01*
X042001Y002084D02*
X042301Y002084D01*
X042301Y002242D02*
X042001Y002242D01*
X041856Y002401D02*
X042301Y002401D01*
X042301Y002560D02*
X034891Y002560D01*
X034891Y002718D02*
X042301Y002718D01*
X041307Y002401D02*
X040884Y002401D01*
X040582Y002401D02*
X040581Y002401D01*
X040279Y002401D02*
X034891Y002401D01*
X034891Y002242D02*
X040141Y002242D01*
X040141Y002084D02*
X034891Y002084D01*
X034891Y001925D02*
X040141Y001925D01*
X040274Y001767D02*
X034891Y001767D01*
X034071Y001767D02*
X026291Y001767D01*
X026291Y001925D02*
X034071Y001925D01*
X034071Y002084D02*
X026291Y002084D01*
X026291Y002242D02*
X034071Y002242D01*
X034071Y002401D02*
X026291Y002401D01*
X026291Y002560D02*
X034071Y002560D01*
X034071Y002718D02*
X026291Y002718D01*
X026291Y001608D02*
X034071Y001608D01*
X034071Y001450D02*
X026291Y001450D01*
X033461Y002877D02*
X033501Y002877D01*
X033501Y003035D02*
X033461Y003035D01*
X033461Y003194D02*
X033501Y003194D01*
X033501Y003352D02*
X033461Y003352D01*
X033961Y003352D02*
X034021Y003352D01*
X034021Y003194D02*
X033961Y003194D01*
X033932Y003035D02*
X034052Y003035D01*
X034071Y002877D02*
X033835Y002877D01*
X034891Y002877D02*
X035156Y002877D01*
X035091Y002941D02*
X035221Y002811D01*
X035390Y002741D01*
X035573Y002741D01*
X035742Y002811D01*
X035871Y002941D01*
X035941Y003110D01*
X035941Y003653D01*
X035871Y003822D01*
X035742Y003951D01*
X035573Y004021D01*
X035390Y004021D01*
X035221Y003951D01*
X035091Y003822D01*
X035021Y003653D01*
X035021Y003110D01*
X035091Y002941D01*
X035052Y003035D02*
X034910Y003035D01*
X034941Y003194D02*
X035021Y003194D01*
X035021Y003352D02*
X034941Y003352D01*
X034941Y003511D02*
X035021Y003511D01*
X035028Y003669D02*
X034935Y003669D01*
X034865Y003828D02*
X035097Y003828D01*
X035306Y003986D02*
X034657Y003986D01*
X034306Y003986D02*
X033704Y003986D01*
X033501Y003986D02*
X033461Y003986D01*
X033461Y003828D02*
X033501Y003828D01*
X033501Y003669D02*
X033461Y003669D01*
X033461Y003511D02*
X033501Y003511D01*
X033961Y003511D02*
X034021Y003511D01*
X034028Y003669D02*
X033950Y003669D01*
X033881Y003828D02*
X034097Y003828D01*
X035657Y003986D02*
X036306Y003986D01*
X036390Y004021D02*
X036221Y003951D01*
X036091Y003822D01*
X036021Y003653D01*
X036021Y003110D01*
X036091Y002941D01*
X036221Y002811D01*
X036390Y002741D01*
X036573Y002741D01*
X036742Y002811D01*
X036871Y002941D01*
X036941Y003110D01*
X036941Y003653D01*
X036871Y003822D01*
X036742Y003951D01*
X036573Y004021D01*
X036390Y004021D01*
X036657Y003986D02*
X037306Y003986D01*
X037390Y004021D02*
X037221Y003951D01*
X037091Y003822D01*
X037021Y003653D01*
X037021Y003110D01*
X037091Y002941D01*
X037221Y002811D01*
X037390Y002741D01*
X037573Y002741D01*
X037742Y002811D01*
X037871Y002941D01*
X037941Y003110D01*
X037941Y003653D01*
X037871Y003822D01*
X037742Y003951D01*
X037573Y004021D01*
X037390Y004021D01*
X037657Y003986D02*
X038306Y003986D01*
X038097Y003828D02*
X037865Y003828D01*
X037935Y003669D02*
X038028Y003669D01*
X038021Y003511D02*
X037941Y003511D01*
X037941Y003352D02*
X038021Y003352D01*
X038021Y003194D02*
X037941Y003194D01*
X037910Y003035D02*
X038052Y003035D01*
X038156Y002877D02*
X037807Y002877D01*
X037156Y002877D02*
X036807Y002877D01*
X036910Y003035D02*
X037052Y003035D01*
X037021Y003194D02*
X036941Y003194D01*
X036941Y003352D02*
X037021Y003352D01*
X037021Y003511D02*
X036941Y003511D01*
X036935Y003669D02*
X037028Y003669D01*
X037097Y003828D02*
X036865Y003828D01*
X036097Y003828D02*
X035865Y003828D01*
X035935Y003669D02*
X036028Y003669D01*
X036021Y003511D02*
X035941Y003511D01*
X035941Y003352D02*
X036021Y003352D01*
X036021Y003194D02*
X035941Y003194D01*
X035910Y003035D02*
X036052Y003035D01*
X036156Y002877D02*
X035807Y002877D01*
X041129Y004304D02*
X026783Y004304D01*
X026942Y004462D02*
X040994Y004462D01*
X040941Y004621D02*
X027100Y004621D01*
X027241Y004779D02*
X040944Y004779D01*
X041010Y004938D02*
X027291Y004938D01*
X027291Y005096D02*
X041201Y005096D01*
X041217Y005237D02*
X041289Y005213D01*
X041364Y005201D01*
X041561Y005201D01*
X041561Y005661D01*
X041601Y005661D01*
X041601Y005201D01*
X041799Y005201D01*
X041874Y005213D01*
X041946Y005237D01*
X042013Y005271D01*
X042074Y005315D01*
X042128Y005369D01*
X042172Y005430D01*
X042206Y005497D01*
X042230Y005569D01*
X042241Y005644D01*
X042241Y005661D01*
X041602Y005661D01*
X041602Y005701D01*
X042241Y005701D01*
X042241Y005719D01*
X042230Y005794D01*
X042206Y005866D01*
X042172Y005933D01*
X042128Y005994D01*
X042074Y006048D01*
X042301Y006048D01*
X042301Y006206D02*
X039717Y006206D01*
X039559Y006048D02*
X041089Y006048D01*
X041035Y005994D01*
X040991Y005933D01*
X040957Y005866D01*
X040933Y005794D01*
X040921Y005719D01*
X040921Y005701D01*
X041561Y005701D01*
X041561Y005661D01*
X040921Y005661D01*
X040921Y005644D01*
X040933Y005569D01*
X040957Y005497D01*
X040991Y005430D01*
X041035Y005369D01*
X041089Y005315D01*
X041150Y005271D01*
X041217Y005237D01*
X041181Y005255D02*
X027291Y005255D01*
X027291Y005413D02*
X041003Y005413D01*
X040933Y005572D02*
X027291Y005572D01*
X027291Y005730D02*
X040923Y005730D01*
X040968Y005889D02*
X039400Y005889D01*
X039876Y006365D02*
X042301Y006365D01*
X042301Y006523D02*
X040034Y006523D01*
X040193Y006682D02*
X042301Y006682D01*
X042301Y006840D02*
X042099Y006840D01*
X042074Y006815D02*
X042128Y006869D01*
X042172Y006930D01*
X042206Y006997D01*
X042230Y007069D01*
X042241Y007144D01*
X042241Y007161D01*
X041602Y007161D01*
X041602Y007201D01*
X042241Y007201D01*
X042241Y007219D01*
X042230Y007294D01*
X042206Y007366D01*
X042172Y007433D01*
X042128Y007494D01*
X042074Y007548D01*
X042013Y007592D01*
X041946Y007626D01*
X041874Y007650D01*
X041799Y007661D01*
X041601Y007661D01*
X041601Y007202D01*
X041561Y007202D01*
X041561Y007661D01*
X041364Y007661D01*
X041289Y007650D01*
X041217Y007626D01*
X041150Y007592D01*
X041089Y007548D01*
X041035Y007494D01*
X040991Y007433D01*
X040957Y007366D01*
X040933Y007294D01*
X040921Y007219D01*
X040921Y007201D01*
X041561Y007201D01*
X041561Y007161D01*
X041601Y007161D01*
X041601Y006701D01*
X041799Y006701D01*
X041874Y006713D01*
X041946Y006737D01*
X042013Y006771D01*
X042074Y006815D01*
X041601Y006840D02*
X041561Y006840D01*
X041561Y006701D02*
X041364Y006701D01*
X041289Y006713D01*
X041217Y006737D01*
X041150Y006771D01*
X041089Y006815D01*
X041035Y006869D01*
X040991Y006930D01*
X040957Y006997D01*
X040933Y007069D01*
X040921Y007144D01*
X040921Y007161D01*
X041561Y007161D01*
X041561Y006701D01*
X041064Y006840D02*
X040351Y006840D01*
X040510Y006999D02*
X040956Y006999D01*
X040921Y007157D02*
X040601Y007157D01*
X040601Y007316D02*
X040940Y007316D01*
X041021Y007474D02*
X040601Y007474D01*
X040601Y007633D02*
X041238Y007633D01*
X041310Y007721D02*
X041141Y007791D01*
X041011Y007921D01*
X040941Y008090D01*
X040941Y008273D01*
X041011Y008442D01*
X041141Y008571D01*
X041310Y008641D01*
X041853Y008641D01*
X042022Y008571D01*
X042151Y008442D01*
X042221Y008273D01*
X042221Y008090D01*
X042151Y007921D01*
X042022Y007791D01*
X041853Y007721D01*
X041310Y007721D01*
X041141Y007791D02*
X040601Y007791D01*
X040601Y007950D02*
X040999Y007950D01*
X040941Y008109D02*
X040601Y008109D01*
X040601Y008267D02*
X040941Y008267D01*
X041005Y008426D02*
X040601Y008426D01*
X040601Y008584D02*
X041172Y008584D01*
X041258Y008743D02*
X040601Y008743D01*
X040601Y008901D02*
X041031Y008901D01*
X040954Y009060D02*
X040601Y009060D01*
X040601Y009218D02*
X040941Y009218D01*
X040985Y009377D02*
X040601Y009377D01*
X040747Y009535D02*
X041105Y009535D01*
X040905Y009694D02*
X042258Y009694D01*
X042416Y009535D02*
X042058Y009535D01*
X042382Y009377D02*
X042575Y009377D01*
X043038Y009535D02*
X043042Y009535D01*
X042880Y009694D02*
X044041Y009694D01*
X044041Y009827D02*
X044041Y009135D01*
X043961Y009055D01*
X043961Y008707D01*
X044207Y008461D01*
X044555Y008461D01*
X044801Y008707D01*
X044801Y009055D01*
X044555Y009301D01*
X044521Y009301D01*
X044521Y009827D01*
X044701Y010007D01*
X044701Y010355D01*
X044455Y010601D01*
X044107Y010601D01*
X043861Y010355D01*
X043861Y010007D01*
X044041Y009827D01*
X044016Y009853D02*
X043546Y009853D01*
X043701Y010011D02*
X043861Y010011D01*
X043861Y010170D02*
X043701Y010170D01*
X043701Y010328D02*
X043861Y010328D01*
X044281Y010181D02*
X044281Y008981D01*
X044381Y008881D01*
X043961Y008901D02*
X043595Y008901D01*
X043701Y009060D02*
X043966Y009060D01*
X044041Y009218D02*
X043701Y009218D01*
X042861Y009060D02*
X042699Y009060D01*
X042733Y009218D02*
X042540Y009218D01*
X042835Y008901D02*
X042968Y008901D01*
X042861Y008743D02*
X043961Y008743D01*
X043701Y008355D02*
X043455Y008601D01*
X043107Y008601D01*
X042861Y008355D01*
X042861Y008007D01*
X043107Y007761D01*
X043362Y007761D01*
X043478Y007645D01*
X043545Y007578D01*
X043634Y007541D01*
X044027Y007541D01*
X044207Y007361D01*
X044555Y007361D01*
X044801Y007607D01*
X044801Y007955D01*
X044555Y008201D01*
X044207Y008201D01*
X044027Y008021D01*
X043781Y008021D01*
X043701Y008101D01*
X043701Y008355D01*
X043701Y008267D02*
X047146Y008267D01*
X047146Y008109D02*
X045676Y008109D01*
X045564Y008221D02*
X045382Y008221D01*
X045382Y007782D01*
X045821Y007782D01*
X045821Y007964D01*
X045564Y008221D01*
X045381Y008221D02*
X045199Y008221D01*
X044941Y007964D01*
X044941Y007782D01*
X045381Y007782D01*
X045381Y008221D01*
X045381Y008109D02*
X045382Y008109D01*
X045086Y008109D02*
X044648Y008109D01*
X044115Y008109D02*
X043701Y008109D01*
X043681Y007781D02*
X043281Y008181D01*
X042861Y008109D02*
X042861Y008109D01*
X042861Y008267D02*
X042861Y008267D01*
X042861Y008426D02*
X042932Y008426D01*
X042861Y008584D02*
X043090Y008584D01*
X043473Y008584D02*
X044085Y008584D01*
X043631Y008426D02*
X047146Y008426D01*
X047146Y008584D02*
X045706Y008584D01*
X045821Y008699D02*
X045564Y008441D01*
X045382Y008441D01*
X045382Y008881D01*
X045382Y008882D01*
X045821Y008882D01*
X045821Y009064D01*
X045564Y009321D01*
X045382Y009321D01*
X045382Y008882D01*
X045381Y008882D01*
X045381Y009321D01*
X045199Y009321D01*
X044941Y009064D01*
X044941Y008882D01*
X045381Y008882D01*
X045381Y008881D01*
X045382Y008881D01*
X045821Y008881D01*
X045821Y008699D01*
X045821Y008743D02*
X047146Y008743D01*
X047146Y008901D02*
X045821Y008901D01*
X045821Y009060D02*
X047146Y009060D01*
X047146Y009218D02*
X045667Y009218D01*
X045382Y009218D02*
X045381Y009218D01*
X045381Y009060D02*
X045382Y009060D01*
X045381Y008901D02*
X045382Y008901D01*
X045381Y008881D02*
X044941Y008881D01*
X044941Y008699D01*
X045199Y008441D01*
X045381Y008441D01*
X045381Y008881D01*
X045381Y008743D02*
X045382Y008743D01*
X044941Y008743D02*
X044801Y008743D01*
X044801Y008901D02*
X044941Y008901D01*
X044941Y009060D02*
X044797Y009060D01*
X044638Y009218D02*
X045096Y009218D01*
X044521Y009377D02*
X046076Y009377D01*
X046041Y009391D02*
X046210Y009321D01*
X046753Y009321D01*
X046922Y009391D01*
X047051Y009521D01*
X047121Y009690D01*
X047121Y009873D01*
X047051Y010042D01*
X046922Y010171D01*
X046753Y010241D01*
X046210Y010241D01*
X046041Y010171D01*
X045911Y010042D01*
X045841Y009873D01*
X045841Y009690D01*
X045911Y009521D01*
X046041Y009391D01*
X045905Y009535D02*
X044521Y009535D01*
X044521Y009694D02*
X045841Y009694D01*
X045841Y009853D02*
X044546Y009853D01*
X044701Y010011D02*
X045899Y010011D01*
X046039Y010170D02*
X044701Y010170D01*
X044701Y010328D02*
X046143Y010328D01*
X046117Y010337D02*
X046189Y010313D01*
X046264Y010301D01*
X046461Y010301D01*
X046461Y010761D01*
X046501Y010761D01*
X046501Y010301D01*
X046699Y010301D01*
X046774Y010313D01*
X046846Y010337D01*
X046913Y010371D01*
X046974Y010415D01*
X047028Y010469D01*
X047072Y010530D01*
X047106Y010597D01*
X047130Y010669D01*
X047141Y010744D01*
X047141Y010761D01*
X046502Y010761D01*
X046502Y010801D01*
X047141Y010801D01*
X047141Y010819D01*
X047130Y010894D01*
X047106Y010966D01*
X047072Y011033D01*
X047028Y011094D01*
X046974Y011148D01*
X046913Y011192D01*
X046846Y011226D01*
X046774Y011250D01*
X046699Y011261D01*
X046501Y011261D01*
X046501Y010802D01*
X046461Y010802D01*
X046461Y011261D01*
X046264Y011261D01*
X046189Y011250D01*
X046117Y011226D01*
X046050Y011192D01*
X045989Y011148D01*
X045935Y011094D01*
X045891Y011033D01*
X045857Y010966D01*
X045833Y010894D01*
X045821Y010819D01*
X045821Y010801D01*
X046461Y010801D01*
X046461Y010761D01*
X045821Y010761D01*
X045821Y010744D01*
X045833Y010669D01*
X045857Y010597D01*
X045891Y010530D01*
X045935Y010469D01*
X045989Y010415D01*
X046050Y010371D01*
X046117Y010337D01*
X046461Y010328D02*
X046501Y010328D01*
X046820Y010328D02*
X047146Y010328D01*
X047146Y010170D02*
X046924Y010170D01*
X047064Y010011D02*
X047146Y010011D01*
X047146Y009853D02*
X047121Y009853D01*
X047121Y009694D02*
X047146Y009694D01*
X047146Y009535D02*
X047057Y009535D01*
X047146Y009377D02*
X046887Y009377D01*
X044041Y009377D02*
X043680Y009377D01*
X043521Y009535D02*
X044041Y009535D01*
X043016Y009853D02*
X042721Y009853D01*
X040617Y010328D02*
X039432Y010328D01*
X039476Y010170D02*
X040459Y010170D01*
X040300Y010011D02*
X039476Y010011D01*
X039030Y009853D02*
X040141Y009853D01*
X039983Y009694D02*
X039476Y009694D01*
X039449Y009535D02*
X039961Y009535D01*
X039961Y009377D02*
X033988Y009377D01*
X034076Y009535D02*
X038514Y009535D01*
X038486Y009694D02*
X034076Y009694D01*
X033629Y009694D02*
X033533Y009694D01*
X033533Y009535D02*
X033629Y009535D01*
X033629Y009377D02*
X033533Y009377D01*
X033175Y009377D02*
X032297Y009377D01*
X032456Y009218D02*
X039961Y009218D01*
X039961Y009060D02*
X036014Y009060D01*
X036173Y008901D02*
X039961Y008901D01*
X039961Y008743D02*
X036251Y008743D01*
X035049Y009060D02*
X032614Y009060D01*
X031809Y008743D02*
X031367Y008743D01*
X031182Y008743D02*
X031181Y008743D01*
X030996Y008743D02*
X030367Y008743D01*
X030182Y008743D02*
X030181Y008743D01*
X029996Y008743D02*
X029867Y008743D01*
X029682Y008743D02*
X029681Y008743D01*
X029496Y008743D02*
X022954Y008743D01*
X023112Y008901D02*
X028650Y008901D01*
X028492Y009060D02*
X027371Y009060D01*
X027529Y009218D02*
X028333Y009218D01*
X028175Y009377D02*
X027688Y009377D01*
X027801Y009535D02*
X028016Y009535D01*
X027861Y009694D02*
X027801Y009694D01*
X027361Y009694D02*
X026800Y009694D01*
X026842Y009711D02*
X026971Y009841D01*
X027041Y010010D01*
X027041Y010553D01*
X026971Y010722D01*
X026932Y010761D01*
X027231Y010761D01*
X027191Y010722D01*
X027121Y010553D01*
X027121Y010010D01*
X027191Y009841D01*
X027321Y009711D01*
X027361Y009695D01*
X027361Y009673D01*
X027090Y009401D01*
X023173Y009401D01*
X022990Y009401D01*
X020990Y007401D01*
X020073Y007401D01*
X019890Y007401D01*
X019690Y007201D01*
X016290Y007201D01*
X016161Y007073D01*
X015221Y006132D01*
X015221Y006238D01*
X015128Y006331D01*
X014735Y006331D01*
X014681Y006278D01*
X014651Y006308D01*
X014651Y006310D01*
X014696Y006419D01*
X014696Y006544D01*
X014648Y006660D01*
X014647Y006661D01*
X015073Y006661D01*
X015201Y006790D01*
X016201Y007790D01*
X016201Y007973D01*
X016201Y008490D01*
X016341Y008630D01*
X016341Y007725D01*
X016435Y007631D01*
X016828Y007631D01*
X016867Y007671D01*
X016891Y007647D01*
X016932Y007624D01*
X016978Y007611D01*
X017131Y007611D01*
X017131Y008191D01*
X017132Y008191D01*
X017132Y008192D01*
X017441Y008192D01*
X017631Y008192D01*
X017631Y008191D01*
X017441Y008191D01*
X017132Y008191D01*
X017132Y007611D01*
X017285Y007611D01*
X017331Y007624D01*
X017372Y007647D01*
X017381Y007657D01*
X017391Y007647D01*
X017432Y007624D01*
X017478Y007611D01*
X017631Y007611D01*
X017631Y008191D01*
X017632Y008191D01*
X017632Y007611D01*
X017785Y007611D01*
X017831Y007624D01*
X017872Y007647D01*
X017896Y007671D01*
X017935Y007631D01*
X018328Y007631D01*
X018367Y007671D01*
X018391Y007647D01*
X018432Y007624D01*
X018478Y007611D01*
X018631Y007611D01*
X018631Y008191D01*
X018632Y008191D01*
X018632Y008192D01*
X018941Y008192D01*
X019131Y008192D01*
X019131Y008191D01*
X018941Y008191D01*
X018632Y008191D01*
X018632Y007611D01*
X018785Y007611D01*
X018831Y007624D01*
X018872Y007647D01*
X018881Y007657D01*
X018891Y007647D01*
X018932Y007624D01*
X018978Y007611D01*
X019131Y007611D01*
X019131Y008191D01*
X019132Y008191D01*
X019132Y008192D01*
X019441Y008192D01*
X019631Y008192D01*
X019631Y008191D01*
X019321Y008191D01*
X019132Y008191D01*
X019132Y007611D01*
X019285Y007611D01*
X019331Y007624D01*
X019372Y007647D01*
X019381Y007657D01*
X019391Y007647D01*
X019432Y007624D01*
X019478Y007611D01*
X019631Y007611D01*
X019631Y008191D01*
X019632Y008191D01*
X019632Y007611D01*
X019785Y007611D01*
X019831Y007624D01*
X019872Y007647D01*
X019896Y007671D01*
X019935Y007631D01*
X020328Y007631D01*
X020421Y007725D01*
X020421Y008658D01*
X020411Y008668D01*
X020411Y008906D01*
X020510Y008906D01*
X020569Y008966D01*
X020575Y008956D01*
X020609Y008922D01*
X020650Y008899D01*
X020695Y008886D01*
X020927Y008886D01*
X020927Y009333D01*
X021023Y009333D01*
X021023Y008886D01*
X021255Y008886D01*
X021300Y008899D01*
X021342Y008922D01*
X021375Y008956D01*
X021399Y008997D01*
X021411Y009043D01*
X021411Y009333D01*
X021023Y009333D01*
X021023Y009429D01*
X021411Y009429D01*
X021411Y009720D01*
X021399Y009766D01*
X021375Y009807D01*
X021342Y009840D01*
X021300Y009864D01*
X021255Y009876D01*
X021023Y009876D01*
X021023Y009430D01*
X020927Y009430D01*
X020927Y009876D01*
X020695Y009876D01*
X020650Y009864D01*
X020609Y009840D01*
X020575Y009807D01*
X020569Y009797D01*
X020510Y009856D01*
X019866Y009856D01*
X019772Y009763D01*
X019772Y009236D01*
X019760Y009248D01*
X019644Y009296D01*
X019519Y009296D01*
X019403Y009248D01*
X019356Y009201D01*
X016290Y009201D01*
X016161Y009073D01*
X015890Y008801D01*
X015849Y008760D01*
X015848Y008760D02*
X015760Y008848D01*
X015644Y008896D01*
X015519Y008896D01*
X015403Y008848D01*
X015314Y008760D01*
X015266Y008644D01*
X015266Y008578D01*
X015261Y008573D01*
X015261Y008390D01*
X015261Y007772D01*
X015221Y007732D01*
X015221Y008658D01*
X015211Y008668D01*
X015211Y008776D01*
X015211Y008887D01*
X015169Y008990D01*
X014540Y009619D01*
X014491Y009639D01*
X014491Y009763D01*
X014397Y009856D01*
X014355Y009856D01*
X014355Y011101D01*
X026590Y011101D01*
X026490Y011001D01*
X026361Y010873D01*
X026361Y010868D01*
X026321Y010851D01*
X026191Y010722D01*
X026121Y010553D01*
X026121Y010010D01*
X026191Y009841D01*
X026321Y009711D01*
X026490Y009641D01*
X026673Y009641D01*
X026842Y009711D01*
X027224Y009535D02*
X021411Y009535D01*
X021411Y009694D02*
X022563Y009694D01*
X022521Y009711D02*
X022690Y009641D01*
X022873Y009641D01*
X023042Y009711D01*
X023171Y009841D01*
X023241Y010010D01*
X023241Y010553D01*
X023171Y010722D01*
X023042Y010851D01*
X022873Y010921D01*
X022690Y010921D01*
X022521Y010851D01*
X022391Y010722D01*
X022321Y010553D01*
X022321Y010010D01*
X022391Y009841D01*
X022521Y009711D01*
X023000Y009694D02*
X023563Y009694D01*
X023521Y009711D02*
X023690Y009641D01*
X023873Y009641D01*
X024042Y009711D01*
X024171Y009841D01*
X024241Y010010D01*
X024241Y010553D01*
X024171Y010722D01*
X024042Y010851D01*
X023873Y010921D01*
X023690Y010921D01*
X023521Y010851D01*
X023391Y010722D01*
X023321Y010553D01*
X023321Y010010D01*
X023391Y009841D01*
X023521Y009711D01*
X024000Y009694D02*
X024563Y009694D01*
X024521Y009711D02*
X024690Y009641D01*
X024873Y009641D01*
X025042Y009711D01*
X025171Y009841D01*
X025241Y010010D01*
X025241Y010553D01*
X025171Y010722D01*
X025042Y010851D01*
X024873Y010921D01*
X024690Y010921D01*
X024521Y010851D01*
X024391Y010722D01*
X024321Y010553D01*
X024321Y010010D01*
X024391Y009841D01*
X024521Y009711D01*
X025000Y009694D02*
X026363Y009694D01*
X026187Y009853D02*
X025176Y009853D01*
X025241Y010011D02*
X026121Y010011D01*
X026121Y010170D02*
X025241Y010170D01*
X025241Y010328D02*
X026121Y010328D01*
X026121Y010487D02*
X025241Y010487D01*
X025203Y010645D02*
X026160Y010645D01*
X026273Y010804D02*
X025089Y010804D01*
X024473Y010804D02*
X024089Y010804D01*
X024203Y010645D02*
X024360Y010645D01*
X024321Y010487D02*
X024241Y010487D01*
X023360Y010645D02*
X023203Y010645D01*
X023241Y010487D02*
X023321Y010487D01*
X023321Y010328D02*
X023241Y010328D01*
X023241Y010170D02*
X023321Y010170D01*
X023321Y010011D02*
X023241Y010011D01*
X023176Y009853D02*
X023387Y009853D01*
X024176Y009853D02*
X024387Y009853D01*
X024321Y010011D02*
X024241Y010011D01*
X024241Y010170D02*
X024321Y010170D01*
X024321Y010328D02*
X024241Y010328D01*
X022387Y009853D02*
X021320Y009853D01*
X021023Y009853D02*
X020927Y009853D01*
X020630Y009853D02*
X020514Y009853D01*
X020927Y009694D02*
X021023Y009694D01*
X021023Y009535D02*
X020927Y009535D01*
X021023Y009377D02*
X022966Y009377D01*
X022807Y009218D02*
X021411Y009218D01*
X021411Y009060D02*
X022649Y009060D01*
X022490Y008901D02*
X021305Y008901D01*
X021023Y008901D02*
X020927Y008901D01*
X020927Y009060D02*
X021023Y009060D01*
X021023Y009218D02*
X020927Y009218D01*
X020645Y008901D02*
X020411Y008901D01*
X020411Y008743D02*
X022332Y008743D01*
X022173Y008584D02*
X020421Y008584D01*
X020421Y008426D02*
X022015Y008426D01*
X021856Y008267D02*
X020421Y008267D01*
X020421Y008109D02*
X021697Y008109D01*
X022320Y008109D02*
X029371Y008109D01*
X029371Y008171D02*
X029371Y007748D01*
X029384Y007702D01*
X029407Y007661D01*
X029441Y007627D01*
X029482Y007604D01*
X029528Y007591D01*
X029681Y007591D01*
X029681Y008171D01*
X029371Y008171D01*
X029371Y008267D02*
X022478Y008267D01*
X022637Y008426D02*
X029371Y008426D01*
X029371Y008584D02*
X022795Y008584D01*
X022161Y007950D02*
X025139Y007950D01*
X024980Y007791D02*
X022003Y007791D01*
X021844Y007633D02*
X024822Y007633D01*
X024663Y007474D02*
X021686Y007474D01*
X021527Y007316D02*
X024505Y007316D01*
X024346Y007157D02*
X021368Y007157D01*
X021210Y006999D02*
X024188Y006999D01*
X021380Y007791D02*
X020421Y007791D01*
X020421Y007950D02*
X021539Y007950D01*
X021222Y007633D02*
X020329Y007633D01*
X019934Y007633D02*
X019847Y007633D01*
X019632Y007633D02*
X019631Y007633D01*
X019631Y007791D02*
X019632Y007791D01*
X019631Y007950D02*
X019632Y007950D01*
X019132Y007950D02*
X019131Y007950D01*
X019131Y007791D02*
X019132Y007791D01*
X019131Y007633D02*
X019132Y007633D01*
X019347Y007633D02*
X019416Y007633D01*
X018916Y007633D02*
X018847Y007633D01*
X018632Y007633D02*
X018631Y007633D01*
X018631Y007791D02*
X018632Y007791D01*
X018631Y007950D02*
X018632Y007950D01*
X018631Y008109D02*
X018632Y008109D01*
X019131Y008109D02*
X019132Y008109D01*
X019631Y008109D02*
X019632Y008109D01*
X018416Y007633D02*
X018329Y007633D01*
X017934Y007633D02*
X017847Y007633D01*
X017632Y007633D02*
X017631Y007633D01*
X017631Y007791D02*
X017632Y007791D01*
X017631Y007950D02*
X017632Y007950D01*
X017631Y008109D02*
X017632Y008109D01*
X017132Y008109D02*
X017131Y008109D01*
X016341Y008109D02*
X016201Y008109D01*
X016201Y008267D02*
X016341Y008267D01*
X016341Y008426D02*
X016201Y008426D01*
X016295Y008584D02*
X016341Y008584D01*
X015849Y008760D02*
X015848Y008760D01*
X015990Y008901D02*
X015206Y008901D01*
X015211Y008743D02*
X015307Y008743D01*
X015266Y008584D02*
X015221Y008584D01*
X015221Y008426D02*
X015261Y008426D01*
X015261Y008267D02*
X015221Y008267D01*
X015221Y008109D02*
X015261Y008109D01*
X015261Y007950D02*
X015221Y007950D01*
X015221Y007791D02*
X015261Y007791D01*
X015120Y007631D02*
X014790Y007301D01*
X014247Y007301D01*
X014248Y007303D01*
X014296Y007419D01*
X014296Y007544D01*
X014267Y007614D01*
X014278Y007611D01*
X014431Y007611D01*
X014431Y008191D01*
X014432Y008191D01*
X014432Y007611D01*
X014585Y007611D01*
X014631Y007624D01*
X014672Y007647D01*
X014696Y007671D01*
X014735Y007631D01*
X015120Y007631D01*
X014734Y007633D02*
X014647Y007633D01*
X014432Y007633D02*
X014431Y007633D01*
X014431Y007791D02*
X014432Y007791D01*
X014431Y007950D02*
X014432Y007950D01*
X014431Y008109D02*
X014432Y008109D01*
X014431Y008267D02*
X014432Y008267D01*
X014431Y008426D02*
X014432Y008426D01*
X014431Y008584D02*
X014432Y008584D01*
X014431Y008743D02*
X014432Y008743D01*
X014466Y008901D02*
X013617Y008901D01*
X013636Y008743D02*
X013727Y008743D01*
X014136Y008743D02*
X014204Y008743D01*
X013336Y008901D02*
X013240Y008901D01*
X013227Y008743D02*
X013136Y008743D01*
X012958Y008901D02*
X012389Y008901D01*
X012390Y009060D02*
X012852Y009060D01*
X012852Y009218D02*
X012290Y009218D01*
X011873Y009218D02*
X009880Y009218D01*
X009873Y009221D02*
X009690Y009221D01*
X009521Y009151D01*
X009391Y009022D01*
X009321Y008853D01*
X009321Y008310D01*
X009391Y008141D01*
X009521Y008011D01*
X009690Y007941D01*
X009873Y007941D01*
X010042Y008011D01*
X010171Y008141D01*
X010241Y008310D01*
X010241Y008853D01*
X010171Y009022D01*
X010042Y009151D01*
X009873Y009221D01*
X009683Y009218D02*
X009191Y009218D01*
X009191Y009060D02*
X009429Y009060D01*
X009341Y008901D02*
X009221Y008901D01*
X009241Y008743D02*
X009321Y008743D01*
X009321Y008584D02*
X009241Y008584D01*
X009241Y008426D02*
X009321Y008426D01*
X009339Y008267D02*
X009224Y008267D01*
X009191Y008109D02*
X009424Y008109D01*
X009191Y007950D02*
X009669Y007950D01*
X009894Y007950D02*
X010439Y007950D01*
X010280Y007791D02*
X009191Y007791D01*
X009191Y007633D02*
X010122Y007633D01*
X009444Y007474D02*
X009191Y007474D01*
X009215Y007316D02*
X009348Y007316D01*
X009321Y007157D02*
X009241Y007157D01*
X009241Y006999D02*
X009321Y006999D01*
X009321Y006840D02*
X009241Y006840D01*
X009230Y006682D02*
X009333Y006682D01*
X009409Y006523D02*
X009154Y006523D01*
X008409Y006523D02*
X008173Y006523D01*
X008247Y006682D02*
X008333Y006682D01*
X008321Y006840D02*
X008261Y006840D01*
X010717Y006206D02*
X011124Y006206D01*
X011121Y006048D02*
X010559Y006048D01*
X010400Y005889D02*
X011121Y005889D01*
X011431Y005889D02*
X011432Y005889D01*
X011431Y006048D02*
X011432Y006048D01*
X011431Y006206D02*
X011432Y006206D01*
X011589Y006365D02*
X010876Y006365D01*
X011034Y006523D02*
X011566Y006523D01*
X014254Y007316D02*
X014805Y007316D01*
X014963Y007474D02*
X014296Y007474D01*
X015568Y007157D02*
X016246Y007157D01*
X016088Y006999D02*
X015410Y006999D01*
X015251Y006840D02*
X015929Y006840D01*
X015771Y006682D02*
X015093Y006682D01*
X014696Y006523D02*
X015612Y006523D01*
X015454Y006365D02*
X014674Y006365D01*
X015221Y006206D02*
X015295Y006206D01*
X016059Y006048D02*
X016321Y006048D01*
X016324Y006206D02*
X016217Y006206D01*
X016631Y006206D02*
X016632Y006206D01*
X016631Y006048D02*
X016632Y006048D01*
X016631Y005889D02*
X016632Y005889D01*
X016321Y005889D02*
X016001Y005889D01*
X016376Y006365D02*
X019387Y006365D01*
X019229Y006523D02*
X016534Y006523D01*
X017631Y006206D02*
X017632Y006206D01*
X017631Y006048D02*
X017632Y006048D01*
X017631Y005889D02*
X017632Y005889D01*
X018131Y005889D02*
X018132Y005889D01*
X018131Y006048D02*
X018132Y006048D01*
X018131Y006206D02*
X018132Y006206D01*
X019805Y007316D02*
X015727Y007316D01*
X015886Y007474D02*
X021063Y007474D01*
X017416Y007633D02*
X017347Y007633D01*
X017132Y007633D02*
X017131Y007633D01*
X017131Y007791D02*
X017132Y007791D01*
X017131Y007950D02*
X017132Y007950D01*
X016341Y007950D02*
X016201Y007950D01*
X016201Y007791D02*
X016341Y007791D01*
X016434Y007633D02*
X016044Y007633D01*
X016829Y007633D02*
X016916Y007633D01*
X012727Y008743D02*
X012636Y008743D01*
X013240Y009060D02*
X013336Y009060D01*
X013336Y009218D02*
X013240Y009218D01*
X013239Y009377D02*
X009191Y009377D01*
X009191Y009535D02*
X012852Y009535D01*
X012852Y009694D02*
X010125Y009694D01*
X010218Y009853D02*
X012942Y009853D01*
X013240Y009853D02*
X013336Y009853D01*
X013633Y009853D02*
X013749Y009853D01*
X013795Y010011D02*
X010241Y010011D01*
X010241Y010170D02*
X013795Y010170D01*
X013795Y010328D02*
X010241Y010328D01*
X010227Y010487D02*
X013795Y010487D01*
X013795Y010645D02*
X010148Y010645D01*
X009415Y010645D02*
X009191Y010645D01*
X009227Y010487D02*
X009335Y010487D01*
X009321Y010328D02*
X009241Y010328D01*
X009241Y010170D02*
X009321Y010170D01*
X009321Y010011D02*
X009241Y010011D01*
X009218Y009853D02*
X009345Y009853D01*
X009438Y009694D02*
X009191Y009694D01*
X008371Y009694D02*
X008151Y009694D01*
X007801Y009694D02*
X007761Y009694D01*
X007411Y009694D02*
X006225Y009694D01*
X006318Y009853D02*
X007325Y009853D01*
X007301Y010011D02*
X006341Y010011D01*
X006341Y010170D02*
X007761Y010170D01*
X007761Y010202D02*
X007761Y010771D01*
X007801Y010771D01*
X007801Y010202D01*
X007761Y010202D01*
X007802Y010170D02*
X008321Y010170D01*
X008321Y010328D02*
X008261Y010328D01*
X007801Y010328D02*
X007761Y010328D01*
X007301Y010328D02*
X006341Y010328D01*
X006327Y010487D02*
X007317Y010487D01*
X007394Y010645D02*
X006248Y010645D01*
X005515Y010645D02*
X005425Y010645D01*
X005435Y010487D02*
X005327Y010487D01*
X005341Y010328D02*
X005421Y010328D01*
X005421Y010170D02*
X005341Y010170D01*
X005341Y010011D02*
X005421Y010011D01*
X005445Y009853D02*
X005318Y009853D01*
X004435Y010487D02*
X004345Y010487D01*
X004268Y010645D02*
X004471Y010645D01*
X004488Y010804D02*
X004070Y010804D01*
X003901Y010804D02*
X003861Y010804D01*
X003861Y010645D02*
X003901Y010645D01*
X003901Y010487D02*
X003861Y010487D01*
X003692Y010804D02*
X000482Y010804D01*
X000482Y010962D02*
X004583Y010962D01*
X004741Y011121D02*
X000482Y011121D01*
X000482Y011279D02*
X004900Y011279D01*
X005058Y011438D02*
X000482Y011438D01*
X000482Y011597D02*
X012501Y011597D01*
X012144Y011438D02*
X011619Y011438D01*
X011777Y011279D02*
X011986Y011279D01*
X011961Y011121D02*
X011801Y011121D01*
X011801Y010962D02*
X011961Y010962D01*
X012065Y010804D02*
X011698Y010804D01*
X012698Y010804D02*
X013795Y010804D01*
X013795Y010962D02*
X012801Y010962D01*
X014355Y010962D02*
X026451Y010962D01*
X027003Y010645D02*
X027160Y010645D01*
X027121Y010487D02*
X027041Y010487D01*
X027041Y010328D02*
X027121Y010328D01*
X027121Y010170D02*
X027041Y010170D01*
X027041Y010011D02*
X027121Y010011D01*
X027187Y009853D02*
X026976Y009853D01*
X028801Y009694D02*
X033086Y009694D01*
X033086Y009535D02*
X028938Y009535D01*
X028976Y009853D02*
X033086Y009853D01*
X033086Y010011D02*
X029041Y010011D01*
X029041Y010170D02*
X029391Y010170D01*
X029391Y010328D02*
X029041Y010328D01*
X029041Y010487D02*
X029391Y010487D01*
X029391Y010645D02*
X029003Y010645D01*
X028889Y010804D02*
X029391Y010804D01*
X029391Y010962D02*
X028212Y010962D01*
X023473Y010804D02*
X023089Y010804D01*
X022473Y010804D02*
X014355Y010804D01*
X014355Y010645D02*
X022360Y010645D01*
X022321Y010487D02*
X017120Y010487D01*
X017069Y010537D02*
X016915Y010601D01*
X016748Y010601D01*
X016594Y010537D01*
X016475Y010419D01*
X016411Y010265D01*
X016411Y010098D01*
X016475Y009944D01*
X016594Y009825D01*
X016748Y009761D01*
X016915Y009761D01*
X017069Y009825D01*
X017187Y009944D01*
X017251Y010098D01*
X017251Y010265D01*
X017187Y010419D01*
X017069Y010537D01*
X016543Y010487D02*
X015220Y010487D01*
X015169Y010537D02*
X015015Y010601D01*
X014848Y010601D01*
X014694Y010537D01*
X014575Y010419D01*
X014511Y010265D01*
X014511Y010098D01*
X014575Y009944D01*
X014694Y009825D01*
X014848Y009761D01*
X015015Y009761D01*
X015169Y009825D01*
X015287Y009944D01*
X015351Y010098D01*
X015351Y010265D01*
X015287Y010419D01*
X015169Y010537D01*
X014643Y010487D02*
X014355Y010487D01*
X014355Y010328D02*
X014538Y010328D01*
X014511Y010170D02*
X014355Y010170D01*
X014355Y010011D02*
X014547Y010011D01*
X014666Y009853D02*
X014401Y009853D01*
X015196Y009853D02*
X016566Y009853D01*
X016447Y010011D02*
X015315Y010011D01*
X015351Y010170D02*
X016411Y010170D01*
X016438Y010328D02*
X015325Y010328D01*
X017096Y009853D02*
X019862Y009853D01*
X019772Y009694D02*
X014491Y009694D01*
X014623Y009535D02*
X019772Y009535D01*
X019772Y009377D02*
X014782Y009377D01*
X014940Y009218D02*
X019373Y009218D01*
X017215Y010011D02*
X022321Y010011D01*
X022321Y010170D02*
X017251Y010170D01*
X017225Y010328D02*
X022321Y010328D01*
X016149Y009060D02*
X015099Y009060D01*
X013336Y009535D02*
X013240Y009535D01*
X013240Y009694D02*
X013336Y009694D01*
X011773Y009060D02*
X010133Y009060D01*
X010221Y008901D02*
X011711Y008901D01*
X011711Y008743D02*
X011636Y008743D01*
X011226Y008743D02*
X010241Y008743D01*
X010241Y008584D02*
X011141Y008584D01*
X011141Y008426D02*
X010241Y008426D01*
X010224Y008267D02*
X010756Y008267D01*
X010598Y008109D02*
X010139Y008109D01*
X005529Y009060D02*
X005291Y009060D01*
X007761Y009853D02*
X007801Y009853D01*
X007801Y010011D02*
X007761Y010011D01*
X008261Y010011D02*
X008321Y010011D01*
X008345Y009853D02*
X008238Y009853D01*
X008245Y010487D02*
X008335Y010487D01*
X008338Y010645D02*
X008168Y010645D01*
X007801Y010645D02*
X007761Y010645D01*
X007761Y010487D02*
X007801Y010487D01*
X008863Y011279D02*
X008884Y011279D01*
X008705Y011438D02*
X011144Y011438D01*
X001401Y009535D02*
X001361Y009535D01*
X001361Y009377D02*
X001401Y009377D01*
X000877Y009535D02*
X000482Y009535D01*
X000482Y009377D02*
X000762Y009377D01*
X000844Y007474D02*
X000482Y007474D01*
X000482Y007316D02*
X000759Y007316D01*
X000741Y007157D02*
X000482Y007157D01*
X000482Y006999D02*
X000779Y006999D01*
X000892Y006840D02*
X000482Y006840D01*
X001870Y006523D02*
X002271Y006523D01*
X002271Y006365D02*
X001983Y006365D01*
X002021Y006206D02*
X002271Y006206D01*
X002271Y006048D02*
X002004Y006048D01*
X001919Y005889D02*
X002271Y005889D01*
X002271Y005730D02*
X001675Y005730D01*
X001821Y005572D02*
X002271Y005572D01*
X002271Y005413D02*
X001963Y005413D01*
X002021Y005255D02*
X002271Y005255D01*
X003091Y005889D02*
X003530Y005889D01*
X003861Y005889D02*
X003901Y005889D01*
X027199Y007157D02*
X027494Y007157D01*
X027653Y006999D02*
X027301Y006999D01*
X027301Y006840D02*
X027811Y006840D01*
X027970Y006682D02*
X027291Y006682D01*
X027291Y006523D02*
X028129Y006523D01*
X028287Y006365D02*
X027291Y006365D01*
X027291Y006206D02*
X028446Y006206D01*
X028604Y006048D02*
X027291Y006048D01*
X027291Y005889D02*
X028763Y005889D01*
X029051Y006523D02*
X039112Y006523D01*
X039271Y006682D02*
X038276Y006682D01*
X038830Y006840D02*
X039429Y006840D01*
X039390Y006999D02*
X039588Y006999D01*
X039456Y007157D02*
X039746Y007157D01*
X039905Y007316D02*
X039456Y007316D01*
X039456Y007474D02*
X039961Y007474D01*
X039961Y007633D02*
X039456Y007633D01*
X039395Y007791D02*
X039961Y007791D01*
X039961Y007950D02*
X039456Y007950D01*
X039456Y008109D02*
X039961Y008109D01*
X039961Y008267D02*
X039456Y008267D01*
X039456Y008426D02*
X039961Y008426D01*
X039961Y008584D02*
X039369Y008584D01*
X038593Y008584D02*
X038321Y008584D01*
X036751Y007633D02*
X036751Y007633D01*
X036751Y007474D02*
X036686Y007474D01*
X036722Y007316D02*
X036527Y007316D01*
X036563Y007157D02*
X036368Y007157D01*
X036210Y006999D02*
X036561Y006999D01*
X036561Y006840D02*
X036051Y006840D01*
X036687Y006682D02*
X028892Y006682D01*
X030451Y006840D02*
X030911Y006840D01*
X030753Y006999D02*
X030610Y006999D01*
X030901Y007472D02*
X031173Y007201D01*
X031750Y007201D01*
X031461Y007490D01*
X031461Y007635D01*
X031446Y007651D01*
X031422Y007627D01*
X031381Y007604D01*
X031335Y007591D01*
X031182Y007591D01*
X031182Y008171D01*
X031181Y008171D01*
X031181Y007591D01*
X031028Y007591D01*
X030982Y007604D01*
X030941Y007627D01*
X030917Y007651D01*
X030901Y007635D01*
X030901Y007473D01*
X030901Y007472D01*
X030901Y007474D02*
X031477Y007474D01*
X031636Y007316D02*
X031058Y007316D01*
X030461Y007474D02*
X028399Y007474D01*
X028558Y007316D02*
X030305Y007316D01*
X030427Y007633D02*
X030461Y007633D01*
X030182Y007633D02*
X030181Y007633D01*
X030181Y007791D02*
X030182Y007791D01*
X030181Y007950D02*
X030182Y007950D01*
X029682Y007950D02*
X029681Y007950D01*
X029681Y007791D02*
X029682Y007791D01*
X029681Y007633D02*
X029682Y007633D01*
X029928Y007633D02*
X029935Y007633D01*
X029435Y007633D02*
X028241Y007633D01*
X028082Y007791D02*
X029371Y007791D01*
X029371Y007950D02*
X027924Y007950D01*
X029681Y008109D02*
X029682Y008109D01*
X029681Y008267D02*
X029682Y008267D01*
X029681Y008426D02*
X029682Y008426D01*
X029681Y008584D02*
X029682Y008584D01*
X030181Y008584D02*
X030182Y008584D01*
X030181Y008426D02*
X030182Y008426D01*
X030181Y008267D02*
X030182Y008267D01*
X030181Y008109D02*
X030182Y008109D01*
X031181Y008109D02*
X031182Y008109D01*
X031181Y008267D02*
X031182Y008267D01*
X031181Y008426D02*
X031182Y008426D01*
X031181Y008584D02*
X031182Y008584D01*
X032971Y008584D02*
X034221Y008584D01*
X034221Y008426D02*
X032971Y008426D01*
X032971Y008267D02*
X034221Y008267D01*
X034221Y008171D02*
X034221Y007748D01*
X034234Y007702D01*
X034257Y007661D01*
X034291Y007627D01*
X034332Y007604D01*
X034378Y007591D01*
X034531Y007591D01*
X034531Y008171D01*
X034221Y008171D01*
X034221Y008109D02*
X032971Y008109D01*
X032971Y007950D02*
X034221Y007950D01*
X034221Y007791D02*
X032971Y007791D01*
X032899Y007633D02*
X034285Y007633D01*
X034531Y007633D02*
X034532Y007633D01*
X034531Y007791D02*
X034532Y007791D01*
X034531Y007950D02*
X034532Y007950D01*
X034531Y008109D02*
X034532Y008109D01*
X034531Y008267D02*
X034532Y008267D01*
X034531Y008426D02*
X034532Y008426D01*
X034531Y008584D02*
X034532Y008584D01*
X032464Y007633D02*
X032399Y007633D01*
X031964Y007633D02*
X031941Y007633D01*
X031461Y007633D02*
X031427Y007633D01*
X031182Y007633D02*
X031181Y007633D01*
X031181Y007791D02*
X031182Y007791D01*
X031181Y007950D02*
X031182Y007950D01*
X030935Y007633D02*
X030901Y007633D01*
X032099Y007474D02*
X034563Y007474D01*
X037276Y006682D02*
X037687Y006682D01*
X037561Y006840D02*
X037401Y006840D01*
X037401Y006999D02*
X037561Y006999D01*
X037410Y007157D02*
X037399Y007157D01*
X041150Y006092D02*
X041217Y006126D01*
X041289Y006150D01*
X041364Y006161D01*
X041561Y006161D01*
X041561Y005702D01*
X041601Y005702D01*
X041601Y006161D01*
X041799Y006161D01*
X041874Y006150D01*
X041946Y006126D01*
X042013Y006092D01*
X042074Y006048D01*
X042194Y005889D02*
X042301Y005889D01*
X041601Y005889D02*
X041561Y005889D01*
X041561Y006048D02*
X041601Y006048D01*
X041150Y006092D02*
X041089Y006048D01*
X041561Y005730D02*
X041601Y005730D01*
X041601Y005572D02*
X041561Y005572D01*
X041561Y005413D02*
X041601Y005413D01*
X041601Y005255D02*
X041561Y005255D01*
X041981Y005255D02*
X042301Y005255D01*
X042301Y005413D02*
X042160Y005413D01*
X042230Y005572D02*
X042301Y005572D01*
X042301Y005730D02*
X042240Y005730D01*
X042861Y005730D02*
X042961Y005730D01*
X042961Y005607D02*
X043207Y005361D01*
X043555Y005361D01*
X043801Y005607D01*
X043801Y005955D01*
X043555Y006201D01*
X043207Y006201D01*
X042961Y005955D01*
X042961Y005607D01*
X042997Y005572D02*
X042861Y005572D01*
X042861Y005413D02*
X043156Y005413D01*
X042861Y005255D02*
X047146Y005255D01*
X047146Y005413D02*
X044607Y005413D01*
X044555Y005361D02*
X044801Y005607D01*
X044801Y005955D01*
X044555Y006201D01*
X044207Y006201D01*
X043961Y005955D01*
X043961Y005607D01*
X044207Y005361D01*
X044555Y005361D01*
X044766Y005572D02*
X047146Y005572D01*
X047146Y005730D02*
X044801Y005730D01*
X044801Y005889D02*
X047146Y005889D01*
X047146Y006048D02*
X044709Y006048D01*
X044054Y006048D02*
X043709Y006048D01*
X043801Y005889D02*
X043961Y005889D01*
X043961Y005730D02*
X043801Y005730D01*
X043766Y005572D02*
X043997Y005572D01*
X044156Y005413D02*
X043607Y005413D01*
X042861Y005096D02*
X047146Y005096D01*
X047146Y004938D02*
X042861Y004938D01*
X042861Y004779D02*
X047146Y004779D01*
X047146Y004621D02*
X042861Y004621D01*
X042861Y004462D02*
X047146Y004462D01*
X047146Y004304D02*
X042861Y004304D01*
X042861Y004145D02*
X047146Y004145D01*
X047146Y003986D02*
X042861Y003986D01*
X042861Y003828D02*
X047146Y003828D01*
X047146Y003669D02*
X042861Y003669D01*
X042861Y003511D02*
X047146Y003511D01*
X042301Y004462D02*
X042168Y004462D01*
X042221Y004621D02*
X042301Y004621D01*
X042301Y004779D02*
X042219Y004779D01*
X042153Y004938D02*
X042301Y004938D01*
X042301Y005096D02*
X041962Y005096D01*
X042861Y005889D02*
X042961Y005889D01*
X043054Y006048D02*
X042861Y006048D01*
X042861Y006206D02*
X047146Y006206D01*
X047146Y006365D02*
X044559Y006365D01*
X044555Y006361D02*
X044801Y006607D01*
X044801Y006955D01*
X044555Y007201D01*
X044207Y007201D01*
X043961Y006955D01*
X043961Y006607D01*
X044207Y006361D01*
X044555Y006361D01*
X044717Y006523D02*
X047146Y006523D01*
X047146Y006682D02*
X044801Y006682D01*
X044801Y006840D02*
X047146Y006840D01*
X047146Y006999D02*
X044758Y006999D01*
X044599Y007157D02*
X047146Y007157D01*
X047146Y007316D02*
X042861Y007316D01*
X042861Y007474D02*
X044094Y007474D01*
X044668Y007474D02*
X045066Y007474D01*
X044941Y007599D02*
X045199Y007341D01*
X045381Y007341D01*
X045381Y007781D01*
X045382Y007781D01*
X045382Y007782D01*
X045381Y007782D01*
X045381Y007781D01*
X044941Y007781D01*
X044941Y007599D01*
X044941Y007633D02*
X044801Y007633D01*
X044801Y007791D02*
X044941Y007791D01*
X044941Y007950D02*
X044801Y007950D01*
X044381Y007781D02*
X043681Y007781D01*
X043490Y007633D02*
X042861Y007633D01*
X042861Y007791D02*
X043077Y007791D01*
X042919Y007950D02*
X042861Y007950D01*
X042301Y007950D02*
X042163Y007950D01*
X042301Y007791D02*
X042022Y007791D01*
X041925Y007633D02*
X042301Y007633D01*
X041601Y007633D02*
X041561Y007633D01*
X041561Y007474D02*
X041601Y007474D01*
X041601Y007316D02*
X041561Y007316D01*
X041561Y007157D02*
X041601Y007157D01*
X041601Y006999D02*
X041561Y006999D01*
X042207Y006999D02*
X042301Y006999D01*
X042301Y007157D02*
X042241Y007157D01*
X042222Y007316D02*
X042301Y007316D01*
X042301Y007474D02*
X042142Y007474D01*
X042861Y007157D02*
X043135Y007157D01*
X043199Y007221D02*
X042941Y006964D01*
X042941Y006782D01*
X043381Y006782D01*
X043381Y007221D01*
X043199Y007221D01*
X043382Y007221D02*
X043382Y006782D01*
X043381Y006782D01*
X043381Y006781D01*
X042941Y006781D01*
X042941Y006599D01*
X043199Y006341D01*
X043381Y006341D01*
X043381Y006781D01*
X043382Y006781D01*
X043382Y006782D01*
X043821Y006782D01*
X043821Y006964D01*
X043564Y007221D01*
X043382Y007221D01*
X043381Y007157D02*
X043382Y007157D01*
X043381Y006999D02*
X043382Y006999D01*
X043628Y007157D02*
X044163Y007157D01*
X044005Y006999D02*
X043786Y006999D01*
X042977Y006999D02*
X042861Y006999D01*
X042861Y006840D02*
X042941Y006840D01*
X042941Y006682D02*
X042861Y006682D01*
X042861Y006523D02*
X043017Y006523D01*
X042861Y006365D02*
X043176Y006365D01*
X043381Y006365D02*
X043382Y006365D01*
X043382Y006341D02*
X043564Y006341D01*
X043821Y006599D01*
X043821Y006781D01*
X043382Y006781D01*
X043382Y006341D01*
X043587Y006365D02*
X044204Y006365D01*
X044046Y006523D02*
X043745Y006523D01*
X043821Y006682D02*
X043961Y006682D01*
X043961Y006840D02*
X043821Y006840D01*
X043382Y006840D02*
X043381Y006840D01*
X043381Y006682D02*
X043382Y006682D01*
X043381Y006523D02*
X043382Y006523D01*
X045382Y007341D02*
X045564Y007341D01*
X045821Y007599D01*
X045821Y007781D01*
X045382Y007781D01*
X045382Y007341D01*
X045381Y007474D02*
X045382Y007474D01*
X045697Y007474D02*
X047146Y007474D01*
X047146Y007633D02*
X045821Y007633D01*
X045821Y007791D02*
X047146Y007791D01*
X047146Y007950D02*
X045821Y007950D01*
X045382Y007950D02*
X045381Y007950D01*
X045381Y007791D02*
X045382Y007791D01*
X045381Y007633D02*
X045382Y007633D01*
X045381Y008584D02*
X045382Y008584D01*
X045056Y008584D02*
X044678Y008584D01*
X042301Y008584D02*
X041991Y008584D01*
X042158Y008426D02*
X042301Y008426D01*
X042301Y008267D02*
X042221Y008267D01*
X042221Y008109D02*
X042301Y008109D01*
X042224Y008743D02*
X041904Y008743D01*
X039029Y009535D02*
X038933Y009535D01*
X038933Y009694D02*
X039029Y009694D01*
X038933Y009853D02*
X034076Y009853D01*
X034076Y010011D02*
X038486Y010011D01*
X038487Y010170D02*
X038321Y010170D01*
X039456Y010487D02*
X042993Y010487D01*
X043570Y010487D02*
X043993Y010487D01*
X044570Y010487D02*
X045922Y010487D01*
X045841Y010645D02*
X040252Y010645D01*
X040337Y010804D02*
X045821Y010804D01*
X045856Y010962D02*
X040335Y010962D01*
X039627Y010962D02*
X039456Y010962D01*
X039456Y010804D02*
X039626Y010804D01*
X039711Y010645D02*
X039456Y010645D01*
X040261Y011121D02*
X045962Y011121D01*
X046461Y011121D02*
X046501Y011121D01*
X047001Y011121D02*
X047146Y011121D01*
X047146Y011279D02*
X040244Y011279D01*
X040121Y011438D02*
X047146Y011438D01*
X047146Y011597D02*
X039962Y011597D01*
X034241Y010962D02*
X033991Y010962D01*
X034056Y010804D02*
X034241Y010804D01*
X034241Y010645D02*
X034056Y010645D01*
X034056Y010487D02*
X034241Y010487D01*
X034241Y010328D02*
X034056Y010328D01*
X034025Y010170D02*
X034241Y010170D01*
X033138Y010170D02*
X032971Y010170D01*
X046461Y010487D02*
X046501Y010487D01*
X046501Y010645D02*
X046461Y010645D01*
X046461Y010804D02*
X046501Y010804D01*
X046501Y010962D02*
X046461Y010962D01*
X047107Y010962D02*
X047146Y010962D01*
X047141Y010804D02*
X047146Y010804D01*
X047146Y010645D02*
X047122Y010645D01*
X047146Y010487D02*
X047041Y010487D01*
X047146Y001767D02*
X043876Y001767D01*
X043973Y001608D02*
X047146Y001608D01*
X047146Y001450D02*
X043991Y001450D01*
X043946Y001291D02*
X047146Y001291D01*
X047146Y001133D02*
X043812Y001133D01*
X043654Y000974D02*
X047146Y000974D01*
X047146Y000816D02*
X043495Y000816D01*
X043337Y000657D02*
X047146Y000657D01*
X047146Y000499D02*
X043128Y000499D01*
D20*
X025381Y005081D02*
X025381Y007281D01*
X025581Y007481D01*
X027481Y007481D01*
X028881Y006081D01*
X039281Y006081D01*
X040381Y007181D01*
X040381Y009481D01*
X040881Y009981D01*
X042281Y009981D01*
X043081Y009181D01*
X043281Y009181D01*
X040781Y010181D02*
X040181Y009581D01*
X040181Y007281D01*
X039181Y006281D01*
X028981Y006281D01*
X027581Y007681D01*
X025481Y007681D01*
X024781Y006981D01*
X024781Y004681D01*
X025241Y005022D02*
X025322Y005022D01*
X025381Y005081D01*
X025381Y007881D02*
X021681Y004181D01*
X011981Y004181D01*
X009981Y002181D01*
X005881Y002181D01*
X009781Y003781D02*
X010781Y003781D01*
X011681Y004681D01*
X018281Y004681D01*
X018631Y005031D01*
X018631Y005771D01*
X019131Y005771D02*
X019131Y005231D01*
X019481Y004881D01*
X020381Y004881D01*
X020781Y005281D01*
X020781Y006781D01*
X020131Y006631D02*
X020131Y005771D01*
X019631Y005771D02*
X019631Y006431D01*
X019281Y006781D01*
X016481Y006781D01*
X015781Y006081D01*
X015781Y005581D01*
X015381Y005181D01*
X010681Y005181D01*
X009781Y005381D02*
X009781Y005581D01*
X011081Y006881D01*
X012381Y006881D01*
X012931Y007431D01*
X012931Y008191D01*
X012431Y008191D02*
X012431Y007631D01*
X012281Y007481D01*
X011281Y007481D01*
X009981Y006181D01*
X006681Y006181D01*
X005881Y006981D01*
X009781Y006981D02*
X010991Y008191D01*
X011431Y008191D01*
X011931Y008191D02*
X011931Y008831D01*
X012081Y008981D01*
X013431Y008191D02*
X013431Y007531D01*
X013481Y007481D01*
X013931Y007531D02*
X013981Y007481D01*
X013931Y007531D02*
X013931Y008191D01*
X014431Y008191D02*
X014431Y007531D01*
X014481Y007481D01*
X014881Y007081D02*
X015481Y007681D01*
X015481Y008481D01*
X015581Y008581D01*
X015981Y008581D02*
X015981Y007881D01*
X014981Y006881D01*
X014181Y006881D01*
X013931Y006631D01*
X013931Y005771D01*
X013431Y005771D02*
X013431Y006531D01*
X013381Y006481D01*
X012931Y006431D02*
X012881Y006481D01*
X012931Y006431D02*
X012931Y005771D01*
X012431Y005771D02*
X012431Y006531D01*
X012981Y007081D01*
X014881Y007081D01*
X015171Y005771D02*
X016381Y006981D01*
X019781Y006981D01*
X019981Y007181D01*
X021081Y007181D01*
X023081Y009181D01*
X027181Y009181D01*
X027581Y009581D01*
X027581Y010281D01*
X026581Y010281D02*
X026581Y010781D01*
X026781Y010981D01*
X027881Y010981D01*
X028081Y010781D01*
X028081Y009781D01*
X028781Y009081D01*
X031781Y009081D01*
X032181Y008681D01*
X032181Y008171D01*
X031681Y008171D02*
X031681Y007581D01*
X032081Y007181D01*
X034581Y007181D01*
X035031Y007631D01*
X035031Y008171D01*
X035031Y008731D01*
X035181Y008881D01*
X035881Y008881D01*
X036031Y008731D01*
X036031Y008171D01*
X036531Y008171D02*
X036531Y007631D01*
X035881Y006981D01*
X031081Y006981D01*
X030681Y007381D01*
X030281Y006981D01*
X028581Y006981D01*
X027681Y007881D01*
X025381Y007881D01*
X020881Y007681D02*
X020681Y007481D01*
X019781Y007481D01*
X019631Y007631D01*
X019631Y008191D01*
X019581Y008981D02*
X016381Y008981D01*
X015981Y008581D01*
X019781Y006981D02*
X020131Y006631D01*
X015171Y005771D02*
X014931Y005771D01*
X014431Y005771D02*
X014431Y006431D01*
X014381Y006481D01*
X011931Y006431D02*
X011931Y005771D01*
X011931Y006431D02*
X011881Y006481D01*
X028581Y009581D02*
X028881Y009281D01*
X032081Y009281D01*
X032681Y008681D01*
X032681Y008171D01*
X030681Y008171D02*
X030681Y007381D01*
X028581Y009581D02*
X028581Y010281D01*
X040781Y010181D02*
X043281Y010181D01*
D21*
X025241Y005022D03*
X024781Y004681D03*
X020781Y006781D03*
X020881Y007681D03*
X019581Y008981D03*
X015581Y008581D03*
X012081Y008981D03*
X013481Y007481D03*
X013981Y007481D03*
X014481Y007481D03*
X014381Y006481D03*
X013381Y006481D03*
X012881Y006481D03*
X011881Y006481D03*
X010681Y005181D03*
D22*
X039981Y010881D03*
M02*
