G75*
G70*
%OFA0B0*%
%FSLAX24Y24*%
%IPPOS*%
%LPD*%
%AMOC8*
5,1,8,0,0,1.08239X$1,22.5*
%
%ADD10C,0.0000*%
%ADD11C,0.0060*%
%ADD12C,0.0050*%
%ADD13C,0.0040*%
%ADD14C,0.0030*%
%ADD15C,0.0160*%
%ADD16R,0.0200X0.0200*%
%ADD17C,0.0200*%
%ADD18C,0.0080*%
D10*
X000202Y000181D02*
X047426Y000181D01*
X047426Y011992D01*
X000202Y011992D01*
X000202Y000181D01*
D11*
X000631Y001681D02*
X000631Y010681D01*
X000881Y010681D01*
X001881Y010681D01*
X001881Y001681D01*
X000881Y001681D01*
X000631Y001681D01*
X000881Y001681D02*
X000881Y010681D01*
X003381Y010681D02*
X003381Y010931D01*
X006381Y010931D01*
X006381Y010681D01*
X006381Y009681D01*
X003381Y009681D01*
X003381Y010681D01*
X006381Y010681D01*
X007281Y010681D02*
X007281Y010931D01*
X010281Y010931D01*
X010281Y010681D01*
X010281Y009681D01*
X007281Y009681D01*
X007281Y010681D01*
X010281Y010681D01*
X014681Y010831D02*
X017081Y010831D01*
X016131Y010481D02*
X016131Y010181D01*
X016381Y010181D01*
X016131Y010181D02*
X016131Y009881D01*
X015981Y009881D02*
X015781Y009881D01*
X015781Y010481D01*
X015981Y010481D01*
X015981Y009881D01*
X015631Y009881D02*
X015631Y010181D01*
X015381Y010181D01*
X015631Y010181D02*
X015631Y010481D01*
X014681Y010831D02*
X014631Y010829D01*
X014582Y010823D01*
X014533Y010814D01*
X014485Y010801D01*
X014438Y010784D01*
X014393Y010764D01*
X014349Y010740D01*
X014307Y010713D01*
X014267Y010682D01*
X014230Y010649D01*
X014196Y010613D01*
X014164Y010575D01*
X014135Y010534D01*
X014110Y010492D01*
X014088Y010447D01*
X014069Y010401D01*
X014054Y010353D01*
X014043Y010305D01*
X014035Y010256D01*
X014031Y010206D01*
X014031Y010156D01*
X014035Y010106D01*
X014043Y010057D01*
X014054Y010009D01*
X014069Y009961D01*
X014088Y009915D01*
X014110Y009870D01*
X014135Y009828D01*
X014164Y009787D01*
X014196Y009749D01*
X014230Y009713D01*
X014267Y009680D01*
X014307Y009649D01*
X014349Y009622D01*
X014393Y009598D01*
X014438Y009578D01*
X014485Y009561D01*
X014533Y009548D01*
X014582Y009539D01*
X014631Y009533D01*
X014681Y009531D01*
X017081Y009531D01*
X017131Y009533D01*
X017180Y009539D01*
X017229Y009548D01*
X017277Y009561D01*
X017324Y009578D01*
X017369Y009598D01*
X017413Y009622D01*
X017455Y009649D01*
X017495Y009680D01*
X017532Y009713D01*
X017566Y009749D01*
X017598Y009787D01*
X017627Y009828D01*
X017652Y009870D01*
X017674Y009915D01*
X017693Y009961D01*
X017708Y010009D01*
X017719Y010057D01*
X017727Y010106D01*
X017731Y010156D01*
X017731Y010206D01*
X017727Y010256D01*
X017719Y010305D01*
X017708Y010353D01*
X017693Y010401D01*
X017674Y010447D01*
X017652Y010492D01*
X017627Y010534D01*
X017598Y010575D01*
X017566Y010613D01*
X017532Y010649D01*
X017495Y010682D01*
X017455Y010713D01*
X017413Y010740D01*
X017369Y010764D01*
X017324Y010784D01*
X017277Y010801D01*
X017229Y010814D01*
X017180Y010823D01*
X017131Y010829D01*
X017081Y010831D01*
X022281Y010781D02*
X022281Y009781D01*
X025281Y009781D01*
X025281Y010781D01*
X025281Y011031D01*
X022281Y011031D01*
X022281Y010781D01*
X025281Y010781D01*
X026081Y010781D02*
X026081Y011031D01*
X029081Y011031D01*
X029081Y010781D01*
X029081Y009781D01*
X026081Y009781D01*
X026081Y010781D01*
X029081Y010781D01*
X040831Y009681D02*
X041081Y009681D01*
X042081Y009681D01*
X042081Y006681D01*
X041081Y006681D01*
X040831Y006681D01*
X040831Y009681D01*
X041081Y009681D02*
X041081Y006681D01*
X041081Y006181D02*
X040831Y006181D01*
X040831Y003181D01*
X041081Y003181D01*
X041081Y006181D01*
X042081Y006181D01*
X042081Y003181D01*
X041081Y003181D01*
X039981Y002881D02*
X032981Y002881D01*
X032981Y003881D01*
X032981Y004131D01*
X039981Y004131D01*
X039981Y003881D01*
X039981Y002881D01*
X038119Y002059D02*
X038119Y001952D01*
X038442Y001952D02*
X038442Y001311D01*
X038442Y001525D02*
X038762Y001311D01*
X038979Y001418D02*
X039086Y001311D01*
X039406Y001311D01*
X039406Y001205D02*
X039299Y001098D01*
X039192Y001098D01*
X039406Y001205D02*
X039406Y001738D01*
X038979Y001738D02*
X038979Y001418D01*
X038762Y001738D02*
X038442Y001525D01*
X038119Y001738D02*
X038012Y001738D01*
X038119Y001738D02*
X038119Y001311D01*
X038012Y001311D02*
X038226Y001311D01*
X037795Y001311D02*
X037581Y001525D01*
X037688Y001525D02*
X037368Y001525D01*
X037688Y001525D02*
X037795Y001632D01*
X037795Y001845D01*
X037688Y001952D01*
X037368Y001952D01*
X037368Y001311D01*
X036506Y001525D02*
X036079Y001525D01*
X036079Y001418D02*
X036079Y001632D01*
X036185Y001738D01*
X036399Y001738D01*
X036506Y001632D01*
X036506Y001525D01*
X036185Y001311D02*
X036079Y001418D01*
X036185Y001311D02*
X036399Y001311D01*
X035217Y001418D02*
X035217Y001632D01*
X035110Y001738D01*
X034896Y001738D01*
X034790Y001632D01*
X034790Y001418D01*
X034896Y001311D01*
X035110Y001311D01*
X035217Y001418D01*
X034573Y001311D02*
X034360Y001311D01*
X034467Y001311D02*
X034467Y001738D01*
X034360Y001738D01*
X034467Y001952D02*
X034467Y002059D01*
X034037Y001952D02*
X034037Y001311D01*
X033930Y001311D02*
X034144Y001311D01*
X033713Y001311D02*
X033713Y001738D01*
X033286Y001738D02*
X033286Y001418D01*
X033392Y001311D01*
X033713Y001311D01*
X033069Y001311D02*
X032856Y001311D01*
X032963Y001311D02*
X032963Y001738D01*
X032856Y001738D01*
X032638Y001632D02*
X032425Y001632D01*
X032638Y001632D02*
X032638Y001418D01*
X032532Y001311D01*
X032318Y001311D01*
X032211Y001418D01*
X032211Y001845D01*
X032318Y001952D01*
X032532Y001952D01*
X032638Y001845D01*
X032963Y001952D02*
X032963Y002059D01*
X033930Y001952D02*
X034037Y001952D01*
X030381Y002881D02*
X025381Y002881D01*
X025381Y003881D01*
X025381Y004131D01*
X030381Y004131D01*
X030381Y003881D01*
X030381Y002881D01*
X030381Y003881D02*
X025381Y003881D01*
X019081Y003881D02*
X019081Y002881D01*
X012081Y002881D01*
X012081Y003881D01*
X012081Y004131D01*
X019081Y004131D01*
X019081Y003881D01*
X012081Y003881D01*
X010281Y004281D02*
X010281Y004531D01*
X007281Y004531D01*
X007281Y004281D01*
X010281Y004281D01*
X010281Y003281D01*
X007281Y003281D01*
X007281Y004281D01*
X006381Y004281D02*
X006381Y004531D01*
X003381Y004531D01*
X003381Y004281D01*
X006381Y004281D01*
X006381Y003281D01*
X003381Y003281D01*
X003381Y004281D01*
X003381Y004881D02*
X006381Y004881D01*
X006381Y005881D01*
X006381Y006131D01*
X003381Y006131D01*
X003381Y005881D01*
X006381Y005881D01*
X007281Y005881D02*
X007281Y006131D01*
X010281Y006131D01*
X010281Y005881D01*
X010281Y004881D01*
X007281Y004881D01*
X007281Y005881D01*
X010281Y005881D01*
X010281Y006481D02*
X010281Y007481D01*
X010281Y007731D01*
X007281Y007731D01*
X007281Y007481D01*
X010281Y007481D01*
X010281Y008081D02*
X010281Y009081D01*
X010281Y009331D01*
X007281Y009331D01*
X007281Y009081D01*
X010281Y009081D01*
X007281Y009081D02*
X007281Y008081D01*
X010281Y008081D01*
X007281Y007481D02*
X007281Y006481D01*
X010281Y006481D01*
X006381Y006481D02*
X006381Y007481D01*
X006381Y007731D01*
X003381Y007731D01*
X003381Y007481D01*
X006381Y007481D01*
X006381Y008081D02*
X006381Y009081D01*
X006381Y009331D01*
X003381Y009331D01*
X003381Y009081D01*
X006381Y009081D01*
X003381Y009081D02*
X003381Y008081D01*
X006381Y008081D01*
X003381Y007481D02*
X003381Y006481D01*
X006381Y006481D01*
X003381Y005881D02*
X003381Y004881D01*
X003381Y002931D02*
X006381Y002931D01*
X006381Y002681D01*
X006381Y001681D01*
X003381Y001681D01*
X003381Y002681D01*
X003381Y002931D01*
X003381Y002681D02*
X006381Y002681D01*
X012081Y002381D02*
X012081Y001381D01*
X012081Y001131D01*
X017081Y001131D01*
X017081Y001381D01*
X012081Y001381D01*
X012081Y002381D02*
X017081Y002381D01*
X017081Y001381D01*
X024411Y001418D02*
X024518Y001311D01*
X024732Y001311D01*
X024838Y001418D01*
X024838Y001952D01*
X025056Y001738D02*
X025269Y001952D01*
X025483Y001738D01*
X025483Y001311D01*
X025700Y001525D02*
X025914Y001311D01*
X026127Y001525D01*
X026127Y001952D01*
X025700Y001952D02*
X025700Y001525D01*
X025483Y001632D02*
X025056Y001632D01*
X025056Y001738D02*
X025056Y001311D01*
X024411Y001418D02*
X024411Y001952D01*
X026990Y001952D02*
X026990Y001311D01*
X027310Y001311D01*
X027417Y001418D01*
X027417Y001845D01*
X027310Y001952D01*
X026990Y001952D01*
X027634Y001845D02*
X027741Y001952D01*
X027954Y001952D01*
X028061Y001845D01*
X027634Y001418D01*
X027741Y001311D01*
X027954Y001311D01*
X028061Y001418D01*
X028061Y001845D01*
X027634Y001845D02*
X027634Y001418D01*
X028279Y001418D02*
X028279Y001311D01*
X028385Y001311D01*
X028385Y001418D01*
X028279Y001418D01*
X028601Y001418D02*
X028708Y001311D01*
X028921Y001311D01*
X029028Y001418D01*
X029028Y001525D01*
X028921Y001632D01*
X028601Y001632D01*
X028601Y001418D01*
X028601Y001632D02*
X028814Y001845D01*
X029028Y001952D01*
X032981Y003881D02*
X039981Y003881D01*
X044731Y007631D02*
X044781Y007581D01*
X044981Y007581D01*
X045031Y007631D01*
X045049Y007652D01*
X045065Y007675D01*
X045077Y007700D01*
X045086Y007726D01*
X045091Y007753D01*
X045093Y007781D01*
X045091Y007809D01*
X045086Y007836D01*
X045077Y007862D01*
X045065Y007887D01*
X045049Y007910D01*
X045031Y007931D01*
X044981Y007981D01*
X044781Y007981D01*
X044731Y007931D01*
X044881Y007881D02*
X044864Y007879D01*
X044847Y007875D01*
X044831Y007868D01*
X044817Y007858D01*
X044804Y007845D01*
X044794Y007831D01*
X044787Y007815D01*
X044783Y007798D01*
X044781Y007781D01*
X044881Y007681D02*
X044898Y007683D01*
X044915Y007687D01*
X044931Y007694D01*
X044945Y007704D01*
X044958Y007717D01*
X044968Y007731D01*
X044975Y007747D01*
X044979Y007764D01*
X044981Y007781D01*
X044981Y008681D02*
X044781Y008681D01*
X044731Y008731D01*
X045031Y008731D02*
X045049Y008752D01*
X045065Y008775D01*
X045077Y008800D01*
X045086Y008826D01*
X045091Y008853D01*
X045093Y008881D01*
X045091Y008909D01*
X045086Y008936D01*
X045077Y008962D01*
X045065Y008987D01*
X045049Y009010D01*
X045031Y009031D01*
X044981Y009081D01*
X044781Y009081D01*
X044731Y009031D01*
X044881Y008981D02*
X044864Y008979D01*
X044847Y008975D01*
X044831Y008968D01*
X044817Y008958D01*
X044804Y008945D01*
X044794Y008931D01*
X044787Y008915D01*
X044783Y008898D01*
X044781Y008881D01*
X044881Y008781D02*
X044898Y008783D01*
X044915Y008787D01*
X044931Y008794D01*
X044945Y008804D01*
X044958Y008817D01*
X044968Y008831D01*
X044975Y008847D01*
X044979Y008864D01*
X044981Y008881D01*
X045031Y008731D02*
X044981Y008681D01*
X045731Y009281D02*
X045731Y011281D01*
X045981Y011281D01*
X046981Y011281D01*
X046981Y009281D01*
X045981Y009281D01*
X045731Y009281D01*
X045981Y009281D02*
X045981Y011281D01*
D12*
X023256Y007956D02*
X020107Y007956D01*
X020107Y004807D01*
X023256Y004807D01*
X023256Y007956D01*
X012586Y010221D02*
X012511Y010146D01*
X012361Y010146D01*
X012286Y010221D01*
X012286Y010297D01*
X012361Y010372D01*
X012511Y010372D01*
X012586Y010297D01*
X012586Y010221D01*
X012511Y010372D02*
X012586Y010447D01*
X012586Y010522D01*
X012511Y010597D01*
X012361Y010597D01*
X012286Y010522D01*
X012286Y010447D01*
X012361Y010372D01*
X012126Y010372D02*
X012051Y010297D01*
X011826Y010297D01*
X011976Y010297D02*
X012126Y010146D01*
X011826Y010146D02*
X011826Y010597D01*
X012051Y010597D01*
X012126Y010522D01*
X012126Y010372D01*
D13*
X011169Y010201D02*
X010862Y010201D01*
X011015Y010201D02*
X011015Y010662D01*
X010862Y010508D01*
X010708Y010585D02*
X010632Y010662D01*
X010478Y010662D01*
X010401Y010585D01*
X010401Y010508D01*
X010478Y010432D01*
X010632Y010432D01*
X010708Y010355D01*
X010708Y010278D01*
X010632Y010201D01*
X010478Y010201D01*
X010401Y010278D01*
X006861Y010311D02*
X006861Y010081D01*
X006401Y010081D01*
X006401Y010311D01*
X006478Y010388D01*
X006785Y010388D01*
X006861Y010311D01*
X006861Y010541D02*
X006861Y010848D01*
X006861Y010694D02*
X006401Y010694D01*
X006555Y010541D01*
X006631Y009927D02*
X006708Y009850D01*
X006708Y009620D01*
X006861Y009620D02*
X006401Y009620D01*
X006401Y009850D01*
X006478Y009927D01*
X006631Y009927D01*
X006708Y009774D02*
X006861Y009927D01*
X006861Y009248D02*
X006861Y008941D01*
X006555Y009248D01*
X006478Y009248D01*
X006401Y009171D01*
X006401Y009018D01*
X006478Y008941D01*
X006478Y008788D02*
X006401Y008711D01*
X006401Y008481D01*
X006861Y008481D01*
X006861Y008711D01*
X006785Y008788D01*
X006478Y008788D01*
X006478Y008327D02*
X006631Y008327D01*
X006708Y008250D01*
X006708Y008020D01*
X006861Y008020D02*
X006401Y008020D01*
X006401Y008250D01*
X006478Y008327D01*
X006708Y008174D02*
X006861Y008327D01*
X006785Y007648D02*
X006861Y007571D01*
X006861Y007418D01*
X006785Y007341D01*
X006785Y007188D02*
X006478Y007188D01*
X006401Y007111D01*
X006401Y006881D01*
X006861Y006881D01*
X006861Y007111D01*
X006785Y007188D01*
X006478Y007341D02*
X006401Y007418D01*
X006401Y007571D01*
X006478Y007648D01*
X006555Y007648D01*
X006631Y007571D01*
X006708Y007648D01*
X006785Y007648D01*
X006631Y007571D02*
X006631Y007494D01*
X006631Y006727D02*
X006708Y006650D01*
X006708Y006420D01*
X006861Y006420D02*
X006401Y006420D01*
X006401Y006650D01*
X006478Y006727D01*
X006631Y006727D01*
X006708Y006574D02*
X006861Y006727D01*
X006631Y006048D02*
X006631Y005741D01*
X006401Y005971D01*
X006861Y005971D01*
X006785Y005588D02*
X006478Y005588D01*
X006401Y005511D01*
X006401Y005281D01*
X006861Y005281D01*
X006861Y005511D01*
X006785Y005588D01*
X006861Y005127D02*
X006708Y004974D01*
X006708Y005050D02*
X006708Y004820D01*
X006861Y004820D02*
X006401Y004820D01*
X006401Y005050D01*
X006478Y005127D01*
X006631Y005127D01*
X006708Y005050D01*
X006631Y004448D02*
X006785Y004448D01*
X006861Y004371D01*
X006861Y004218D01*
X006785Y004141D01*
X006631Y004141D02*
X006555Y004294D01*
X006555Y004371D01*
X006631Y004448D01*
X006401Y004448D02*
X006401Y004141D01*
X006631Y004141D01*
X006478Y003988D02*
X006401Y003911D01*
X006401Y003681D01*
X006861Y003681D01*
X006861Y003911D01*
X006785Y003988D01*
X006478Y003988D01*
X006478Y003527D02*
X006631Y003527D01*
X006708Y003450D01*
X006708Y003220D01*
X006861Y003220D02*
X006401Y003220D01*
X006401Y003450D01*
X006478Y003527D01*
X006708Y003374D02*
X006861Y003527D01*
X006785Y002848D02*
X006708Y002848D01*
X006631Y002771D01*
X006631Y002541D01*
X006785Y002541D01*
X006861Y002618D01*
X006861Y002771D01*
X006785Y002848D01*
X006478Y002694D02*
X006631Y002541D01*
X006478Y002694D02*
X006401Y002848D01*
X006478Y002388D02*
X006401Y002311D01*
X006401Y002081D01*
X006861Y002081D01*
X006861Y002311D01*
X006785Y002388D01*
X006478Y002388D01*
X006478Y001927D02*
X006631Y001927D01*
X006708Y001850D01*
X006708Y001620D01*
X006861Y001620D02*
X006401Y001620D01*
X006401Y001850D01*
X006478Y001927D01*
X006708Y001774D02*
X006861Y001927D01*
X012160Y001062D02*
X012160Y000601D01*
X012620Y000601D02*
X012620Y001062D01*
X012850Y001062D01*
X012927Y000985D01*
X012927Y000832D01*
X012850Y000755D01*
X012620Y000755D01*
X012774Y000755D02*
X012927Y000601D01*
X013081Y000678D02*
X013157Y000601D01*
X013311Y000601D01*
X013387Y000678D01*
X013387Y000985D01*
X013311Y001062D01*
X013157Y001062D01*
X013081Y000985D01*
X013081Y000678D01*
X013541Y000678D02*
X013618Y000601D01*
X013771Y000601D01*
X013848Y000678D01*
X013848Y000832D01*
X013694Y000832D01*
X013541Y000985D02*
X013541Y000678D01*
X013541Y000985D02*
X013618Y001062D01*
X013771Y001062D01*
X013848Y000985D01*
X012467Y000985D02*
X012467Y000832D01*
X012390Y000755D01*
X012160Y000755D01*
X012390Y001062D02*
X012467Y000985D01*
X012390Y001062D02*
X012160Y001062D01*
X017720Y002301D02*
X017720Y002608D01*
X017874Y002762D01*
X018027Y002608D01*
X018027Y002301D01*
X018181Y002378D02*
X018257Y002301D01*
X018411Y002301D01*
X018488Y002378D01*
X018641Y002378D02*
X018718Y002301D01*
X018871Y002301D01*
X018948Y002378D01*
X018641Y002378D02*
X018641Y002685D01*
X018718Y002762D01*
X018871Y002762D01*
X018948Y002685D01*
X018488Y002685D02*
X018411Y002762D01*
X018257Y002762D01*
X018181Y002685D01*
X018181Y002378D01*
X018027Y002532D02*
X017720Y002532D01*
X011169Y003878D02*
X011092Y003801D01*
X010938Y003801D01*
X010862Y003878D01*
X010862Y004032D02*
X011015Y004108D01*
X011092Y004108D01*
X011169Y004032D01*
X011169Y003878D01*
X010862Y004032D02*
X010862Y004262D01*
X011169Y004262D01*
X010708Y004185D02*
X010632Y004262D01*
X010478Y004262D01*
X010401Y004185D01*
X010401Y004108D01*
X010478Y004032D01*
X010632Y004032D01*
X010708Y003955D01*
X010708Y003878D01*
X010632Y003801D01*
X010478Y003801D01*
X010401Y003878D01*
X010478Y005401D02*
X010401Y005478D01*
X010478Y005401D02*
X010632Y005401D01*
X010708Y005478D01*
X010708Y005555D01*
X010632Y005632D01*
X010478Y005632D01*
X010401Y005708D01*
X010401Y005785D01*
X010478Y005862D01*
X010632Y005862D01*
X010708Y005785D01*
X010862Y005632D02*
X011169Y005632D01*
X011092Y005862D02*
X010862Y005632D01*
X011092Y005401D02*
X011092Y005862D01*
X011092Y007001D02*
X010938Y007001D01*
X010862Y007078D01*
X010708Y007078D02*
X010632Y007001D01*
X010478Y007001D01*
X010401Y007078D01*
X010632Y007232D02*
X010708Y007155D01*
X010708Y007078D01*
X011092Y007001D02*
X011169Y007078D01*
X011169Y007155D01*
X011092Y007232D01*
X011015Y007232D01*
X011092Y007232D02*
X011169Y007308D01*
X011169Y007385D01*
X011092Y007462D01*
X010938Y007462D01*
X010862Y007385D01*
X010708Y007385D02*
X010632Y007462D01*
X010478Y007462D01*
X010401Y007385D01*
X010401Y007308D01*
X010478Y007232D01*
X010632Y007232D01*
X010632Y008601D02*
X010478Y008601D01*
X010401Y008678D01*
X010478Y008832D02*
X010632Y008832D01*
X010708Y008755D01*
X010708Y008678D01*
X010632Y008601D01*
X010862Y008601D02*
X011169Y008908D01*
X011169Y008985D01*
X011092Y009062D01*
X010938Y009062D01*
X010862Y008985D01*
X010708Y008985D02*
X010632Y009062D01*
X010478Y009062D01*
X010401Y008985D01*
X010401Y008908D01*
X010478Y008832D01*
X010862Y008601D02*
X011169Y008601D01*
X002461Y008860D02*
X002001Y009167D01*
X002001Y009320D02*
X002001Y009550D01*
X002078Y009627D01*
X002155Y009627D01*
X002231Y009550D01*
X002231Y009320D01*
X002461Y009320D02*
X002001Y009320D01*
X002001Y008860D02*
X002461Y009167D01*
X002461Y009320D02*
X002461Y009550D01*
X002385Y009627D01*
X002308Y009627D01*
X002231Y009550D01*
X002231Y009781D02*
X002231Y009934D01*
X002001Y009781D02*
X002461Y009781D01*
X002461Y010087D01*
X002001Y010087D02*
X002001Y009781D01*
X002001Y010241D02*
X002461Y010241D01*
X002461Y010548D01*
X002231Y010394D02*
X002231Y010241D01*
X002001Y010241D02*
X002001Y010548D01*
X020924Y005244D02*
X020924Y004937D01*
X020924Y005090D02*
X020464Y005090D01*
X020618Y004937D01*
X028560Y002685D02*
X028637Y002762D01*
X028790Y002762D01*
X028867Y002685D01*
X029020Y002685D02*
X029174Y002532D01*
X029174Y002301D01*
X029481Y002301D02*
X029481Y002762D01*
X029711Y002762D01*
X029787Y002685D01*
X029787Y002532D01*
X029711Y002455D01*
X029481Y002455D01*
X029634Y002455D02*
X029787Y002301D01*
X029941Y002378D02*
X030018Y002301D01*
X030171Y002301D01*
X030248Y002378D01*
X030248Y002685D01*
X030171Y002762D01*
X030018Y002762D01*
X029941Y002685D01*
X029941Y002378D01*
X029327Y002685D02*
X029174Y002532D01*
X029327Y002685D02*
X029327Y002762D01*
X029020Y002762D02*
X029020Y002685D01*
X028867Y002532D02*
X028713Y002532D01*
X028867Y002532D02*
X028867Y002378D01*
X028790Y002301D01*
X028637Y002301D01*
X028560Y002378D01*
X028560Y002685D01*
X036779Y002685D02*
X036779Y002608D01*
X036855Y002532D01*
X037009Y002532D01*
X037086Y002455D01*
X037086Y002378D01*
X037009Y002301D01*
X036855Y002301D01*
X036779Y002378D01*
X037239Y002378D02*
X037316Y002301D01*
X037469Y002301D01*
X037546Y002378D01*
X037699Y002301D02*
X037699Y002762D01*
X037930Y002762D01*
X038006Y002685D01*
X038006Y002532D01*
X037930Y002455D01*
X037699Y002455D01*
X037239Y002378D02*
X037239Y002685D01*
X037316Y002762D01*
X037469Y002762D01*
X037546Y002685D01*
X037086Y002685D02*
X037009Y002762D01*
X036855Y002762D01*
X036779Y002685D01*
X038160Y002608D02*
X038313Y002762D01*
X038313Y002301D01*
X038160Y002301D02*
X038467Y002301D01*
X038620Y002378D02*
X038927Y002685D01*
X038927Y002378D01*
X038850Y002301D01*
X038697Y002301D01*
X038620Y002378D01*
X038620Y002685D01*
X038697Y002762D01*
X038850Y002762D01*
X038927Y002685D01*
X039080Y002685D02*
X039157Y002762D01*
X039311Y002762D01*
X039387Y002685D01*
X039080Y002378D01*
X039157Y002301D01*
X039311Y002301D01*
X039387Y002378D01*
X039387Y002685D01*
X039541Y002685D02*
X039618Y002762D01*
X039771Y002762D01*
X039848Y002685D01*
X039541Y002378D01*
X039618Y002301D01*
X039771Y002301D01*
X039848Y002378D01*
X039848Y002685D01*
X039541Y002685D02*
X039541Y002378D01*
X039080Y002378D02*
X039080Y002685D01*
X042701Y002952D02*
X042701Y003045D01*
X042748Y003092D01*
X042795Y003092D01*
X042841Y003045D01*
X042888Y003092D01*
X042935Y003092D01*
X042981Y003045D01*
X042981Y002952D01*
X042935Y002905D01*
X042841Y002998D02*
X042841Y003045D01*
X042748Y002905D02*
X042701Y002952D01*
X043174Y002162D02*
X043327Y002162D01*
X043250Y002162D02*
X043250Y001701D01*
X043174Y001701D02*
X043327Y001701D01*
X043481Y001778D02*
X043557Y001701D01*
X043711Y001701D01*
X043788Y001778D01*
X043941Y001701D02*
X044248Y002008D01*
X044248Y002085D01*
X044171Y002162D01*
X044018Y002162D01*
X043941Y002085D01*
X043788Y002085D02*
X043711Y002162D01*
X043557Y002162D01*
X043481Y002085D01*
X043481Y001778D01*
X043941Y001701D02*
X044248Y001701D01*
X045401Y002697D02*
X045541Y002557D01*
X045541Y002744D01*
X045681Y002697D02*
X045401Y002697D01*
X042978Y003815D02*
X042791Y004002D01*
X042744Y004002D01*
X042697Y003955D01*
X042697Y003862D01*
X042744Y003815D01*
X042978Y003815D02*
X042978Y004002D01*
X042981Y004666D02*
X042981Y004853D01*
X042981Y004759D02*
X042701Y004759D01*
X042795Y004666D01*
X045201Y009920D02*
X045201Y010150D01*
X045278Y010227D01*
X045431Y010227D01*
X045508Y010150D01*
X045508Y009920D01*
X045661Y009920D02*
X045201Y009920D01*
X045201Y010381D02*
X045661Y010381D01*
X045508Y010534D01*
X045661Y010688D01*
X045201Y010688D01*
X045201Y010841D02*
X045201Y011071D01*
X045278Y011148D01*
X045431Y011148D01*
X045508Y011071D01*
X045508Y010841D01*
X045661Y010841D02*
X045201Y010841D01*
X045508Y010994D02*
X045661Y011148D01*
X027463Y011641D02*
X027002Y011641D01*
X027022Y011562D02*
X027022Y011101D01*
X027329Y011101D01*
X026869Y011562D02*
X026562Y011101D01*
X026408Y011101D02*
X026408Y011562D01*
X026101Y011562D02*
X026101Y011101D01*
X026101Y011332D02*
X026408Y011332D01*
X023529Y011562D02*
X023222Y011101D01*
X023069Y011178D02*
X023069Y011562D01*
X023222Y011562D02*
X023529Y011101D01*
X023069Y011178D02*
X022992Y011101D01*
X022838Y011101D01*
X022762Y011178D01*
X022762Y011562D01*
X022608Y011408D02*
X022455Y011562D01*
X022301Y011408D01*
X022301Y011101D01*
X022301Y011332D02*
X022608Y011332D01*
X022608Y011408D02*
X022608Y011101D01*
D14*
X021266Y011165D02*
X021266Y011412D01*
X021266Y011288D02*
X020896Y011288D01*
X021020Y011165D01*
X020958Y011043D02*
X020896Y010982D01*
X020896Y010858D01*
X020958Y010796D01*
X021205Y010796D01*
X021266Y010858D01*
X021266Y010982D01*
X021205Y011043D01*
X019566Y010982D02*
X019566Y010858D01*
X019505Y010796D01*
X019258Y010796D01*
X019196Y010858D01*
X019196Y010982D01*
X019258Y011043D01*
X019381Y011165D02*
X019381Y011350D01*
X019443Y011412D01*
X019505Y011412D01*
X019566Y011350D01*
X019566Y011226D01*
X019505Y011165D01*
X019381Y011165D01*
X019258Y011288D01*
X019196Y011412D01*
X019505Y011043D02*
X019566Y010982D01*
X019565Y009867D02*
X019565Y009682D01*
X019688Y009743D01*
X019750Y009743D01*
X019812Y009682D01*
X019812Y009558D01*
X019750Y009496D01*
X019626Y009496D01*
X019565Y009558D01*
X019443Y009558D02*
X019382Y009496D01*
X019258Y009496D01*
X019196Y009558D01*
X019196Y009805D01*
X019258Y009867D01*
X019382Y009867D01*
X019443Y009805D01*
X019565Y009867D02*
X019812Y009867D01*
X013575Y010596D02*
X013328Y010596D01*
X013207Y010596D02*
X013083Y010720D01*
X012960Y010658D02*
X013021Y010596D01*
X013145Y010596D01*
X013207Y010658D01*
X013207Y010905D01*
X013145Y010967D01*
X013021Y010967D01*
X012960Y010905D01*
X012960Y010658D01*
X013328Y010843D02*
X013452Y010967D01*
X013452Y010596D01*
X026396Y007667D02*
X026396Y007296D01*
X026396Y007420D02*
X026582Y007420D01*
X026643Y007482D01*
X026643Y007605D01*
X026582Y007667D01*
X026396Y007667D01*
X026765Y007543D02*
X026888Y007667D01*
X026888Y007296D01*
X026765Y007296D02*
X027012Y007296D01*
X026643Y007296D02*
X026520Y007420D01*
X028296Y007405D02*
X028296Y007158D01*
X028358Y007096D01*
X028482Y007096D01*
X028543Y007158D01*
X028665Y007282D02*
X028912Y007282D01*
X028850Y007467D02*
X028665Y007282D01*
X028543Y007405D02*
X028482Y007467D01*
X028358Y007467D01*
X028296Y007405D01*
X028850Y007467D02*
X028850Y007096D01*
X032196Y006905D02*
X032196Y006658D01*
X032258Y006596D01*
X032382Y006596D01*
X032443Y006658D01*
X032565Y006596D02*
X032812Y006596D01*
X032933Y006596D02*
X033180Y006843D01*
X033180Y006905D01*
X033118Y006967D01*
X032995Y006967D01*
X032933Y006905D01*
X032688Y006967D02*
X032565Y006843D01*
X032443Y006905D02*
X032382Y006967D01*
X032258Y006967D01*
X032196Y006905D01*
X032688Y006967D02*
X032688Y006596D01*
X032933Y006596D02*
X033180Y006596D01*
X033082Y005667D02*
X032958Y005667D01*
X032896Y005605D01*
X032896Y005358D01*
X032958Y005296D01*
X033082Y005296D01*
X033143Y005358D01*
X033265Y005296D02*
X033512Y005296D01*
X033388Y005296D02*
X033388Y005667D01*
X033265Y005543D01*
X033143Y005605D02*
X033082Y005667D01*
X033633Y005605D02*
X033695Y005667D01*
X033818Y005667D01*
X033880Y005605D01*
X033880Y005543D01*
X033818Y005482D01*
X033880Y005420D01*
X033880Y005358D01*
X033818Y005296D01*
X033695Y005296D01*
X033633Y005358D01*
X033756Y005482D02*
X033818Y005482D01*
X030480Y005505D02*
X030480Y005258D01*
X030418Y005196D01*
X030295Y005196D01*
X030233Y005258D01*
X030480Y005505D01*
X030418Y005567D01*
X030295Y005567D01*
X030233Y005505D01*
X030233Y005258D01*
X030112Y005196D02*
X029865Y005196D01*
X029988Y005196D02*
X029988Y005567D01*
X029865Y005443D01*
X029743Y005505D02*
X029682Y005567D01*
X029558Y005567D01*
X029496Y005505D01*
X029496Y005258D01*
X029558Y005196D01*
X029682Y005196D01*
X029743Y005258D01*
X028480Y005196D02*
X028233Y005196D01*
X028112Y005196D02*
X027865Y005196D01*
X027988Y005196D02*
X027988Y005567D01*
X027865Y005443D01*
X027743Y005505D02*
X027682Y005567D01*
X027558Y005567D01*
X027496Y005505D01*
X027496Y005258D01*
X027558Y005196D01*
X027682Y005196D01*
X027743Y005258D01*
X028233Y005443D02*
X028356Y005567D01*
X028356Y005196D01*
X032381Y003775D02*
X032381Y003528D01*
X032196Y003713D01*
X032566Y003713D01*
X032566Y003407D02*
X032566Y003160D01*
X032566Y003283D02*
X032196Y003283D01*
X032320Y003160D01*
X032258Y003038D02*
X032196Y002977D01*
X032196Y002853D01*
X032258Y002791D01*
X032505Y002791D01*
X032566Y002853D01*
X032566Y002977D01*
X032505Y003038D01*
X040396Y003196D02*
X040396Y003320D01*
X040396Y003258D02*
X040766Y003258D01*
X040766Y003196D02*
X040766Y003320D01*
X040828Y003442D02*
X040828Y003689D01*
X040705Y003810D02*
X040766Y003872D01*
X040766Y003995D01*
X040705Y004057D01*
X040643Y004057D01*
X040581Y003995D01*
X040581Y003872D01*
X040520Y003810D01*
X040458Y003810D01*
X040396Y003872D01*
X040396Y003995D01*
X040458Y004057D01*
X040396Y004179D02*
X040766Y004179D01*
X040766Y004425D01*
X040766Y004547D02*
X040396Y004547D01*
X040766Y004794D01*
X040396Y004794D01*
X040458Y004915D02*
X040520Y004915D01*
X040581Y004977D01*
X040581Y005100D01*
X040643Y005162D01*
X040705Y005162D01*
X040766Y005100D01*
X040766Y004977D01*
X040705Y004915D01*
X040458Y004915D02*
X040396Y004977D01*
X040396Y005100D01*
X040458Y005162D01*
X040396Y004425D02*
X040396Y004179D01*
X040581Y004179D02*
X040581Y004302D01*
X045403Y005803D02*
X045464Y005741D01*
X045588Y005741D01*
X045650Y005803D01*
X045771Y005803D02*
X045771Y005741D01*
X045771Y005803D02*
X046018Y006049D01*
X046018Y006111D01*
X045771Y006111D01*
X045650Y006049D02*
X045588Y006111D01*
X045464Y006111D01*
X045403Y006049D01*
X045403Y005803D01*
X042975Y005958D02*
X042913Y005896D01*
X042790Y005896D01*
X042728Y005958D01*
X042607Y005896D02*
X042483Y006020D01*
X042545Y006020D02*
X042360Y006020D01*
X042360Y005896D02*
X042360Y006267D01*
X042545Y006267D01*
X042607Y006205D01*
X042607Y006082D01*
X042545Y006020D01*
X042728Y006205D02*
X042790Y006267D01*
X042913Y006267D01*
X042975Y006205D01*
X042975Y006143D01*
X042913Y006082D01*
X042975Y006020D01*
X042975Y005958D01*
X042913Y006082D02*
X042852Y006082D01*
X044796Y006596D02*
X044796Y006967D01*
X044982Y006967D01*
X045043Y006905D01*
X045043Y006782D01*
X044982Y006720D01*
X044796Y006720D01*
X044920Y006720D02*
X045043Y006596D01*
X045165Y006596D02*
X045412Y006843D01*
X045412Y006905D01*
X045350Y006967D01*
X045226Y006967D01*
X045165Y006905D01*
X045165Y006596D02*
X045412Y006596D01*
X045723Y007596D02*
X045970Y007596D01*
X046091Y007596D02*
X046338Y007596D01*
X046460Y007596D02*
X046645Y007596D01*
X046707Y007658D01*
X046707Y007905D01*
X046645Y007967D01*
X046460Y007967D01*
X046460Y007596D01*
X046828Y007596D02*
X047075Y007843D01*
X047075Y007905D01*
X047013Y007967D01*
X046890Y007967D01*
X046828Y007905D01*
X046338Y007967D02*
X046091Y007967D01*
X046091Y007596D01*
X045723Y007596D02*
X045723Y007967D01*
X046091Y007782D02*
X046215Y007782D01*
X046828Y007596D02*
X047075Y007596D01*
X047075Y008696D02*
X046828Y008696D01*
X046952Y008696D02*
X046952Y009067D01*
X046828Y008943D01*
X046707Y009005D02*
X046645Y009067D01*
X046460Y009067D01*
X046460Y008696D01*
X046645Y008696D01*
X046707Y008758D01*
X046707Y009005D01*
X046338Y009067D02*
X046091Y009067D01*
X046091Y008696D01*
X046338Y008696D01*
X045970Y008696D02*
X045723Y008696D01*
X045723Y009067D01*
X046091Y008882D02*
X046215Y008882D01*
X042975Y008667D02*
X042975Y008605D01*
X042728Y008358D01*
X042728Y008296D01*
X042607Y008296D02*
X042483Y008420D01*
X042545Y008420D02*
X042360Y008420D01*
X042360Y008296D02*
X042360Y008667D01*
X042545Y008667D01*
X042607Y008605D01*
X042607Y008482D01*
X042545Y008420D01*
X042728Y008667D02*
X042975Y008667D01*
X040766Y008723D02*
X040766Y008600D01*
X040705Y008538D01*
X040766Y008416D02*
X040396Y008416D01*
X040458Y008538D02*
X040520Y008538D01*
X040581Y008600D01*
X040581Y008723D01*
X040643Y008785D01*
X040705Y008785D01*
X040766Y008723D01*
X040458Y008785D02*
X040396Y008723D01*
X040396Y008600D01*
X040458Y008538D01*
X040766Y008416D02*
X040396Y008170D01*
X040766Y008170D01*
X040766Y008048D02*
X040766Y007801D01*
X040396Y007801D01*
X040396Y008048D01*
X040581Y007925D02*
X040581Y007801D01*
X040643Y007680D02*
X040705Y007680D01*
X040766Y007618D01*
X040766Y007495D01*
X040705Y007433D01*
X040581Y007495D02*
X040520Y007433D01*
X040458Y007433D01*
X040396Y007495D01*
X040396Y007618D01*
X040458Y007680D01*
X040581Y007618D02*
X040581Y007495D01*
X040581Y007618D02*
X040643Y007680D01*
X040828Y007312D02*
X040828Y007065D01*
X040396Y006943D02*
X040396Y006696D01*
X040396Y006820D02*
X040766Y006820D01*
X038112Y007582D02*
X037865Y007582D01*
X038050Y007767D01*
X038050Y007396D01*
X037743Y007396D02*
X037620Y007520D01*
X037682Y007520D02*
X037496Y007520D01*
X037496Y007396D02*
X037496Y007767D01*
X037682Y007767D01*
X037743Y007705D01*
X037743Y007582D01*
X037682Y007520D01*
X043796Y010496D02*
X043796Y010867D01*
X043982Y010867D01*
X044043Y010805D01*
X044043Y010682D01*
X043982Y010620D01*
X043796Y010620D01*
X043920Y010620D02*
X044043Y010496D01*
X044165Y010558D02*
X044226Y010496D01*
X044350Y010496D01*
X044412Y010558D01*
X044412Y010620D01*
X044350Y010682D01*
X044165Y010682D01*
X044165Y010558D01*
X044165Y010682D02*
X044288Y010805D01*
X044412Y010867D01*
X018112Y005905D02*
X018112Y005843D01*
X017865Y005596D01*
X018112Y005596D01*
X017743Y005658D02*
X017682Y005596D01*
X017558Y005596D01*
X017496Y005658D01*
X017496Y005905D01*
X017558Y005967D01*
X017682Y005967D01*
X017743Y005905D01*
X017865Y005905D02*
X017926Y005967D01*
X018050Y005967D01*
X018112Y005905D01*
X022696Y002705D02*
X022758Y002767D01*
X022882Y002767D01*
X022943Y002705D01*
X023065Y002705D02*
X023126Y002767D01*
X023250Y002767D01*
X023312Y002705D01*
X023312Y002643D01*
X023250Y002582D01*
X023312Y002520D01*
X023312Y002458D01*
X023250Y002396D01*
X023126Y002396D01*
X023065Y002458D01*
X022943Y002458D02*
X022882Y002396D01*
X022758Y002396D01*
X022696Y002458D01*
X022696Y002705D01*
X023188Y002582D02*
X023250Y002582D01*
X040360Y001667D02*
X040360Y001296D01*
X040360Y001420D02*
X040545Y001420D01*
X040607Y001482D01*
X040607Y001605D01*
X040545Y001667D01*
X040360Y001667D01*
X040728Y001667D02*
X040728Y001482D01*
X040852Y001543D01*
X040913Y001543D01*
X040975Y001482D01*
X040975Y001358D01*
X040913Y001296D01*
X040790Y001296D01*
X040728Y001358D01*
X040607Y001296D02*
X040483Y001420D01*
X040728Y001667D02*
X040975Y001667D01*
X045403Y001903D02*
X045464Y001841D01*
X045588Y001841D01*
X045650Y001903D01*
X045771Y001903D02*
X045833Y001841D01*
X045956Y001841D01*
X046018Y001903D01*
X046018Y001964D01*
X045956Y002026D01*
X045833Y002026D01*
X045771Y002088D01*
X045771Y002149D01*
X045833Y002211D01*
X045956Y002211D01*
X046018Y002149D01*
X046018Y002088D01*
X045956Y002026D01*
X045833Y002026D02*
X045771Y001964D01*
X045771Y001903D01*
X045403Y001903D02*
X045403Y002149D01*
X045464Y002211D01*
X045588Y002211D01*
X045650Y002149D01*
D15*
X017081Y009331D02*
X014681Y009331D01*
X014624Y009333D01*
X014568Y009339D01*
X014512Y009348D01*
X014456Y009361D01*
X014402Y009378D01*
X014349Y009398D01*
X014298Y009422D01*
X014248Y009450D01*
X014200Y009480D01*
X014154Y009514D01*
X014111Y009551D01*
X014070Y009590D01*
X014032Y009632D01*
X013997Y009677D01*
X013965Y009724D01*
X013936Y009773D01*
X013910Y009823D01*
X013888Y009876D01*
X013869Y009929D01*
X013854Y009984D01*
X013843Y010040D01*
X013835Y010096D01*
X013831Y010153D01*
X013831Y010209D01*
X013835Y010266D01*
X013843Y010322D01*
X013854Y010378D01*
X013869Y010433D01*
X013888Y010486D01*
X013910Y010539D01*
X013936Y010589D01*
X013965Y010638D01*
X013997Y010685D01*
X014032Y010730D01*
X014070Y010772D01*
X014111Y010811D01*
X014154Y010848D01*
X014200Y010882D01*
X014248Y010912D01*
X014298Y010940D01*
X014349Y010964D01*
X014402Y010984D01*
X014456Y011001D01*
X014512Y011014D01*
X014568Y011023D01*
X014624Y011029D01*
X014681Y011031D01*
X017081Y011031D01*
X017138Y011029D01*
X017194Y011023D01*
X017250Y011014D01*
X017306Y011001D01*
X017360Y010984D01*
X017413Y010964D01*
X017464Y010940D01*
X017514Y010912D01*
X017562Y010882D01*
X017608Y010848D01*
X017651Y010811D01*
X017692Y010772D01*
X017730Y010730D01*
X017765Y010685D01*
X017797Y010638D01*
X017826Y010589D01*
X017852Y010539D01*
X017874Y010486D01*
X017893Y010433D01*
X017908Y010378D01*
X017919Y010322D01*
X017927Y010266D01*
X017931Y010209D01*
X017931Y010153D01*
X017927Y010096D01*
X017919Y010040D01*
X017908Y009984D01*
X017893Y009929D01*
X017874Y009876D01*
X017852Y009823D01*
X017826Y009773D01*
X017797Y009724D01*
X017765Y009677D01*
X017730Y009632D01*
X017692Y009590D01*
X017651Y009551D01*
X017608Y009514D01*
X017562Y009480D01*
X017514Y009450D01*
X017464Y009422D01*
X017413Y009398D01*
X017360Y009378D01*
X017306Y009361D01*
X017250Y009348D01*
X017194Y009339D01*
X017138Y009333D01*
X017081Y009331D01*
D16*
X022781Y010281D03*
X023781Y010281D03*
X024781Y010281D03*
X026581Y010281D03*
X027581Y010281D03*
X028581Y010281D03*
X041581Y009181D03*
X041581Y008181D03*
X041581Y007181D03*
X041581Y005681D03*
X041581Y004681D03*
X041581Y003681D03*
X039481Y003381D03*
X038481Y003381D03*
X037481Y003381D03*
X036481Y003381D03*
X035481Y003381D03*
X034481Y003381D03*
X033481Y003381D03*
X029881Y003381D03*
X028881Y003381D03*
X027881Y003381D03*
X026881Y003381D03*
X025881Y003381D03*
X018581Y003381D03*
X017581Y003381D03*
X016581Y003381D03*
X015581Y003381D03*
X014581Y003381D03*
X013581Y003381D03*
X012581Y003381D03*
X009781Y003781D03*
X008781Y003781D03*
X007781Y003781D03*
X005881Y003781D03*
X004881Y003781D03*
X003881Y003781D03*
X001381Y004181D03*
X001381Y003181D03*
X001381Y002181D03*
X003881Y002181D03*
X004881Y002181D03*
X005881Y002181D03*
X012581Y001881D03*
X013581Y001881D03*
X014581Y001881D03*
X015581Y001881D03*
X016581Y001881D03*
X009781Y005381D03*
X008781Y005381D03*
X007781Y005381D03*
X005881Y005381D03*
X004881Y005381D03*
X003881Y005381D03*
X001381Y005181D03*
X001381Y006181D03*
X003881Y006981D03*
X004881Y006981D03*
X005881Y006981D03*
X007781Y006981D03*
X008781Y006981D03*
X009781Y006981D03*
X009781Y008581D03*
X008781Y008581D03*
X007781Y008581D03*
X005881Y008581D03*
X004881Y008581D03*
X003881Y008581D03*
X001381Y008181D03*
X001381Y007181D03*
X001381Y009181D03*
X001381Y010181D03*
X003881Y010181D03*
X004881Y010181D03*
X005881Y010181D03*
X007781Y010181D03*
X008781Y010181D03*
X009781Y010181D03*
X046481Y009781D03*
X046481Y010781D03*
D17*
X043831Y010181D02*
X043731Y010181D01*
X043281Y008731D02*
X043281Y008631D01*
X037531Y006981D02*
X037431Y006981D01*
X043381Y006331D02*
X043381Y006231D01*
X044381Y006231D02*
X044381Y006331D01*
X041131Y002081D02*
X041031Y002081D01*
X026431Y006881D02*
X026331Y006881D01*
X011931Y011081D02*
X011831Y011081D01*
D18*
X043681Y004871D02*
X045081Y004871D01*
X045081Y002291D01*
X043681Y002291D01*
X043681Y004871D01*
M02*
