G75*
G70*
%OFA0B0*%
%FSLAX24Y24*%
%IPPOS*%
%LPD*%
%AMOC8*
5,1,8,0,0,1.08239X$1,22.5*
%
%ADD10C,0.0600*%
%ADD11C,0.0680*%
%ADD12OC8,0.0600*%
%ADD13C,0.0082*%
%ADD14C,0.0083*%
%ADD15C,0.0580*%
%ADD16C,0.0390*%
%ADD17C,0.0476*%
D10*
X014931Y010181D03*
X016831Y010181D03*
D11*
X003881Y002361D02*
X003881Y002001D01*
X004881Y002001D02*
X004881Y002361D01*
X005881Y002361D02*
X005881Y002001D01*
X001561Y002181D02*
X001201Y002181D01*
X001201Y003181D02*
X001561Y003181D01*
X003881Y003601D02*
X003881Y003961D01*
X004881Y003961D02*
X004881Y003601D01*
X005881Y003601D02*
X005881Y003961D01*
X007781Y003961D02*
X007781Y003601D01*
X008781Y003601D02*
X008781Y003961D01*
X009781Y003961D02*
X009781Y003601D01*
X012581Y003561D02*
X012581Y003201D01*
X013581Y003201D02*
X013581Y003561D01*
X014581Y003561D02*
X014581Y003201D01*
X015581Y003201D02*
X015581Y003561D01*
X016581Y003561D02*
X016581Y003201D01*
X017581Y003201D02*
X017581Y003561D01*
X018581Y003561D02*
X018581Y003201D01*
X016581Y002061D02*
X016581Y001701D01*
X015581Y001701D02*
X015581Y002061D01*
X014581Y002061D02*
X014581Y001701D01*
X013581Y001701D02*
X013581Y002061D01*
X012581Y002061D02*
X012581Y001701D01*
X001561Y004181D02*
X001201Y004181D01*
X001201Y005181D02*
X001561Y005181D01*
X003881Y005201D02*
X003881Y005561D01*
X004881Y005561D02*
X004881Y005201D01*
X005881Y005201D02*
X005881Y005561D01*
X007781Y005561D02*
X007781Y005201D01*
X008781Y005201D02*
X008781Y005561D01*
X009781Y005561D02*
X009781Y005201D01*
X009781Y006801D02*
X009781Y007161D01*
X008781Y007161D02*
X008781Y006801D01*
X007781Y006801D02*
X007781Y007161D01*
X005881Y007161D02*
X005881Y006801D01*
X004881Y006801D02*
X004881Y007161D01*
X003881Y007161D02*
X003881Y006801D01*
X001561Y007181D02*
X001201Y007181D01*
X001201Y006181D02*
X001561Y006181D01*
X001561Y008181D02*
X001201Y008181D01*
X003881Y008401D02*
X003881Y008761D01*
X004881Y008761D02*
X004881Y008401D01*
X005881Y008401D02*
X005881Y008761D01*
X007781Y008761D02*
X007781Y008401D01*
X008781Y008401D02*
X008781Y008761D01*
X009781Y008761D02*
X009781Y008401D01*
X009781Y010001D02*
X009781Y010361D01*
X008781Y010361D02*
X008781Y010001D01*
X007781Y010001D02*
X007781Y010361D01*
X005881Y010361D02*
X005881Y010001D01*
X004881Y010001D02*
X004881Y010361D01*
X003881Y010361D02*
X003881Y010001D01*
X001561Y010181D02*
X001201Y010181D01*
X001201Y009181D02*
X001561Y009181D01*
X022781Y010101D02*
X022781Y010461D01*
X023781Y010461D02*
X023781Y010101D01*
X024781Y010101D02*
X024781Y010461D01*
X026581Y010461D02*
X026581Y010101D01*
X027581Y010101D02*
X027581Y010461D01*
X028581Y010461D02*
X028581Y010101D01*
X041401Y009181D02*
X041761Y009181D01*
X041761Y008181D02*
X041401Y008181D01*
X041401Y007181D02*
X041761Y007181D01*
X041761Y005681D02*
X041401Y005681D01*
X041401Y004681D02*
X041761Y004681D01*
X041761Y003681D02*
X041401Y003681D01*
X039481Y003561D02*
X039481Y003201D01*
X038481Y003201D02*
X038481Y003561D01*
X037481Y003561D02*
X037481Y003201D01*
X036481Y003201D02*
X036481Y003561D01*
X035481Y003561D02*
X035481Y003201D01*
X034481Y003201D02*
X034481Y003561D01*
X033481Y003561D02*
X033481Y003201D01*
X029881Y003201D02*
X029881Y003561D01*
X028881Y003561D02*
X028881Y003201D01*
X027881Y003201D02*
X027881Y003561D01*
X026881Y003561D02*
X026881Y003201D01*
X025881Y003201D02*
X025881Y003561D01*
X046301Y009781D02*
X046661Y009781D01*
X046661Y010781D02*
X046301Y010781D01*
D12*
X044281Y010181D03*
X043281Y010181D03*
X043281Y009181D03*
X044381Y008881D03*
X045381Y008881D03*
X043281Y008181D03*
X044381Y007781D03*
X045381Y007781D03*
X044381Y006781D03*
X043381Y006781D03*
X043381Y005781D03*
X044381Y005781D03*
X037981Y006981D03*
X036981Y006981D03*
X026881Y006881D03*
X025881Y006881D03*
X012381Y011081D03*
X011381Y011081D03*
X040581Y002081D03*
X041581Y002081D03*
D13*
X020260Y006170D02*
X020002Y006170D01*
X020260Y006170D02*
X020260Y005372D01*
X020002Y005372D01*
X020002Y006170D01*
X020002Y005453D02*
X020260Y005453D01*
X020260Y005534D02*
X020002Y005534D01*
X020002Y005615D02*
X020260Y005615D01*
X020260Y005696D02*
X020002Y005696D01*
X020002Y005777D02*
X020260Y005777D01*
X020260Y005858D02*
X020002Y005858D01*
X020002Y005939D02*
X020260Y005939D01*
X020260Y006020D02*
X020002Y006020D01*
X020002Y006101D02*
X020260Y006101D01*
X019760Y006170D02*
X019502Y006170D01*
X019760Y006170D02*
X019760Y005372D01*
X019502Y005372D01*
X019502Y006170D01*
X019502Y005453D02*
X019760Y005453D01*
X019760Y005534D02*
X019502Y005534D01*
X019502Y005615D02*
X019760Y005615D01*
X019760Y005696D02*
X019502Y005696D01*
X019502Y005777D02*
X019760Y005777D01*
X019760Y005858D02*
X019502Y005858D01*
X019502Y005939D02*
X019760Y005939D01*
X019760Y006020D02*
X019502Y006020D01*
X019502Y006101D02*
X019760Y006101D01*
X019260Y006170D02*
X019002Y006170D01*
X019260Y006170D02*
X019260Y005372D01*
X019002Y005372D01*
X019002Y006170D01*
X019002Y005453D02*
X019260Y005453D01*
X019260Y005534D02*
X019002Y005534D01*
X019002Y005615D02*
X019260Y005615D01*
X019260Y005696D02*
X019002Y005696D01*
X019002Y005777D02*
X019260Y005777D01*
X019260Y005858D02*
X019002Y005858D01*
X019002Y005939D02*
X019260Y005939D01*
X019260Y006020D02*
X019002Y006020D01*
X019002Y006101D02*
X019260Y006101D01*
X018760Y006170D02*
X018502Y006170D01*
X018760Y006170D02*
X018760Y005372D01*
X018502Y005372D01*
X018502Y006170D01*
X018502Y005453D02*
X018760Y005453D01*
X018760Y005534D02*
X018502Y005534D01*
X018502Y005615D02*
X018760Y005615D01*
X018760Y005696D02*
X018502Y005696D01*
X018502Y005777D02*
X018760Y005777D01*
X018760Y005858D02*
X018502Y005858D01*
X018502Y005939D02*
X018760Y005939D01*
X018760Y006020D02*
X018502Y006020D01*
X018502Y006101D02*
X018760Y006101D01*
X018260Y006170D02*
X018002Y006170D01*
X018260Y006170D02*
X018260Y005372D01*
X018002Y005372D01*
X018002Y006170D01*
X018002Y005453D02*
X018260Y005453D01*
X018260Y005534D02*
X018002Y005534D01*
X018002Y005615D02*
X018260Y005615D01*
X018260Y005696D02*
X018002Y005696D01*
X018002Y005777D02*
X018260Y005777D01*
X018260Y005858D02*
X018002Y005858D01*
X018002Y005939D02*
X018260Y005939D01*
X018260Y006020D02*
X018002Y006020D01*
X018002Y006101D02*
X018260Y006101D01*
X017760Y006170D02*
X017502Y006170D01*
X017760Y006170D02*
X017760Y005372D01*
X017502Y005372D01*
X017502Y006170D01*
X017502Y005453D02*
X017760Y005453D01*
X017760Y005534D02*
X017502Y005534D01*
X017502Y005615D02*
X017760Y005615D01*
X017760Y005696D02*
X017502Y005696D01*
X017502Y005777D02*
X017760Y005777D01*
X017760Y005858D02*
X017502Y005858D01*
X017502Y005939D02*
X017760Y005939D01*
X017760Y006020D02*
X017502Y006020D01*
X017502Y006101D02*
X017760Y006101D01*
X017260Y006170D02*
X017002Y006170D01*
X017260Y006170D02*
X017260Y005372D01*
X017002Y005372D01*
X017002Y006170D01*
X017002Y005453D02*
X017260Y005453D01*
X017260Y005534D02*
X017002Y005534D01*
X017002Y005615D02*
X017260Y005615D01*
X017260Y005696D02*
X017002Y005696D01*
X017002Y005777D02*
X017260Y005777D01*
X017260Y005858D02*
X017002Y005858D01*
X017002Y005939D02*
X017260Y005939D01*
X017260Y006020D02*
X017002Y006020D01*
X017002Y006101D02*
X017260Y006101D01*
X016760Y006170D02*
X016502Y006170D01*
X016760Y006170D02*
X016760Y005372D01*
X016502Y005372D01*
X016502Y006170D01*
X016502Y005453D02*
X016760Y005453D01*
X016760Y005534D02*
X016502Y005534D01*
X016502Y005615D02*
X016760Y005615D01*
X016760Y005696D02*
X016502Y005696D01*
X016502Y005777D02*
X016760Y005777D01*
X016760Y005858D02*
X016502Y005858D01*
X016502Y005939D02*
X016760Y005939D01*
X016760Y006020D02*
X016502Y006020D01*
X016502Y006101D02*
X016760Y006101D01*
X015060Y006170D02*
X014802Y006170D01*
X015060Y006170D02*
X015060Y005372D01*
X014802Y005372D01*
X014802Y006170D01*
X014802Y005453D02*
X015060Y005453D01*
X015060Y005534D02*
X014802Y005534D01*
X014802Y005615D02*
X015060Y005615D01*
X015060Y005696D02*
X014802Y005696D01*
X014802Y005777D02*
X015060Y005777D01*
X015060Y005858D02*
X014802Y005858D01*
X014802Y005939D02*
X015060Y005939D01*
X015060Y006020D02*
X014802Y006020D01*
X014802Y006101D02*
X015060Y006101D01*
X014560Y006170D02*
X014302Y006170D01*
X014560Y006170D02*
X014560Y005372D01*
X014302Y005372D01*
X014302Y006170D01*
X014302Y005453D02*
X014560Y005453D01*
X014560Y005534D02*
X014302Y005534D01*
X014302Y005615D02*
X014560Y005615D01*
X014560Y005696D02*
X014302Y005696D01*
X014302Y005777D02*
X014560Y005777D01*
X014560Y005858D02*
X014302Y005858D01*
X014302Y005939D02*
X014560Y005939D01*
X014560Y006020D02*
X014302Y006020D01*
X014302Y006101D02*
X014560Y006101D01*
X014060Y006170D02*
X013802Y006170D01*
X014060Y006170D02*
X014060Y005372D01*
X013802Y005372D01*
X013802Y006170D01*
X013802Y005453D02*
X014060Y005453D01*
X014060Y005534D02*
X013802Y005534D01*
X013802Y005615D02*
X014060Y005615D01*
X014060Y005696D02*
X013802Y005696D01*
X013802Y005777D02*
X014060Y005777D01*
X014060Y005858D02*
X013802Y005858D01*
X013802Y005939D02*
X014060Y005939D01*
X014060Y006020D02*
X013802Y006020D01*
X013802Y006101D02*
X014060Y006101D01*
X013560Y006170D02*
X013302Y006170D01*
X013560Y006170D02*
X013560Y005372D01*
X013302Y005372D01*
X013302Y006170D01*
X013302Y005453D02*
X013560Y005453D01*
X013560Y005534D02*
X013302Y005534D01*
X013302Y005615D02*
X013560Y005615D01*
X013560Y005696D02*
X013302Y005696D01*
X013302Y005777D02*
X013560Y005777D01*
X013560Y005858D02*
X013302Y005858D01*
X013302Y005939D02*
X013560Y005939D01*
X013560Y006020D02*
X013302Y006020D01*
X013302Y006101D02*
X013560Y006101D01*
X013060Y006170D02*
X012802Y006170D01*
X013060Y006170D02*
X013060Y005372D01*
X012802Y005372D01*
X012802Y006170D01*
X012802Y005453D02*
X013060Y005453D01*
X013060Y005534D02*
X012802Y005534D01*
X012802Y005615D02*
X013060Y005615D01*
X013060Y005696D02*
X012802Y005696D01*
X012802Y005777D02*
X013060Y005777D01*
X013060Y005858D02*
X012802Y005858D01*
X012802Y005939D02*
X013060Y005939D01*
X013060Y006020D02*
X012802Y006020D01*
X012802Y006101D02*
X013060Y006101D01*
X012560Y006170D02*
X012302Y006170D01*
X012560Y006170D02*
X012560Y005372D01*
X012302Y005372D01*
X012302Y006170D01*
X012302Y005453D02*
X012560Y005453D01*
X012560Y005534D02*
X012302Y005534D01*
X012302Y005615D02*
X012560Y005615D01*
X012560Y005696D02*
X012302Y005696D01*
X012302Y005777D02*
X012560Y005777D01*
X012560Y005858D02*
X012302Y005858D01*
X012302Y005939D02*
X012560Y005939D01*
X012560Y006020D02*
X012302Y006020D01*
X012302Y006101D02*
X012560Y006101D01*
X012060Y006170D02*
X011802Y006170D01*
X012060Y006170D02*
X012060Y005372D01*
X011802Y005372D01*
X011802Y006170D01*
X011802Y005453D02*
X012060Y005453D01*
X012060Y005534D02*
X011802Y005534D01*
X011802Y005615D02*
X012060Y005615D01*
X012060Y005696D02*
X011802Y005696D01*
X011802Y005777D02*
X012060Y005777D01*
X012060Y005858D02*
X011802Y005858D01*
X011802Y005939D02*
X012060Y005939D01*
X012060Y006020D02*
X011802Y006020D01*
X011802Y006101D02*
X012060Y006101D01*
X011560Y006170D02*
X011302Y006170D01*
X011560Y006170D02*
X011560Y005372D01*
X011302Y005372D01*
X011302Y006170D01*
X011302Y005453D02*
X011560Y005453D01*
X011560Y005534D02*
X011302Y005534D01*
X011302Y005615D02*
X011560Y005615D01*
X011560Y005696D02*
X011302Y005696D01*
X011302Y005777D02*
X011560Y005777D01*
X011560Y005858D02*
X011302Y005858D01*
X011302Y005939D02*
X011560Y005939D01*
X011560Y006020D02*
X011302Y006020D01*
X011302Y006101D02*
X011560Y006101D01*
X011560Y008590D02*
X011302Y008590D01*
X011560Y008590D02*
X011560Y007792D01*
X011302Y007792D01*
X011302Y008590D01*
X011302Y007873D02*
X011560Y007873D01*
X011560Y007954D02*
X011302Y007954D01*
X011302Y008035D02*
X011560Y008035D01*
X011560Y008116D02*
X011302Y008116D01*
X011302Y008197D02*
X011560Y008197D01*
X011560Y008278D02*
X011302Y008278D01*
X011302Y008359D02*
X011560Y008359D01*
X011560Y008440D02*
X011302Y008440D01*
X011302Y008521D02*
X011560Y008521D01*
X011802Y008590D02*
X012060Y008590D01*
X012060Y007792D01*
X011802Y007792D01*
X011802Y008590D01*
X011802Y007873D02*
X012060Y007873D01*
X012060Y007954D02*
X011802Y007954D01*
X011802Y008035D02*
X012060Y008035D01*
X012060Y008116D02*
X011802Y008116D01*
X011802Y008197D02*
X012060Y008197D01*
X012060Y008278D02*
X011802Y008278D01*
X011802Y008359D02*
X012060Y008359D01*
X012060Y008440D02*
X011802Y008440D01*
X011802Y008521D02*
X012060Y008521D01*
X012302Y008590D02*
X012560Y008590D01*
X012560Y007792D01*
X012302Y007792D01*
X012302Y008590D01*
X012302Y007873D02*
X012560Y007873D01*
X012560Y007954D02*
X012302Y007954D01*
X012302Y008035D02*
X012560Y008035D01*
X012560Y008116D02*
X012302Y008116D01*
X012302Y008197D02*
X012560Y008197D01*
X012560Y008278D02*
X012302Y008278D01*
X012302Y008359D02*
X012560Y008359D01*
X012560Y008440D02*
X012302Y008440D01*
X012302Y008521D02*
X012560Y008521D01*
X012802Y008590D02*
X013060Y008590D01*
X013060Y007792D01*
X012802Y007792D01*
X012802Y008590D01*
X012802Y007873D02*
X013060Y007873D01*
X013060Y007954D02*
X012802Y007954D01*
X012802Y008035D02*
X013060Y008035D01*
X013060Y008116D02*
X012802Y008116D01*
X012802Y008197D02*
X013060Y008197D01*
X013060Y008278D02*
X012802Y008278D01*
X012802Y008359D02*
X013060Y008359D01*
X013060Y008440D02*
X012802Y008440D01*
X012802Y008521D02*
X013060Y008521D01*
X013302Y008590D02*
X013560Y008590D01*
X013560Y007792D01*
X013302Y007792D01*
X013302Y008590D01*
X013302Y007873D02*
X013560Y007873D01*
X013560Y007954D02*
X013302Y007954D01*
X013302Y008035D02*
X013560Y008035D01*
X013560Y008116D02*
X013302Y008116D01*
X013302Y008197D02*
X013560Y008197D01*
X013560Y008278D02*
X013302Y008278D01*
X013302Y008359D02*
X013560Y008359D01*
X013560Y008440D02*
X013302Y008440D01*
X013302Y008521D02*
X013560Y008521D01*
X013802Y008590D02*
X014060Y008590D01*
X014060Y007792D01*
X013802Y007792D01*
X013802Y008590D01*
X013802Y007873D02*
X014060Y007873D01*
X014060Y007954D02*
X013802Y007954D01*
X013802Y008035D02*
X014060Y008035D01*
X014060Y008116D02*
X013802Y008116D01*
X013802Y008197D02*
X014060Y008197D01*
X014060Y008278D02*
X013802Y008278D01*
X013802Y008359D02*
X014060Y008359D01*
X014060Y008440D02*
X013802Y008440D01*
X013802Y008521D02*
X014060Y008521D01*
X014302Y008590D02*
X014560Y008590D01*
X014560Y007792D01*
X014302Y007792D01*
X014302Y008590D01*
X014302Y007873D02*
X014560Y007873D01*
X014560Y007954D02*
X014302Y007954D01*
X014302Y008035D02*
X014560Y008035D01*
X014560Y008116D02*
X014302Y008116D01*
X014302Y008197D02*
X014560Y008197D01*
X014560Y008278D02*
X014302Y008278D01*
X014302Y008359D02*
X014560Y008359D01*
X014560Y008440D02*
X014302Y008440D01*
X014302Y008521D02*
X014560Y008521D01*
X014802Y008590D02*
X015060Y008590D01*
X015060Y007792D01*
X014802Y007792D01*
X014802Y008590D01*
X014802Y007873D02*
X015060Y007873D01*
X015060Y007954D02*
X014802Y007954D01*
X014802Y008035D02*
X015060Y008035D01*
X015060Y008116D02*
X014802Y008116D01*
X014802Y008197D02*
X015060Y008197D01*
X015060Y008278D02*
X014802Y008278D01*
X014802Y008359D02*
X015060Y008359D01*
X015060Y008440D02*
X014802Y008440D01*
X014802Y008521D02*
X015060Y008521D01*
X016502Y008590D02*
X016760Y008590D01*
X016760Y007792D01*
X016502Y007792D01*
X016502Y008590D01*
X016502Y007873D02*
X016760Y007873D01*
X016760Y007954D02*
X016502Y007954D01*
X016502Y008035D02*
X016760Y008035D01*
X016760Y008116D02*
X016502Y008116D01*
X016502Y008197D02*
X016760Y008197D01*
X016760Y008278D02*
X016502Y008278D01*
X016502Y008359D02*
X016760Y008359D01*
X016760Y008440D02*
X016502Y008440D01*
X016502Y008521D02*
X016760Y008521D01*
X017002Y008590D02*
X017260Y008590D01*
X017260Y007792D01*
X017002Y007792D01*
X017002Y008590D01*
X017002Y007873D02*
X017260Y007873D01*
X017260Y007954D02*
X017002Y007954D01*
X017002Y008035D02*
X017260Y008035D01*
X017260Y008116D02*
X017002Y008116D01*
X017002Y008197D02*
X017260Y008197D01*
X017260Y008278D02*
X017002Y008278D01*
X017002Y008359D02*
X017260Y008359D01*
X017260Y008440D02*
X017002Y008440D01*
X017002Y008521D02*
X017260Y008521D01*
X017502Y008590D02*
X017760Y008590D01*
X017760Y007792D01*
X017502Y007792D01*
X017502Y008590D01*
X017502Y007873D02*
X017760Y007873D01*
X017760Y007954D02*
X017502Y007954D01*
X017502Y008035D02*
X017760Y008035D01*
X017760Y008116D02*
X017502Y008116D01*
X017502Y008197D02*
X017760Y008197D01*
X017760Y008278D02*
X017502Y008278D01*
X017502Y008359D02*
X017760Y008359D01*
X017760Y008440D02*
X017502Y008440D01*
X017502Y008521D02*
X017760Y008521D01*
X018002Y008590D02*
X018260Y008590D01*
X018260Y007792D01*
X018002Y007792D01*
X018002Y008590D01*
X018002Y007873D02*
X018260Y007873D01*
X018260Y007954D02*
X018002Y007954D01*
X018002Y008035D02*
X018260Y008035D01*
X018260Y008116D02*
X018002Y008116D01*
X018002Y008197D02*
X018260Y008197D01*
X018260Y008278D02*
X018002Y008278D01*
X018002Y008359D02*
X018260Y008359D01*
X018260Y008440D02*
X018002Y008440D01*
X018002Y008521D02*
X018260Y008521D01*
X018502Y008590D02*
X018760Y008590D01*
X018760Y007792D01*
X018502Y007792D01*
X018502Y008590D01*
X018502Y007873D02*
X018760Y007873D01*
X018760Y007954D02*
X018502Y007954D01*
X018502Y008035D02*
X018760Y008035D01*
X018760Y008116D02*
X018502Y008116D01*
X018502Y008197D02*
X018760Y008197D01*
X018760Y008278D02*
X018502Y008278D01*
X018502Y008359D02*
X018760Y008359D01*
X018760Y008440D02*
X018502Y008440D01*
X018502Y008521D02*
X018760Y008521D01*
X019002Y008590D02*
X019260Y008590D01*
X019260Y007792D01*
X019002Y007792D01*
X019002Y008590D01*
X019002Y007873D02*
X019260Y007873D01*
X019260Y007954D02*
X019002Y007954D01*
X019002Y008035D02*
X019260Y008035D01*
X019260Y008116D02*
X019002Y008116D01*
X019002Y008197D02*
X019260Y008197D01*
X019260Y008278D02*
X019002Y008278D01*
X019002Y008359D02*
X019260Y008359D01*
X019260Y008440D02*
X019002Y008440D01*
X019002Y008521D02*
X019260Y008521D01*
X019502Y008590D02*
X019760Y008590D01*
X019760Y007792D01*
X019502Y007792D01*
X019502Y008590D01*
X019502Y007873D02*
X019760Y007873D01*
X019760Y007954D02*
X019502Y007954D01*
X019502Y008035D02*
X019760Y008035D01*
X019760Y008116D02*
X019502Y008116D01*
X019502Y008197D02*
X019760Y008197D01*
X019760Y008278D02*
X019502Y008278D01*
X019502Y008359D02*
X019760Y008359D01*
X019760Y008440D02*
X019502Y008440D01*
X019502Y008521D02*
X019760Y008521D01*
X020002Y008590D02*
X020260Y008590D01*
X020260Y007792D01*
X020002Y007792D01*
X020002Y008590D01*
X020002Y007873D02*
X020260Y007873D01*
X020260Y007954D02*
X020002Y007954D01*
X020002Y008035D02*
X020260Y008035D01*
X020260Y008116D02*
X020002Y008116D01*
X020002Y008197D02*
X020260Y008197D01*
X020260Y008278D02*
X020002Y008278D01*
X020002Y008359D02*
X020260Y008359D01*
X020260Y008440D02*
X020002Y008440D01*
X020002Y008521D02*
X020260Y008521D01*
X029552Y008570D02*
X029810Y008570D01*
X029810Y007772D01*
X029552Y007772D01*
X029552Y008570D01*
X029552Y007853D02*
X029810Y007853D01*
X029810Y007934D02*
X029552Y007934D01*
X029552Y008015D02*
X029810Y008015D01*
X029810Y008096D02*
X029552Y008096D01*
X029552Y008177D02*
X029810Y008177D01*
X029810Y008258D02*
X029552Y008258D01*
X029552Y008339D02*
X029810Y008339D01*
X029810Y008420D02*
X029552Y008420D01*
X029552Y008501D02*
X029810Y008501D01*
X030052Y008570D02*
X030310Y008570D01*
X030310Y007772D01*
X030052Y007772D01*
X030052Y008570D01*
X030052Y007853D02*
X030310Y007853D01*
X030310Y007934D02*
X030052Y007934D01*
X030052Y008015D02*
X030310Y008015D01*
X030310Y008096D02*
X030052Y008096D01*
X030052Y008177D02*
X030310Y008177D01*
X030310Y008258D02*
X030052Y008258D01*
X030052Y008339D02*
X030310Y008339D01*
X030310Y008420D02*
X030052Y008420D01*
X030052Y008501D02*
X030310Y008501D01*
X030552Y008570D02*
X030810Y008570D01*
X030810Y007772D01*
X030552Y007772D01*
X030552Y008570D01*
X030552Y007853D02*
X030810Y007853D01*
X030810Y007934D02*
X030552Y007934D01*
X030552Y008015D02*
X030810Y008015D01*
X030810Y008096D02*
X030552Y008096D01*
X030552Y008177D02*
X030810Y008177D01*
X030810Y008258D02*
X030552Y008258D01*
X030552Y008339D02*
X030810Y008339D01*
X030810Y008420D02*
X030552Y008420D01*
X030552Y008501D02*
X030810Y008501D01*
X031052Y008570D02*
X031310Y008570D01*
X031310Y007772D01*
X031052Y007772D01*
X031052Y008570D01*
X031052Y007853D02*
X031310Y007853D01*
X031310Y007934D02*
X031052Y007934D01*
X031052Y008015D02*
X031310Y008015D01*
X031310Y008096D02*
X031052Y008096D01*
X031052Y008177D02*
X031310Y008177D01*
X031310Y008258D02*
X031052Y008258D01*
X031052Y008339D02*
X031310Y008339D01*
X031310Y008420D02*
X031052Y008420D01*
X031052Y008501D02*
X031310Y008501D01*
X031552Y008570D02*
X031810Y008570D01*
X031810Y007772D01*
X031552Y007772D01*
X031552Y008570D01*
X031552Y007853D02*
X031810Y007853D01*
X031810Y007934D02*
X031552Y007934D01*
X031552Y008015D02*
X031810Y008015D01*
X031810Y008096D02*
X031552Y008096D01*
X031552Y008177D02*
X031810Y008177D01*
X031810Y008258D02*
X031552Y008258D01*
X031552Y008339D02*
X031810Y008339D01*
X031810Y008420D02*
X031552Y008420D01*
X031552Y008501D02*
X031810Y008501D01*
X032052Y008570D02*
X032310Y008570D01*
X032310Y007772D01*
X032052Y007772D01*
X032052Y008570D01*
X032052Y007853D02*
X032310Y007853D01*
X032310Y007934D02*
X032052Y007934D01*
X032052Y008015D02*
X032310Y008015D01*
X032310Y008096D02*
X032052Y008096D01*
X032052Y008177D02*
X032310Y008177D01*
X032310Y008258D02*
X032052Y008258D01*
X032052Y008339D02*
X032310Y008339D01*
X032310Y008420D02*
X032052Y008420D01*
X032052Y008501D02*
X032310Y008501D01*
X032552Y008570D02*
X032810Y008570D01*
X032810Y007772D01*
X032552Y007772D01*
X032552Y008570D01*
X032552Y007853D02*
X032810Y007853D01*
X032810Y007934D02*
X032552Y007934D01*
X032552Y008015D02*
X032810Y008015D01*
X032810Y008096D02*
X032552Y008096D01*
X032552Y008177D02*
X032810Y008177D01*
X032810Y008258D02*
X032552Y008258D01*
X032552Y008339D02*
X032810Y008339D01*
X032810Y008420D02*
X032552Y008420D01*
X032552Y008501D02*
X032810Y008501D01*
X034402Y008570D02*
X034660Y008570D01*
X034660Y007772D01*
X034402Y007772D01*
X034402Y008570D01*
X034402Y007853D02*
X034660Y007853D01*
X034660Y007934D02*
X034402Y007934D01*
X034402Y008015D02*
X034660Y008015D01*
X034660Y008096D02*
X034402Y008096D01*
X034402Y008177D02*
X034660Y008177D01*
X034660Y008258D02*
X034402Y008258D01*
X034402Y008339D02*
X034660Y008339D01*
X034660Y008420D02*
X034402Y008420D01*
X034402Y008501D02*
X034660Y008501D01*
X034902Y008570D02*
X035160Y008570D01*
X035160Y007772D01*
X034902Y007772D01*
X034902Y008570D01*
X034902Y007853D02*
X035160Y007853D01*
X035160Y007934D02*
X034902Y007934D01*
X034902Y008015D02*
X035160Y008015D01*
X035160Y008096D02*
X034902Y008096D01*
X034902Y008177D02*
X035160Y008177D01*
X035160Y008258D02*
X034902Y008258D01*
X034902Y008339D02*
X035160Y008339D01*
X035160Y008420D02*
X034902Y008420D01*
X034902Y008501D02*
X035160Y008501D01*
X035402Y008570D02*
X035660Y008570D01*
X035660Y007772D01*
X035402Y007772D01*
X035402Y008570D01*
X035402Y007853D02*
X035660Y007853D01*
X035660Y007934D02*
X035402Y007934D01*
X035402Y008015D02*
X035660Y008015D01*
X035660Y008096D02*
X035402Y008096D01*
X035402Y008177D02*
X035660Y008177D01*
X035660Y008258D02*
X035402Y008258D01*
X035402Y008339D02*
X035660Y008339D01*
X035660Y008420D02*
X035402Y008420D01*
X035402Y008501D02*
X035660Y008501D01*
X035902Y008570D02*
X036160Y008570D01*
X036160Y007772D01*
X035902Y007772D01*
X035902Y008570D01*
X035902Y007853D02*
X036160Y007853D01*
X036160Y007934D02*
X035902Y007934D01*
X035902Y008015D02*
X036160Y008015D01*
X036160Y008096D02*
X035902Y008096D01*
X035902Y008177D02*
X036160Y008177D01*
X036160Y008258D02*
X035902Y008258D01*
X035902Y008339D02*
X036160Y008339D01*
X036160Y008420D02*
X035902Y008420D01*
X035902Y008501D02*
X036160Y008501D01*
X036402Y008570D02*
X036660Y008570D01*
X036660Y007772D01*
X036402Y007772D01*
X036402Y008570D01*
X036402Y007853D02*
X036660Y007853D01*
X036660Y007934D02*
X036402Y007934D01*
X036402Y008015D02*
X036660Y008015D01*
X036660Y008096D02*
X036402Y008096D01*
X036402Y008177D02*
X036660Y008177D01*
X036660Y008258D02*
X036402Y008258D01*
X036402Y008339D02*
X036660Y008339D01*
X036660Y008420D02*
X036402Y008420D01*
X036402Y008501D02*
X036660Y008501D01*
X036902Y008570D02*
X037160Y008570D01*
X037160Y007772D01*
X036902Y007772D01*
X036902Y008570D01*
X036902Y007853D02*
X037160Y007853D01*
X037160Y007934D02*
X036902Y007934D01*
X036902Y008015D02*
X037160Y008015D01*
X037160Y008096D02*
X036902Y008096D01*
X036902Y008177D02*
X037160Y008177D01*
X037160Y008258D02*
X036902Y008258D01*
X036902Y008339D02*
X037160Y008339D01*
X037160Y008420D02*
X036902Y008420D01*
X036902Y008501D02*
X037160Y008501D01*
X037402Y008570D02*
X037660Y008570D01*
X037660Y007772D01*
X037402Y007772D01*
X037402Y008570D01*
X037402Y007853D02*
X037660Y007853D01*
X037660Y007934D02*
X037402Y007934D01*
X037402Y008015D02*
X037660Y008015D01*
X037660Y008096D02*
X037402Y008096D01*
X037402Y008177D02*
X037660Y008177D01*
X037660Y008258D02*
X037402Y008258D01*
X037402Y008339D02*
X037660Y008339D01*
X037660Y008420D02*
X037402Y008420D01*
X037402Y008501D02*
X037660Y008501D01*
X037902Y008570D02*
X038160Y008570D01*
X038160Y007772D01*
X037902Y007772D01*
X037902Y008570D01*
X037902Y007853D02*
X038160Y007853D01*
X038160Y007934D02*
X037902Y007934D01*
X037902Y008015D02*
X038160Y008015D01*
X038160Y008096D02*
X037902Y008096D01*
X037902Y008177D02*
X038160Y008177D01*
X038160Y008258D02*
X037902Y008258D01*
X037902Y008339D02*
X038160Y008339D01*
X038160Y008420D02*
X037902Y008420D01*
X037902Y008501D02*
X038160Y008501D01*
X038160Y010990D02*
X037902Y010990D01*
X038160Y010990D02*
X038160Y010192D01*
X037902Y010192D01*
X037902Y010990D01*
X037902Y010273D02*
X038160Y010273D01*
X038160Y010354D02*
X037902Y010354D01*
X037902Y010435D02*
X038160Y010435D01*
X038160Y010516D02*
X037902Y010516D01*
X037902Y010597D02*
X038160Y010597D01*
X038160Y010678D02*
X037902Y010678D01*
X037902Y010759D02*
X038160Y010759D01*
X038160Y010840D02*
X037902Y010840D01*
X037902Y010921D02*
X038160Y010921D01*
X037660Y010990D02*
X037402Y010990D01*
X037660Y010990D02*
X037660Y010192D01*
X037402Y010192D01*
X037402Y010990D01*
X037402Y010273D02*
X037660Y010273D01*
X037660Y010354D02*
X037402Y010354D01*
X037402Y010435D02*
X037660Y010435D01*
X037660Y010516D02*
X037402Y010516D01*
X037402Y010597D02*
X037660Y010597D01*
X037660Y010678D02*
X037402Y010678D01*
X037402Y010759D02*
X037660Y010759D01*
X037660Y010840D02*
X037402Y010840D01*
X037402Y010921D02*
X037660Y010921D01*
X037160Y010990D02*
X036902Y010990D01*
X037160Y010990D02*
X037160Y010192D01*
X036902Y010192D01*
X036902Y010990D01*
X036902Y010273D02*
X037160Y010273D01*
X037160Y010354D02*
X036902Y010354D01*
X036902Y010435D02*
X037160Y010435D01*
X037160Y010516D02*
X036902Y010516D01*
X036902Y010597D02*
X037160Y010597D01*
X037160Y010678D02*
X036902Y010678D01*
X036902Y010759D02*
X037160Y010759D01*
X037160Y010840D02*
X036902Y010840D01*
X036902Y010921D02*
X037160Y010921D01*
X036660Y010990D02*
X036402Y010990D01*
X036660Y010990D02*
X036660Y010192D01*
X036402Y010192D01*
X036402Y010990D01*
X036402Y010273D02*
X036660Y010273D01*
X036660Y010354D02*
X036402Y010354D01*
X036402Y010435D02*
X036660Y010435D01*
X036660Y010516D02*
X036402Y010516D01*
X036402Y010597D02*
X036660Y010597D01*
X036660Y010678D02*
X036402Y010678D01*
X036402Y010759D02*
X036660Y010759D01*
X036660Y010840D02*
X036402Y010840D01*
X036402Y010921D02*
X036660Y010921D01*
X036160Y010990D02*
X035902Y010990D01*
X036160Y010990D02*
X036160Y010192D01*
X035902Y010192D01*
X035902Y010990D01*
X035902Y010273D02*
X036160Y010273D01*
X036160Y010354D02*
X035902Y010354D01*
X035902Y010435D02*
X036160Y010435D01*
X036160Y010516D02*
X035902Y010516D01*
X035902Y010597D02*
X036160Y010597D01*
X036160Y010678D02*
X035902Y010678D01*
X035902Y010759D02*
X036160Y010759D01*
X036160Y010840D02*
X035902Y010840D01*
X035902Y010921D02*
X036160Y010921D01*
X035660Y010990D02*
X035402Y010990D01*
X035660Y010990D02*
X035660Y010192D01*
X035402Y010192D01*
X035402Y010990D01*
X035402Y010273D02*
X035660Y010273D01*
X035660Y010354D02*
X035402Y010354D01*
X035402Y010435D02*
X035660Y010435D01*
X035660Y010516D02*
X035402Y010516D01*
X035402Y010597D02*
X035660Y010597D01*
X035660Y010678D02*
X035402Y010678D01*
X035402Y010759D02*
X035660Y010759D01*
X035660Y010840D02*
X035402Y010840D01*
X035402Y010921D02*
X035660Y010921D01*
X035160Y010990D02*
X034902Y010990D01*
X035160Y010990D02*
X035160Y010192D01*
X034902Y010192D01*
X034902Y010990D01*
X034902Y010273D02*
X035160Y010273D01*
X035160Y010354D02*
X034902Y010354D01*
X034902Y010435D02*
X035160Y010435D01*
X035160Y010516D02*
X034902Y010516D01*
X034902Y010597D02*
X035160Y010597D01*
X035160Y010678D02*
X034902Y010678D01*
X034902Y010759D02*
X035160Y010759D01*
X035160Y010840D02*
X034902Y010840D01*
X034902Y010921D02*
X035160Y010921D01*
X034660Y010990D02*
X034402Y010990D01*
X034660Y010990D02*
X034660Y010192D01*
X034402Y010192D01*
X034402Y010990D01*
X034402Y010273D02*
X034660Y010273D01*
X034660Y010354D02*
X034402Y010354D01*
X034402Y010435D02*
X034660Y010435D01*
X034660Y010516D02*
X034402Y010516D01*
X034402Y010597D02*
X034660Y010597D01*
X034660Y010678D02*
X034402Y010678D01*
X034402Y010759D02*
X034660Y010759D01*
X034660Y010840D02*
X034402Y010840D01*
X034402Y010921D02*
X034660Y010921D01*
X032810Y010990D02*
X032552Y010990D01*
X032810Y010990D02*
X032810Y010192D01*
X032552Y010192D01*
X032552Y010990D01*
X032552Y010273D02*
X032810Y010273D01*
X032810Y010354D02*
X032552Y010354D01*
X032552Y010435D02*
X032810Y010435D01*
X032810Y010516D02*
X032552Y010516D01*
X032552Y010597D02*
X032810Y010597D01*
X032810Y010678D02*
X032552Y010678D01*
X032552Y010759D02*
X032810Y010759D01*
X032810Y010840D02*
X032552Y010840D01*
X032552Y010921D02*
X032810Y010921D01*
X032310Y010990D02*
X032052Y010990D01*
X032310Y010990D02*
X032310Y010192D01*
X032052Y010192D01*
X032052Y010990D01*
X032052Y010273D02*
X032310Y010273D01*
X032310Y010354D02*
X032052Y010354D01*
X032052Y010435D02*
X032310Y010435D01*
X032310Y010516D02*
X032052Y010516D01*
X032052Y010597D02*
X032310Y010597D01*
X032310Y010678D02*
X032052Y010678D01*
X032052Y010759D02*
X032310Y010759D01*
X032310Y010840D02*
X032052Y010840D01*
X032052Y010921D02*
X032310Y010921D01*
X031810Y010990D02*
X031552Y010990D01*
X031810Y010990D02*
X031810Y010192D01*
X031552Y010192D01*
X031552Y010990D01*
X031552Y010273D02*
X031810Y010273D01*
X031810Y010354D02*
X031552Y010354D01*
X031552Y010435D02*
X031810Y010435D01*
X031810Y010516D02*
X031552Y010516D01*
X031552Y010597D02*
X031810Y010597D01*
X031810Y010678D02*
X031552Y010678D01*
X031552Y010759D02*
X031810Y010759D01*
X031810Y010840D02*
X031552Y010840D01*
X031552Y010921D02*
X031810Y010921D01*
X031310Y010990D02*
X031052Y010990D01*
X031310Y010990D02*
X031310Y010192D01*
X031052Y010192D01*
X031052Y010990D01*
X031052Y010273D02*
X031310Y010273D01*
X031310Y010354D02*
X031052Y010354D01*
X031052Y010435D02*
X031310Y010435D01*
X031310Y010516D02*
X031052Y010516D01*
X031052Y010597D02*
X031310Y010597D01*
X031310Y010678D02*
X031052Y010678D01*
X031052Y010759D02*
X031310Y010759D01*
X031310Y010840D02*
X031052Y010840D01*
X031052Y010921D02*
X031310Y010921D01*
X030810Y010990D02*
X030552Y010990D01*
X030810Y010990D02*
X030810Y010192D01*
X030552Y010192D01*
X030552Y010990D01*
X030552Y010273D02*
X030810Y010273D01*
X030810Y010354D02*
X030552Y010354D01*
X030552Y010435D02*
X030810Y010435D01*
X030810Y010516D02*
X030552Y010516D01*
X030552Y010597D02*
X030810Y010597D01*
X030810Y010678D02*
X030552Y010678D01*
X030552Y010759D02*
X030810Y010759D01*
X030810Y010840D02*
X030552Y010840D01*
X030552Y010921D02*
X030810Y010921D01*
X030310Y010990D02*
X030052Y010990D01*
X030310Y010990D02*
X030310Y010192D01*
X030052Y010192D01*
X030052Y010990D01*
X030052Y010273D02*
X030310Y010273D01*
X030310Y010354D02*
X030052Y010354D01*
X030052Y010435D02*
X030310Y010435D01*
X030310Y010516D02*
X030052Y010516D01*
X030052Y010597D02*
X030310Y010597D01*
X030310Y010678D02*
X030052Y010678D01*
X030052Y010759D02*
X030310Y010759D01*
X030310Y010840D02*
X030052Y010840D01*
X030052Y010921D02*
X030310Y010921D01*
X029810Y010990D02*
X029552Y010990D01*
X029810Y010990D02*
X029810Y010192D01*
X029552Y010192D01*
X029552Y010990D01*
X029552Y010273D02*
X029810Y010273D01*
X029810Y010354D02*
X029552Y010354D01*
X029552Y010435D02*
X029810Y010435D01*
X029810Y010516D02*
X029552Y010516D01*
X029552Y010597D02*
X029810Y010597D01*
X029810Y010678D02*
X029552Y010678D01*
X029552Y010759D02*
X029810Y010759D01*
X029810Y010840D02*
X029552Y010840D01*
X029552Y010921D02*
X029810Y010921D01*
D14*
X033267Y010830D02*
X033267Y010320D01*
X033267Y010830D02*
X033895Y010830D01*
X033895Y010320D01*
X033267Y010320D01*
X033267Y010402D02*
X033895Y010402D01*
X033895Y010484D02*
X033267Y010484D01*
X033267Y010566D02*
X033895Y010566D01*
X033895Y010648D02*
X033267Y010648D01*
X033267Y010730D02*
X033895Y010730D01*
X033895Y010812D02*
X033267Y010812D01*
X033267Y010043D02*
X033267Y009533D01*
X033267Y010043D02*
X033895Y010043D01*
X033895Y009533D01*
X033267Y009533D01*
X033267Y009615D02*
X033895Y009615D01*
X033895Y009697D02*
X033267Y009697D01*
X033267Y009779D02*
X033895Y009779D01*
X033895Y009861D02*
X033267Y009861D01*
X033267Y009943D02*
X033895Y009943D01*
X033895Y010025D02*
X033267Y010025D01*
X038667Y010143D02*
X038667Y009633D01*
X038667Y010143D02*
X039295Y010143D01*
X039295Y009633D01*
X038667Y009633D01*
X038667Y009715D02*
X039295Y009715D01*
X039295Y009797D02*
X038667Y009797D01*
X038667Y009879D02*
X039295Y009879D01*
X039295Y009961D02*
X038667Y009961D01*
X038667Y010043D02*
X039295Y010043D01*
X039295Y010125D02*
X038667Y010125D01*
X038667Y010420D02*
X038667Y010930D01*
X039295Y010930D01*
X039295Y010420D01*
X038667Y010420D01*
X038667Y010502D02*
X039295Y010502D01*
X039295Y010584D02*
X038667Y010584D01*
X038667Y010666D02*
X039295Y010666D01*
X039295Y010748D02*
X038667Y010748D01*
X038667Y010830D02*
X039295Y010830D01*
X039295Y010912D02*
X038667Y010912D01*
X038667Y008430D02*
X038667Y007920D01*
X038667Y008430D02*
X039295Y008430D01*
X039295Y007920D01*
X038667Y007920D01*
X038667Y008002D02*
X039295Y008002D01*
X039295Y008084D02*
X038667Y008084D01*
X038667Y008166D02*
X039295Y008166D01*
X039295Y008248D02*
X038667Y008248D01*
X038667Y008330D02*
X039295Y008330D01*
X039295Y008412D02*
X038667Y008412D01*
X038667Y007643D02*
X038667Y007133D01*
X038667Y007643D02*
X039295Y007643D01*
X039295Y007133D01*
X038667Y007133D01*
X038667Y007215D02*
X039295Y007215D01*
X039295Y007297D02*
X038667Y007297D01*
X038667Y007379D02*
X039295Y007379D01*
X039295Y007461D02*
X038667Y007461D01*
X038667Y007543D02*
X039295Y007543D01*
X039295Y007625D02*
X038667Y007625D01*
X021230Y009067D02*
X020720Y009067D01*
X020720Y009695D01*
X021230Y009695D01*
X021230Y009067D01*
X021230Y009149D02*
X020720Y009149D01*
X020720Y009231D02*
X021230Y009231D01*
X021230Y009313D02*
X020720Y009313D01*
X020720Y009395D02*
X021230Y009395D01*
X021230Y009477D02*
X020720Y009477D01*
X020720Y009559D02*
X021230Y009559D01*
X021230Y009641D02*
X020720Y009641D01*
X020443Y009067D02*
X019933Y009067D01*
X019933Y009695D01*
X020443Y009695D01*
X020443Y009067D01*
X020443Y009149D02*
X019933Y009149D01*
X019933Y009231D02*
X020443Y009231D01*
X020443Y009313D02*
X019933Y009313D01*
X019933Y009395D02*
X020443Y009395D01*
X020443Y009477D02*
X019933Y009477D01*
X019933Y009559D02*
X020443Y009559D01*
X020443Y009641D02*
X019933Y009641D01*
X014330Y009695D02*
X013820Y009695D01*
X014330Y009695D02*
X014330Y009067D01*
X013820Y009067D01*
X013820Y009695D01*
X013820Y009149D02*
X014330Y009149D01*
X014330Y009231D02*
X013820Y009231D01*
X013820Y009313D02*
X014330Y009313D01*
X014330Y009395D02*
X013820Y009395D01*
X013820Y009477D02*
X014330Y009477D01*
X014330Y009559D02*
X013820Y009559D01*
X013820Y009641D02*
X014330Y009641D01*
X013543Y009695D02*
X013033Y009695D01*
X013543Y009695D02*
X013543Y009067D01*
X013033Y009067D01*
X013033Y009695D01*
X013033Y009149D02*
X013543Y009149D01*
X013543Y009231D02*
X013033Y009231D01*
X013033Y009313D02*
X013543Y009313D01*
X013543Y009395D02*
X013033Y009395D01*
X013033Y009477D02*
X013543Y009477D01*
X013543Y009559D02*
X013033Y009559D01*
X013033Y009641D02*
X013543Y009641D01*
D15*
X043581Y001481D03*
D16*
X025241Y005022D03*
X024781Y004681D03*
X020781Y006781D03*
X020881Y007681D03*
X019581Y008981D03*
X015581Y008581D03*
X012081Y008981D03*
X013481Y007481D03*
X013981Y007481D03*
X014481Y007481D03*
X014381Y006481D03*
X013381Y006481D03*
X012881Y006481D03*
X011881Y006481D03*
X010681Y005181D03*
D17*
X039981Y010881D03*
M02*
